<svg xmlns="http://www.w3.org/2000/svg" xmlns:xlink="http://www.w3.org/1999/xlink" width="280" zoomAndPan="magnify" viewBox="0 0 210 67.92" height="80" preserveAspectRatio="xMidYMid meet" version="1.0"><defs><clipPath id="4d20e78738"><path d="M 13.738281 38 L 48 38 L 48 48.257812 L 13.738281 48.257812 Z M 13.738281 38 " clip-rule="nonzero"/></clipPath><clipPath id="d13eeaec80"><path d="M 13.738281 11.550781 L 48 11.550781 L 48 41 L 13.738281 41 Z M 13.738281 11.550781 " clip-rule="nonzero"/></clipPath><clipPath id="005fd7dc2f"><path d="M 55 19 L 185.285156 19 L 185.285156 41 L 55 41 Z M 55 19 " clip-rule="nonzero"/></clipPath></defs><g clip-path="url(#4d20e78738)"><path fill="#2673dd" d="M 22.34375 41.746094 C 25.003906 41.601562 27.1875 42.527344 29.507812 43.511719 C 32.113281 44.621094 34.8125 45.753906 38.585938 45.601562 C 39.535156 45.5625 40.472656 45.386719 41.371094 45.078125 C 41.667969 44.992188 41.992188 45.023438 42.265625 45.167969 C 42.542969 45.3125 42.75 45.558594 42.851562 45.851562 C 42.949219 46.144531 42.929688 46.464844 42.800781 46.746094 C 42.671875 47.03125 42.433594 47.25 42.144531 47.363281 C 41.027344 47.753906 39.859375 47.972656 38.675781 48.015625 C 38.226562 48.03125 37.765625 48.046875 37.324219 48.03125 C 33.707031 47.929688 30.992188 46.78125 28.5625 45.75 C 26.425781 44.835938 24.566406 44.066406 22.515625 44.164062 C 21.425781 44.273438 20.386719 44.664062 19.5 45.300781 C 19.246094 45.5 18.925781 45.59375 18.605469 45.5625 C 18.285156 45.527344 17.988281 45.367188 17.789062 45.117188 C 17.585938 44.867188 17.492188 44.542969 17.527344 44.222656 C 17.5625 43.90625 17.722656 43.613281 17.972656 43.410156 C 19.25 42.464844 20.761719 41.886719 22.34375 41.746094 Z M 22.289062 38.039062 C 26.140625 37.878906 28.695312 38.996094 31.164062 40.0625 C 33.511719 41.078125 35.71875 42.042969 39.105469 41.902344 C 41.753906 41.796875 44.082031 40.453125 45.234375 39.65625 C 45.507812 39.476562 45.839844 39.414062 46.160156 39.476562 C 46.480469 39.539062 46.765625 39.726562 46.949219 39.992188 C 47.136719 40.261719 47.210938 40.589844 47.15625 40.914062 C 47.101562 41.234375 46.925781 41.523438 46.664062 41.714844 C 45.285156 42.664062 42.488281 44.273438 39.207031 44.398438 C 38.828125 44.425781 38.453125 44.433594 38.070312 44.421875 C 34.726562 44.351562 32.402344 43.34375 30.144531 42.359375 C 27.839844 41.355469 25.660156 40.410156 22.378906 40.542969 C 19.546875 40.65625 17.035156 42.351562 15.792969 43.351562 C 15.53125 43.558594 15.199219 43.65625 14.867188 43.621094 C 14.535156 43.585938 14.230469 43.421875 14.023438 43.160156 C 13.8125 42.898438 13.71875 42.570312 13.753906 42.238281 C 13.789062 41.90625 13.953125 41.601562 14.214844 41.394531 C 15.695312 40.199219 18.714844 38.175781 22.285156 38.039062 Z M 22.289062 38.039062 " fill-opacity="1" fill-rule="nonzero"/></g><g clip-path="url(#d13eeaec80)"><path fill="#ea5f00" d="M 30.664062 11.550781 C 32.878906 11.550781 35.074219 11.984375 37.121094 12.828125 C 39.167969 13.675781 41.027344 14.914062 42.597656 16.476562 C 44.164062 18.035156 45.40625 19.890625 46.253906 21.929688 C 47.101562 23.972656 47.539062 26.160156 47.539062 28.367188 C 47.539062 32.6875 45.90625 36.4375 43.234375 39.410156 C 42.191406 39.894531 40.945312 40.484375 39.625 40.554688 C 39.214844 40.578125 38.816406 40.585938 38.4375 40.578125 C 40.910156 39.007812 42.847656 36.726562 43.996094 34.035156 C 45.144531 31.34375 45.445312 28.367188 44.863281 25.503906 C 44.277344 22.636719 42.839844 20.011719 40.726562 17.980469 C 38.621094 15.945312 35.941406 14.597656 33.046875 14.109375 C 30.152344 13.625 27.179688 14.023438 24.519531 15.257812 C 21.859375 16.488281 19.632812 18.496094 18.140625 21.011719 C 16.644531 23.53125 15.953125 26.441406 16.148438 29.359375 C 16.347656 32.277344 17.429688 35.066406 19.25 37.359375 C 18.476562 37.589844 17.71875 37.878906 16.992188 38.230469 C 15.167969 35.722656 14.070312 32.757812 13.828125 29.664062 C 13.585938 26.574219 14.207031 23.476562 15.621094 20.714844 C 17.035156 17.953125 19.191406 15.632812 21.84375 14.015625 C 24.5 12.398438 27.554688 11.546875 30.664062 11.550781 Z M 30.660156 15.03125 C 33.695312 15.03125 36.636719 16.066406 38.996094 17.964844 C 41.359375 19.863281 42.996094 22.507812 43.640625 25.460938 C 44.28125 28.417969 43.894531 31.503906 42.535156 34.203125 C 41.175781 36.90625 38.929688 39.0625 36.167969 40.316406 C 34.519531 40.007812 33.105469 39.433594 31.640625 38.835938 L 31.609375 38.824219 C 29.046875 37.777344 26.125 36.582031 21.90625 36.839844 C 21.488281 36.867188 21.070312 36.914062 20.65625 36.984375 C 18.976562 35.070312 17.882812 32.714844 17.511719 30.199219 C 17.140625 27.683594 17.503906 25.117188 18.558594 22.800781 C 19.613281 20.484375 21.316406 18.519531 23.460938 17.144531 C 25.609375 15.769531 28.105469 15.039062 30.65625 15.039062 L 30.65625 15.03125 Z M 24.359375 33.792969 L 26.769531 33.792969 L 26.769531 26.390625 C 26.820312 26.410156 26.863281 26.445312 26.886719 26.496094 C 27.78125 28.132812 29.5625 31.496094 29.570312 31.511719 L 31.796875 31.511719 C 31.804688 31.496094 33.449219 28.3125 34.273438 26.804688 C 34.355469 26.648438 34.453125 26.496094 34.542969 26.34375 L 34.597656 26.363281 L 34.597656 33.789062 L 36.972656 33.789062 L 36.984375 21.433594 C 36.953125 21.421875 34.605469 21.433594 34.585938 21.433594 C 34.585938 21.4375 34.289062 22.058594 34.144531 22.324219 C 33.089844 24.253906 32.039062 26.179688 30.988281 28.105469 C 30.890625 28.273438 30.789062 28.457031 30.679688 28.640625 C 30.632812 28.582031 30.613281 28.558594 30.601562 28.53125 C 29.332031 26.21875 27.960938 23.710938 26.703125 21.394531 L 24.359375 21.394531 Z M 24.359375 33.792969 " fill-opacity="1" fill-rule="nonzero"/></g><g clip-path="url(#005fd7dc2f)"><path fill="#ea5f00" d="M 156.425781 26.644531 L 156.546875 26.707031 C 156.558594 26.65625 156.578125 26.605469 156.601562 26.554688 C 157.570312 25.132812 158.988281 24.5625 160.636719 24.453125 C 162.039062 24.3125 163.453125 24.621094 164.667969 25.335938 C 165.4375 25.789062 166.09375 26.410156 166.585938 27.152344 C 167.074219 27.898438 167.386719 28.746094 167.496094 29.628906 L 167.496094 29.636719 C 167.65625 30.886719 167.738281 32.144531 167.742188 33.40625 C 167.773438 35.550781 167.746094 37.984375 167.746094 40.195312 L 163.753906 40.195312 L 163.753906 39.746094 C 163.753906 37.703125 163.78125 35.375 163.734375 33.335938 C 163.710938 32.398438 163.601562 31.464844 163.410156 30.546875 C 162.996094 28.53125 161.535156 27.753906 159.609375 28.015625 C 157.898438 28.25 156.84375 29.375 156.59375 31.203125 C 156.488281 31.945312 156.433594 32.695312 156.425781 33.445312 C 156.402344 35.578125 156.425781 38.074219 156.425781 40.269531 C 156.296875 40.285156 153.105469 40.269531 152.46875 40.269531 L 152.46875 24.425781 C 152.472656 24.332031 152.484375 24.234375 152.5 24.140625 L 156.425781 24.140625 Z M 95.160156 40.25 C 94.609375 40.25 91.148438 40.277344 91.070312 40.25 L 91.070312 38.148438 C 90.90625 38.292969 90.804688 38.375 90.714844 38.460938 C 89.242188 39.851562 87.476562 40.296875 85.5 40.101562 C 84.089844 39.980469 82.753906 39.449219 81.640625 38.578125 C 80.867188 37.96875 80.222656 37.210938 79.742188 36.351562 C 79.261719 35.492188 78.957031 34.546875 78.847656 33.570312 C 78.558594 31.863281 78.773438 30.109375 79.464844 28.523438 C 80.683594 25.84375 82.796875 24.429688 85.738281 24.203125 C 86.714844 24.097656 87.707031 24.21875 88.625 24.558594 C 89.546875 24.902344 90.378906 25.449219 91.050781 26.164062 L 91.054688 26.164062 L 91.054688 24.125 L 95.160156 24.125 Z M 149.679688 24.125 L 149.679688 40.25 C 149.125 40.25 145.664062 40.277344 145.589844 40.25 L 145.589844 38.148438 C 145.425781 38.292969 145.324219 38.375 145.234375 38.460938 C 143.761719 39.851562 141.996094 40.296875 140.019531 40.101562 C 138.609375 39.980469 137.269531 39.449219 136.160156 38.578125 C 135.386719 37.96875 134.742188 37.210938 134.261719 36.351562 C 133.78125 35.492188 133.476562 34.546875 133.363281 33.570312 C 133.074219 31.863281 133.292969 30.109375 133.984375 28.523438 C 135.203125 25.84375 137.316406 24.429688 140.257812 24.203125 C 141.234375 24.097656 142.222656 24.21875 143.144531 24.558594 C 144.066406 24.902344 144.898438 25.449219 145.570312 26.164062 L 145.574219 26.164062 L 145.574219 24.125 Z M 124.019531 19.363281 C 125.34375 19.320312 126.660156 19.613281 127.839844 20.21875 C 131.074219 21.996094 131.390625 26.242188 129.230469 28.683594 C 129.167969 28.75 129.109375 28.824219 129.027344 28.921875 C 129.3125 29.132812 129.574219 29.320312 129.820312 29.539062 C 131.363281 30.894531 131.917969 32.628906 131.796875 34.632812 C 131.660156 36.90625 129.929688 39.238281 126.761719 39.878906 C 125.730469 40.089844 124.679688 40.199219 123.625 40.210938 C 121.109375 40.257812 118.300781 40.210938 115.78125 40.210938 L 115.78125 19.363281 Z M 115.78125 40.222656 C 115.90625 40.234375 115.699219 40.222656 115.769531 40.214844 L 115.78125 40.214844 Z M 174.449219 30.082031 C 174.992188 29.457031 175.457031 28.925781 175.910156 28.378906 C 176.972656 27.125 178.957031 24.753906 179.484375 24.183594 L 185.277344 24.183594 C 184.839844 24.683594 184.167969 25.414062 183.777344 25.859375 C 182.253906 27.578125 180.726562 29.292969 179.191406 31.011719 C 179.132812 31.054688 179.085938 31.113281 179.050781 31.175781 C 179.015625 31.242188 179 31.3125 178.996094 31.386719 C 178.992188 31.460938 179.003906 31.535156 179.03125 31.601562 C 179.0625 31.671875 179.105469 31.734375 179.160156 31.78125 L 179.15625 31.78125 C 181.121094 34.453125 183.0625 37.140625 185.007812 39.824219 C 185.082031 39.933594 185.152344 40.046875 185.269531 40.222656 L 180.164062 40.222656 C 180.035156 40.089844 177.445312 36.332031 176.117188 34.507812 C 176.070312 34.449219 176.011719 34.394531 175.933594 34.308594 C 175.445312 34.785156 174.960938 35.242188 174.507812 35.730469 C 174.433594 35.871094 174.402344 36.035156 174.421875 36.191406 L 174.421875 40.207031 L 170.402344 40.207031 L 170.402344 19.402344 L 174.449219 19.402344 Z M 112.648438 40.195312 C 112.640625 40.285156 112.621094 40.070312 112.609375 40.195312 L 108.636719 40.195312 L 108.636719 25.847656 L 112.648438 25.847656 Z M 59.640625 19.367188 C 61.757812 23.253906 64.058594 27.46875 66.183594 31.351562 C 66.226562 31.417969 66.273438 31.480469 66.320312 31.539062 C 66.5 31.21875 66.675781 30.933594 66.835938 30.640625 C 68.605469 27.402344 70.371094 24.164062 72.132812 20.925781 C 72.378906 20.480469 72.882812 19.433594 72.882812 19.433594 C 72.882812 19.433594 76.871094 19.410156 76.910156 19.433594 L 76.910156 40.183594 L 72.917969 40.183594 L 72.917969 27.710938 L 72.828125 27.683594 C 72.675781 27.941406 72.519531 28.195312 72.375 28.457031 C 70.992188 30.988281 68.226562 36.339844 68.214844 36.363281 L 64.480469 36.363281 C 64.46875 36.339844 61.46875 30.671875 59.964844 27.9375 C 59.925781 27.855469 59.851562 27.792969 59.769531 27.761719 L 59.769531 40.203125 L 55.703125 40.203125 L 55.703125 19.367188 Z M 101.894531 26.558594 L 101.851562 26.617188 L 101.851562 26.621094 C 103.058594 25.222656 104.492188 24.304688 106.445312 24.382812 L 106.445312 28.347656 C 106.148438 28.359375 105.851562 28.382812 105.558594 28.425781 C 103.519531 28.828125 102.179688 30.230469 101.953125 32.328125 C 101.8125 33.601562 101.902344 38.902344 101.902344 40.195312 L 97.945312 40.195312 L 97.945312 24.125 L 101.894531 24.125 Z M 91.035156 32.714844 C 91.449219 29.398438 88.808594 27.273438 85.792969 28.039062 C 83.921875 28.507812 82.746094 30.195312 82.703125 32.257812 L 82.71875 32.257812 C 82.753906 32.667969 82.8125 33.078125 82.894531 33.480469 C 83.667969 36.570312 87.363281 37.164062 89.457031 35.683594 C 90.464844 34.960938 90.882812 33.898438 91.03125 32.71875 Z M 145.554688 32.714844 C 145.96875 29.398438 143.324219 27.273438 140.3125 28.039062 C 138.441406 28.507812 137.261719 30.195312 137.222656 32.257812 L 137.238281 32.257812 C 137.273438 32.667969 137.332031 33.078125 137.414062 33.480469 C 138.1875 36.570312 141.882812 37.164062 143.972656 35.683594 C 144.984375 34.960938 145.402344 33.898438 145.550781 32.71875 Z M 120.117188 31.464844 C 119.921875 31.464844 119.832031 31.523438 119.832031 31.75 C 119.839844 33.179688 119.839844 34.640625 119.839844 36.136719 C 119.984375 36.136719 120.074219 36.15625 120.164062 36.15625 C 121.542969 36.15625 122.917969 36.15625 124.292969 36.132812 C 124.816406 36.128906 125.34375 36.074219 125.859375 35.976562 C 127.570312 35.644531 128.003906 34.5 127.644531 33.070312 C 127.398438 32.09375 126.570312 31.675781 125.648438 31.621094 C 123.808594 31.511719 121.960938 31.511719 120.117188 31.464844 Z M 119.871094 23.421875 L 119.871094 27.417969 L 124.183594 27.417969 C 124.503906 27.40625 124.824219 27.355469 125.136719 27.273438 C 125.515625 27.199219 125.859375 26.996094 126.109375 26.699219 C 126.359375 26.40625 126.507812 26.039062 126.523438 25.652344 C 126.550781 24.515625 126.175781 23.894531 125.214844 23.632812 C 124.773438 23.511719 124.316406 23.445312 123.859375 23.4375 C 122.546875 23.410156 121.226562 23.421875 119.871094 23.421875 Z M 110.632812 19.550781 C 111.25 19.558594 111.84375 19.8125 112.277344 20.253906 C 112.710938 20.695312 112.949219 21.289062 112.945312 21.90625 C 112.945312 22.207031 112.882812 22.507812 112.761719 22.785156 C 112.644531 23.0625 112.472656 23.316406 112.253906 23.527344 C 112.039062 23.738281 111.78125 23.90625 111.5 24.015625 C 111.21875 24.128906 110.917969 24.1875 110.613281 24.183594 C 110.3125 24.179688 110.011719 24.117188 109.730469 24 C 109.453125 23.882812 109.199219 23.710938 108.988281 23.492188 C 108.777344 23.277344 108.609375 23.023438 108.496094 22.742188 C 108.382812 22.460938 108.324219 22.160156 108.328125 21.859375 C 108.328125 21.246094 108.570312 20.660156 109.003906 20.226562 C 109.433594 19.796875 110.023438 19.550781 110.636719 19.550781 Z M 110.632812 19.550781 " fill-opacity="1" fill-rule="nonzero"/></g></svg>