<svg xmlns="http://www.w3.org/2000/svg" xmlns:xlink="http://www.w3.org/1999/xlink" width="280" zoomAndPan="magnify" viewBox="0 0 210 60" height="80" preserveAspectRatio="xMidYMid meet" version="1.0"><defs><clipPath id="aaf36efd99"><path d="M 17.375 6 L 57 6 L 57 51.75 L 17.375 51.75 Z M 17.375 6 " clip-rule="nonzero"/></clipPath><clipPath id="7f30e7b6e4"><path d="M 62 26 L 72.125 26 L 72.125 38 L 62 38 Z M 62 26 " clip-rule="nonzero"/></clipPath></defs><g clip-path="url(#aaf36efd99)"><path fill="#4892cf" d="M 17.375 17.445312 C 23.921875 13.636719 30.46875 9.828125 37.011719 6.015625 C 43.554688 9.964844 50.109375 13.886719 56.648438 17.835938 C 56.644531 20.433594 56.648438 23.035156 56.648438 25.636719 C 56.074219 25.640625 55.5 25.640625 54.925781 25.636719 C 54.929688 23.417969 54.925781 21.195312 54.929688 18.976562 C 48.960938 15.351562 42.980469 11.738281 37.011719 8.113281 C 31.039062 11.542969 25.058594 14.96875 19.085938 18.40625 C 19.097656 25.328125 19.082031 32.25 19.097656 39.167969 C 25.074219 42.648438 31.039062 46.152344 37.011719 49.636719 C 42.980469 46.140625 48.957031 42.65625 54.925781 39.160156 C 54.929688 38.777344 54.925781 38.398438 54.929688 38.015625 C 55.5 38.015625 56.074219 38.015625 56.644531 38.015625 C 56.648438 38.714844 56.640625 39.410156 56.648438 40.105469 C 50.109375 43.992188 43.554688 47.851562 37.011719 51.734375 C 30.46875 47.859375 23.921875 43.984375 17.375 40.117188 C 17.375 32.558594 17.375 25.003906 17.375 17.445312 " fill-opacity="1" fill-rule="nonzero"/></g><path fill="#4892cf" d="M 43.136719 26.503906 C 44.222656 26.074219 45.433594 26.027344 46.574219 26.226562 C 47.699219 26.421875 48.726562 27.011719 49.527344 27.8125 C 49.109375 28.277344 48.707031 28.753906 48.296875 29.222656 C 47.628906 28.59375 46.816406 28.066406 45.894531 27.921875 C 44.9375 27.75 43.898438 27.976562 43.125 28.578125 C 42.4375 29.101562 41.964844 29.882812 41.773438 30.71875 C 41.539062 31.734375 41.660156 32.84375 42.167969 33.761719 C 42.566406 34.488281 43.21875 35.089844 44 35.382812 C 44.785156 35.679688 45.671875 35.675781 46.46875 35.425781 C 47.203125 35.195312 47.820312 34.710938 48.375 34.195312 C 48.785156 34.609375 49.207031 35.015625 49.601562 35.445312 C 48.839844 36.242188 47.902344 36.914062 46.8125 37.175781 C 45.8125 37.414062 44.742188 37.433594 43.738281 37.183594 C 42.449219 36.859375 41.296875 36.035156 40.574219 34.921875 C 39.324219 33.035156 39.34375 30.402344 40.609375 28.527344 C 41.214844 27.609375 42.113281 26.894531 43.136719 26.503906 " fill-opacity="1" fill-rule="nonzero"/><g clip-path="url(#7f30e7b6e4)"><path fill="#4892cf" d="M 64.941406 26.839844 C 65.78125 26.363281 66.75 26.117188 67.714844 26.117188 C 68.511719 26.101562 69.3125 26.210938 70.058594 26.5 C 70.804688 26.785156 71.476562 27.25 72.042969 27.8125 C 71.628906 28.28125 71.222656 28.753906 70.816406 29.222656 C 70.316406 28.753906 69.746094 28.34375 69.101562 28.105469 C 68.1875 27.765625 67.132812 27.78125 66.246094 28.207031 C 65.496094 28.5625 64.894531 29.203125 64.550781 29.957031 C 64.085938 30.980469 64.050781 32.183594 64.445312 33.234375 C 64.761719 34.105469 65.410156 34.867188 66.253906 35.269531 C 67.003906 35.636719 67.882812 35.691406 68.691406 35.507812 C 69.550781 35.328125 70.261719 34.777344 70.894531 34.199219 C 71.304688 34.609375 71.714844 35.023438 72.125 35.433594 C 71.40625 36.195312 70.527344 36.835938 69.507812 37.125 C 68.691406 37.363281 67.828125 37.402344 66.980469 37.320312 C 65.351562 37.136719 63.832031 36.175781 62.992188 34.761719 C 61.910156 32.988281 61.894531 30.628906 62.9375 28.832031 C 63.410156 28.003906 64.109375 27.308594 64.941406 26.839844 " fill-opacity="1" fill-rule="nonzero"/></g><path fill="#4892cf" d="M 31.183594 28.042969 C 31.183594 29.257812 31.183594 30.472656 31.179688 31.6875 C 32.140625 31.6875 33.097656 31.691406 34.058594 31.6875 C 34.601562 31.683594 35.164062 31.550781 35.59375 31.210938 C 36.378906 30.605469 36.4375 29.304688 35.746094 28.609375 C 35.300781 28.183594 34.660156 28.050781 34.0625 28.042969 C 33.101562 28.039062 32.140625 28.042969 31.183594 28.042969 M 29.273438 26.304688 C 30.925781 26.304688 32.582031 26.300781 34.238281 26.304688 C 35.285156 26.308594 36.386719 26.585938 37.171875 27.304688 C 37.863281 27.929688 38.191406 28.882812 38.164062 29.796875 C 38.167969 30.652344 37.867188 31.523438 37.253906 32.128906 C 36.789062 32.585938 36.191406 32.890625 35.566406 33.058594 C 36.546875 34.425781 37.523438 35.800781 38.5 37.171875 C 37.777344 37.175781 37.054688 37.171875 36.328125 37.175781 C 36.246094 37.195312 36.207031 37.101562 36.164062 37.054688 C 35.300781 35.828125 34.4375 34.609375 33.574219 33.386719 C 32.777344 33.390625 31.980469 33.386719 31.179688 33.386719 C 31.183594 34.648438 31.183594 35.914062 31.179688 37.175781 C 30.542969 37.171875 29.90625 37.171875 29.269531 37.175781 C 29.269531 33.550781 29.269531 29.925781 29.273438 26.304688 " fill-opacity="1" fill-rule="nonzero"/><path fill="#4892cf" d="M 53.121094 32.496094 C 53.113281 33.492188 53.121094 34.488281 53.117188 35.484375 C 54.222656 35.484375 55.328125 35.484375 56.433594 35.484375 C 56.953125 35.460938 57.507812 35.367188 57.917969 35.027344 C 58.566406 34.511719 58.546875 33.351562 57.835938 32.894531 C 57.226562 32.496094 56.460938 32.496094 55.757812 32.496094 Z M 53.117188 27.992188 C 53.117188 28.957031 53.121094 29.917969 53.117188 30.882812 C 54 30.882812 54.878906 30.882812 55.761719 30.882812 C 56.085938 30.886719 56.414062 30.839844 56.726562 30.75 C 57.121094 30.625 57.5 30.371094 57.664062 29.980469 C 57.871094 29.484375 57.8125 28.839844 57.402344 28.464844 C 57.015625 28.101562 56.457031 28.011719 55.945312 27.992188 C 55.003906 27.992188 54.058594 27.988281 53.117188 27.992188 M 51.230469 26.304688 C 52.921875 26.304688 54.617188 26.300781 56.3125 26.308594 C 57.265625 26.328125 58.28125 26.578125 58.972656 27.273438 C 59.464844 27.75 59.707031 28.445312 59.6875 29.121094 C 59.695312 29.753906 59.480469 30.394531 59.039062 30.855469 C 58.789062 31.132812 58.46875 31.332031 58.152344 31.523438 C 58.785156 31.75 59.429688 32.066406 59.832031 32.625 C 60.292969 33.238281 60.371094 34.054688 60.242188 34.789062 C 60.109375 35.519531 59.636719 36.167969 59 36.542969 C 58.175781 37.03125 57.199219 37.179688 56.253906 37.171875 C 54.578125 37.175781 52.90625 37.171875 51.230469 37.175781 C 51.226562 33.550781 51.230469 29.929688 51.230469 26.304688 " fill-opacity="1" fill-rule="nonzero"/></svg>