<svg xmlns="http://www.w3.org/2000/svg" xmlns:xlink="http://www.w3.org/1999/xlink" width="280" zoomAndPan="magnify" viewBox="0 0 210 67.92" height="80" preserveAspectRatio="xMidYMid meet" version="1.0"><path fill="#d5b527" d="M 31.835938 7.496094 C 32.15625 7.441406 32.492188 7.476562 32.792969 7.621094 C 33.269531 7.832031 33.660156 8.257812 33.746094 8.769531 C 33.816406 9.195312 33.695312 9.636719 33.410156 9.972656 C 33.339844 10.0625 33.234375 10.132812 33.164062 10.21875 C 34.632812 10.363281 36.136719 10.699219 37.375 11.53125 C 37.496094 11.601562 37.605469 11.707031 37.746094 11.777344 C 38.949219 11.917969 40.167969 12.148438 41.214844 12.785156 C 41.691406 13.085938 42.117188 13.476562 42.398438 13.953125 C 42.664062 14.414062 42.804688 14.945312 42.769531 15.476562 C 42.789062 15.882812 42.683594 16.289062 42.503906 16.644531 C 42.257812 17.15625 41.851562 17.597656 41.390625 17.953125 C 40.949219 18.269531 40.453125 18.519531 39.941406 18.695312 C 39.796875 18.75 39.675781 18.765625 39.53125 18.835938 C 40.027344 18.890625 40.542969 18.960938 41 19.136719 C 41.035156 19.242188 41.054688 19.351562 41.070312 19.4375 C 41.179688 20.058594 41.300781 20.675781 41.425781 21.296875 C 38.949219 20.976562 36.453125 20.746094 33.941406 20.710938 C 33.359375 20.675781 32.773438 20.695312 32.191406 20.695312 C 31.765625 20.695312 31.324219 20.675781 30.898438 20.710938 C 29.976562 20.710938 29.058594 20.785156 28.121094 20.820312 C 27.414062 20.871094 26.722656 20.925781 26.015625 20.996094 C 24.988281 21.101562 23.945312 21.207031 22.917969 21.367188 C 22.863281 21.367188 22.8125 21.367188 22.777344 21.367188 C 22.9375 20.625 23.058594 19.882812 23.21875 19.15625 C 23.394531 19.066406 23.589844 19.050781 23.765625 18.996094 C 24.105469 18.925781 24.457031 18.890625 24.792969 18.835938 C 24.066406 18.679688 23.378906 18.359375 22.792969 17.898438 C 22.210938 17.4375 21.714844 16.800781 21.539062 16.078125 C 21.449219 15.792969 21.484375 15.492188 21.484375 15.210938 C 21.519531 14.539062 21.820312 13.882812 22.300781 13.40625 C 22.902344 12.769531 23.730469 12.398438 24.5625 12.148438 C 25.199219 11.972656 25.855469 11.847656 26.527344 11.777344 C 26.597656 11.742188 26.632812 11.707031 26.703125 11.652344 C 27.535156 11.050781 28.527344 10.679688 29.535156 10.449219 C 30.066406 10.34375 30.578125 10.253906 31.128906 10.203125 C 30.863281 9.988281 30.652344 9.707031 30.578125 9.371094 C 30.472656 9.015625 30.527344 8.609375 30.722656 8.292969 C 30.933594 7.882812 31.359375 7.582031 31.835938 7.496094 Z M 28.617188 12.46875 C 28.085938 12.855469 27.640625 13.351562 27.394531 13.953125 C 27.269531 14.238281 27.21875 14.554688 27.199219 14.875 C 27.199219 15.597656 27.519531 16.289062 28.015625 16.820312 C 28.492188 17.351562 29.128906 17.703125 29.800781 17.953125 C 30.296875 18.128906 30.828125 18.234375 31.359375 18.269531 C 30.878906 17.5625 30.722656 16.695312 30.632812 15.863281 C 30.578125 15.261719 30.5625 14.660156 30.613281 14.058594 C 30.6875 13.175781 30.84375 12.289062 31.269531 11.492188 C 30.332031 11.601562 29.394531 11.902344 28.617188 12.46875 Z M 32.96875 11.511719 C 33.320312 12.148438 33.480469 12.890625 33.585938 13.617188 C 33.605469 13.828125 33.640625 14.023438 33.640625 14.238281 C 33.640625 14.730469 33.660156 15.226562 33.625 15.722656 C 33.570312 16.128906 33.535156 16.535156 33.429688 16.925781 C 33.304688 17.402344 33.144531 17.882812 32.878906 18.289062 C 33.359375 18.269531 33.835938 18.164062 34.296875 18.023438 C 34.96875 17.8125 35.585938 17.457031 36.101562 16.980469 C 36.507812 16.589844 36.808594 16.113281 36.96875 15.582031 C 37.074219 15.175781 37.089844 14.730469 36.984375 14.308594 C 36.824219 13.652344 36.417969 13.105469 35.921875 12.660156 C 35.074219 11.972656 34.03125 11.617188 32.96875 11.511719 Z M 24.546875 13.261719 C 24.015625 13.511719 23.554688 13.902344 23.308594 14.429688 C 23.078125 14.910156 23.023438 15.476562 23.128906 15.988281 C 23.238281 16.519531 23.539062 16.980469 23.960938 17.316406 C 24.511719 17.757812 25.199219 17.988281 25.890625 18.09375 C 26.492188 18.183594 27.09375 18.199219 27.695312 18.09375 C 27.304688 17.933594 26.933594 17.738281 26.597656 17.511719 C 25.996094 17.101562 25.464844 16.535156 25.21875 15.847656 C 24.863281 14.855469 25.113281 13.722656 25.75 12.890625 C 25.34375 12.960938 24.933594 13.085938 24.546875 13.261719 Z M 38.488281 12.910156 C 38.929688 13.476562 39.195312 14.203125 39.179688 14.925781 C 39.195312 15.511719 38.984375 16.078125 38.664062 16.554688 C 38.488281 16.800781 38.277344 17.015625 38.046875 17.226562 C 37.605469 17.582031 37.089844 17.863281 36.558594 18.09375 C 36.738281 18.148438 36.914062 18.128906 37.089844 18.148438 C 37.480469 18.183594 37.886719 18.148438 38.277344 18.09375 C 38.859375 18.003906 39.460938 17.847656 39.957031 17.527344 C 40.453125 17.226562 40.859375 16.765625 41.035156 16.199219 C 41.179688 15.757812 41.195312 15.28125 41.070312 14.820312 C 40.949219 14.308594 40.628906 13.863281 40.207031 13.546875 C 39.710938 13.210938 39.109375 13 38.488281 12.910156 Z M 38.488281 12.910156 " fill-opacity="1" fill-rule="nonzero"/><path fill="#d5b527" d="M 32.242188 22.324219 C 32.417969 22.324219 32.632812 22.324219 32.828125 22.324219 C 33.464844 22.339844 34.117188 22.324219 34.753906 22.359375 C 36.152344 22.375 37.550781 22.480469 38.949219 22.589844 C 40.929688 22.746094 42.914062 22.976562 44.875 23.296875 C 45.53125 26.78125 46.113281 30.265625 46.714844 33.753906 C 47.050781 35.734375 47.390625 37.714844 47.726562 39.714844 C 47.796875 40.121094 47.902344 40.53125 47.882812 40.9375 C 47.882812 41.148438 47.882812 41.363281 47.867188 41.574219 C 47.777344 42.175781 47.582031 42.757812 47.246094 43.253906 C 46.875 43.785156 46.398438 44.246094 45.886719 44.636719 C 44.945312 45.324219 43.992188 45.980469 43.035156 46.632812 C 39.941406 48.773438 36.808594 50.898438 33.695312 53.023438 C 33.269531 53.304688 32.84375 53.605469 32.417969 53.886719 C 32.332031 53.960938 32.226562 53.851562 32.15625 53.816406 C 29.941406 52.367188 27.730469 50.898438 25.535156 49.429688 C 23.464844 48.03125 21.398438 46.652344 19.34375 45.238281 C 18.882812 44.898438 18.40625 44.597656 18 44.210938 C 17.628906 43.875 17.292969 43.503906 17.042969 43.058594 C 16.707031 42.457031 16.53125 41.769531 16.546875 41.078125 C 16.53125 40.582031 16.65625 40.085938 16.742188 39.59375 C 17.734375 34.195312 18.726562 28.796875 19.734375 23.417969 C 19.855469 23.382812 19.964844 23.367188 20.085938 23.347656 C 20.757812 23.226562 21.433594 23.136719 22.105469 23.03125 L 22.121094 23.03125 C 22.121094 23.066406 22.105469 23.117188 22.105469 23.136719 C 21.574219 25.96875 21.097656 28.796875 20.601562 31.648438 C 20.070312 34.671875 19.574219 37.699219 19.042969 40.722656 C 18.953125 41.253906 19.0625 41.820312 19.398438 42.246094 C 19.785156 42.757812 20.335938 43.128906 20.867188 43.503906 C 21.46875 43.925781 22.085938 44.332031 22.707031 44.742188 C 24.8125 46.140625 26.917969 47.519531 29.023438 48.898438 C 30.085938 49.589844 31.128906 50.296875 32.191406 50.96875 C 32.207031 50.917969 32.207031 50.863281 32.207031 50.792969 C 32.207031 41.804688 32.207031 32.816406 32.207031 23.828125 C 32.242188 23.332031 32.261719 22.835938 32.242188 22.324219 Z M 39.265625 26.390625 C 39.144531 26.480469 39.160156 26.65625 39.265625 26.765625 C 39.054688 26.800781 38.824219 26.835938 38.628906 26.957031 C 38.59375 26.976562 38.542969 27.011719 38.488281 27.03125 C 38.3125 27.046875 38.117188 27.101562 37.976562 27.207031 C 37.851562 27.292969 37.746094 27.4375 37.761719 27.59375 C 37.761719 27.789062 37.90625 27.949219 38.0625 28.039062 C 38.171875 28.109375 38.292969 28.109375 38.402344 28.160156 C 38.402344 28.234375 38.402344 28.304688 38.417969 28.355469 C 38.613281 28.355469 38.789062 28.304688 38.984375 28.285156 C 39.480469 28.25 39.957031 28.269531 40.433594 28.375 C 40.453125 28.285156 40.417969 28.125 40.542969 28.125 C 40.753906 28.089844 40.984375 27.949219 41.054688 27.738281 C 41.125 27.558594 41.054688 27.332031 40.894531 27.222656 C 40.734375 27.117188 40.542969 27.066406 40.363281 27.03125 C 40.292969 27.03125 40.257812 26.992188 40.207031 26.957031 C 40.027344 26.851562 39.816406 26.800781 39.605469 26.78125 C 39.65625 26.710938 39.710938 26.621094 39.675781 26.535156 C 39.605469 26.355469 39.390625 26.269531 39.265625 26.390625 Z M 41.300781 28.445312 C 41.710938 28.816406 41.902344 29.382812 41.902344 29.914062 C 41.957031 30.214844 41.886719 30.515625 41.886719 30.816406 C 41.832031 31.277344 41.761719 31.71875 41.671875 32.179688 C 41.601562 32.601562 41.515625 33.027344 41.496094 33.46875 C 41.515625 34.070312 41.761719 34.636719 42.0625 35.152344 C 42.347656 35.644531 42.699219 36.105469 42.964844 36.601562 C 43.054688 36.777344 43.179688 36.992188 43.125 37.203125 C 43.070312 37.328125 42.984375 37.46875 42.824219 37.449219 C 42.628906 37.46875 42.488281 37.308594 42.363281 37.1875 C 42.097656 36.867188 41.886719 36.511719 41.710938 36.140625 C 41.480469 35.628906 41.054688 35.238281 40.664062 34.832031 C 40.433594 34.601562 40.207031 34.371094 39.976562 34.160156 C 39.957031 34.140625 39.921875 34.105469 39.941406 34.070312 C 40.363281 33.71875 40.613281 33.203125 40.699219 32.671875 C 40.71875 32.601562 40.699219 32.53125 40.753906 32.480469 C 40.808594 32.53125 40.84375 32.621094 40.929688 32.585938 C 40.949219 32.410156 40.929688 32.214844 40.929688 32.019531 C 40.929688 32.214844 40.949219 32.410156 40.929688 32.601562 C 40.914062 32.601562 40.878906 32.621094 40.859375 32.621094 C 40.878906 32.636719 40.894531 32.65625 40.914062 32.671875 C 40.984375 32.671875 40.949219 32.585938 40.949219 32.550781 C 40.929688 32.214844 40.984375 31.878906 40.984375 31.542969 C 41.035156 31.257812 40.964844 30.992188 40.929688 30.726562 C 41.019531 30.726562 41.125 30.726562 41.214844 30.726562 C 41.179688 30.144531 41.089844 29.542969 40.734375 29.0625 C 40.488281 28.726562 40.097656 28.535156 39.691406 28.496094 C 39.144531 28.425781 38.59375 28.550781 38.0625 28.691406 C 37.976562 28.710938 37.976562 28.796875 37.957031 28.851562 C 38.097656 28.886719 38.242188 28.835938 38.363281 28.90625 C 38.257812 28.941406 38.152344 28.976562 38.0625 29.011719 C 38.027344 29.027344 38.011719 29.082031 38.011719 29.117188 C 38.011719 29.382812 38.082031 29.664062 38.257812 29.878906 C 38.363281 29.773438 38.382812 29.59375 38.542969 29.523438 C 38.613281 29.472656 38.683594 29.558594 38.738281 29.613281 C 38.914062 29.808594 38.929688 30.125 38.878906 30.375 C 38.859375 30.515625 38.683594 30.515625 38.578125 30.480469 C 38.488281 30.445312 38.4375 30.375 38.402344 30.285156 C 38.257812 30.65625 38.328125 31.132812 38.628906 31.417969 C 38.648438 31.292969 38.648438 31.152344 38.738281 31.0625 C 38.808594 30.957031 38.964844 30.921875 39.089844 30.921875 C 39.089844 31.167969 38.984375 31.453125 38.753906 31.578125 C 38.523438 31.699219 38.242188 31.699219 37.992188 31.769531 C 37.65625 31.859375 37.375 32.070312 37.144531 32.320312 C 36.808594 32.691406 36.558594 33.132812 36.257812 33.539062 C 36.046875 33.804688 35.800781 34.054688 35.464844 34.160156 C 35.480469 34.265625 35.535156 34.371094 35.585938 34.460938 C 35.730469 34.691406 35.941406 34.867188 36.1875 34.992188 C 36.1875 35.097656 36.117188 35.167969 36.066406 35.238281 C 35.871094 35.523438 35.65625 35.804688 35.410156 36.019531 C 35.339844 36.070312 35.269531 36.125 35.179688 36.125 C 35.089844 36.019531 35.019531 35.859375 34.878906 35.824219 C 34.683594 35.804688 34.507812 35.894531 34.332031 35.929688 C 34.296875 35.984375 34.277344 36.035156 34.261719 36.105469 C 34.332031 36.125 34.402344 36.140625 34.472656 36.175781 C 34.472656 36.285156 34.472656 36.371094 34.472656 36.476562 C 34.632812 36.511719 34.789062 36.53125 34.933594 36.566406 C 34.933594 36.585938 34.933594 36.636719 34.933594 36.65625 C 34.828125 36.636719 34.71875 36.621094 34.613281 36.585938 C 34.542969 36.601562 34.453125 36.601562 34.417969 36.671875 C 34.296875 36.847656 34.171875 37.0625 34.1875 37.292969 C 34.242188 37.273438 34.277344 37.238281 34.332031 37.203125 C 34.417969 37.203125 34.4375 37.308594 34.453125 37.378906 C 34.488281 37.398438 34.542969 37.449219 34.578125 37.398438 C 34.703125 37.292969 34.808594 37.167969 34.933594 37.0625 C 34.984375 37.042969 35.003906 37.097656 35.003906 37.132812 C 34.898438 37.257812 34.789062 37.34375 34.683594 37.46875 C 34.667969 37.488281 34.632812 37.523438 34.648438 37.558594 C 34.648438 37.769531 34.578125 38 34.648438 38.210938 C 34.738281 38.160156 34.789062 38.050781 34.878906 38.015625 C 34.949219 38.035156 35.019531 38.105469 35.109375 38.105469 C 35.355469 38.035156 35.445312 37.789062 35.570312 37.59375 C 35.675781 37.664062 35.816406 37.699219 35.941406 37.714844 C 35.957031 37.789062 35.957031 37.859375 35.976562 37.910156 C 35.976562 37.910156 35.992188 37.910156 36.011719 37.910156 C 36.117188 37.789062 36.207031 37.628906 36.207031 37.46875 C 36.207031 37.257812 36.171875 37.0625 36.207031 36.847656 C 36.242188 36.671875 36.347656 36.53125 36.472656 36.40625 C 36.542969 36.441406 36.613281 36.476562 36.683594 36.496094 C 36.84375 36.53125 37.003906 36.511719 37.160156 36.441406 C 37.269531 36.40625 37.355469 36.300781 37.390625 36.195312 C 37.234375 36.140625 37.054688 35.984375 37.089844 35.789062 C 37.125 35.664062 37.214844 35.558594 37.355469 35.523438 C 37.570312 35.46875 37.796875 35.503906 37.992188 35.59375 C 38.613281 35.859375 39.003906 36.425781 39.460938 36.886719 C 39.496094 37.113281 39.445312 37.363281 39.445312 37.59375 C 39.425781 38.050781 39.410156 38.53125 39.550781 38.972656 C 39.640625 39.292969 39.867188 39.554688 39.921875 39.894531 C 39.957031 40.050781 39.921875 40.210938 39.921875 40.351562 C 40.027344 40.316406 40.132812 40.300781 40.207031 40.230469 C 40.277344 40.160156 40.3125 40.085938 40.363281 40 C 40.453125 40 40.558594 40 40.648438 40.015625 C 40.628906 40.070312 40.613281 40.105469 40.59375 40.140625 C 40.417969 40.460938 40.242188 40.796875 40.011719 41.078125 C 39.886719 41.21875 39.761719 41.378906 39.585938 41.449219 C 39.445312 41.519531 39.25 41.539062 39.109375 41.449219 C 38.929688 41.363281 38.773438 41.183594 38.558594 41.183594 C 38.4375 41.183594 38.363281 41.289062 38.292969 41.363281 C 38.222656 41.433594 38.117188 41.414062 38.011719 41.449219 C 37.941406 41.484375 37.871094 41.589844 37.90625 41.679688 C 37.976562 41.679688 38.0625 41.679688 38.136719 41.714844 C 38.152344 41.804688 38.152344 41.875 38.1875 41.964844 C 38.257812 41.945312 38.277344 41.875 38.328125 41.820312 C 38.402344 41.75 38.453125 41.644531 38.558594 41.609375 C 38.542969 41.644531 38.523438 41.679688 38.488281 41.714844 C 38.347656 41.855469 38.257812 42.050781 38.152344 42.210938 C 38.082031 42.316406 38.117188 42.457031 38.117188 42.582031 C 38.136719 42.636719 38.117188 42.707031 38.171875 42.722656 C 38.207031 42.671875 38.242188 42.601562 38.277344 42.546875 C 38.417969 42.492188 38.417969 42.671875 38.523438 42.707031 C 38.613281 42.492188 38.613281 42.246094 38.683594 42.015625 C 38.703125 42.015625 38.738281 42 38.753906 41.980469 C 38.753906 42.015625 38.753906 42.070312 38.738281 42.105469 C 38.628906 42.421875 38.59375 42.757812 38.683594 43.078125 C 38.683594 43.128906 38.71875 43.148438 38.753906 43.183594 C 38.789062 43.09375 38.808594 42.988281 38.894531 42.953125 C 38.964844 42.902344 39.054688 42.917969 39.125 42.917969 C 39.125 42.847656 39.179688 42.757812 39.125 42.707031 L 39.160156 42.707031 C 39.160156 42.601562 39.160156 42.511719 39.160156 42.40625 C 39.179688 42.335938 39.230469 42.265625 39.265625 42.210938 C 39.265625 42.226562 39.265625 42.265625 39.25 42.28125 C 39.144531 42.601562 39.179688 42.953125 39.265625 43.273438 C 39.304688 43.308594 39.355469 43.324219 39.390625 43.359375 C 39.425781 43.253906 39.445312 43.167969 39.460938 43.058594 C 39.621094 43.023438 39.796875 43.007812 39.976562 42.972656 C 40.046875 42.972656 40.082031 42.917969 40.117188 42.867188 C 40.277344 42.652344 40.3125 42.386719 40.417969 42.15625 C 40.46875 42.035156 40.558594 41.890625 40.683594 41.839844 C 40.808594 41.804688 40.878906 41.910156 40.949219 41.980469 C 41.019531 41.804688 41.019531 41.609375 41.054688 41.414062 C 41.089844 41.078125 41.300781 40.8125 41.480469 40.53125 C 41.65625 40.265625 41.796875 39.964844 41.832031 39.644531 C 41.851562 39.398438 41.851562 39.148438 41.761719 38.917969 C 41.671875 39.042969 41.601562 39.183594 41.515625 39.308594 C 41.230469 39.328125 41.035156 39.042969 40.984375 38.796875 C 40.914062 38.28125 40.964844 37.734375 41.285156 37.308594 C 41.355469 37.222656 41.425781 37.132812 41.550781 37.148438 C 41.746094 37.679688 42.273438 38.070312 42.824219 38.125 C 43.140625 38.160156 43.496094 38.015625 43.691406 37.75 C 43.796875 37.59375 43.886719 37.414062 43.886719 37.222656 C 43.9375 37.027344 43.867188 36.8125 43.78125 36.636719 C 43.65625 36.390625 43.496094 36.160156 43.355469 35.910156 C 43.441406 35.488281 43.636719 35.117188 43.867188 34.742188 C 43.53125 34.867188 43.285156 35.132812 43.105469 35.433594 C 43.125 35.238281 43.195312 35.0625 43.265625 34.902344 C 43.355469 34.65625 43.496094 34.441406 43.621094 34.214844 C 43.300781 34.300781 43.089844 34.566406 42.878906 34.816406 C 42.984375 34.390625 43.160156 33.964844 43.40625 33.59375 C 43.371094 33.59375 43.320312 33.613281 43.285156 33.628906 C 42.964844 33.789062 42.71875 34.070312 42.558594 34.390625 C 42.328125 33.789062 42.417969 33.117188 42.488281 32.496094 C 42.59375 31.613281 42.753906 30.746094 42.984375 29.894531 C 43.089844 29.523438 43.285156 29.152344 43.621094 28.921875 C 43.089844 28.835938 42.613281 29.363281 42.664062 29.878906 C 42.664062 29.878906 42.648438 29.878906 42.648438 29.878906 C 42.648438 29.699219 42.59375 29.523438 42.523438 29.347656 C 42.257812 28.90625 41.796875 28.535156 41.300781 28.445312 Z M 37.304688 30.039062 C 37.25 30.195312 37.234375 30.390625 37.355469 30.53125 C 37.460938 30.65625 37.65625 30.640625 37.796875 30.585938 C 38.046875 30.496094 38.207031 30.285156 38.417969 30.144531 C 38.523438 30.074219 38.648438 30.039062 38.773438 30.019531 C 38.648438 29.964844 38.507812 29.949219 38.382812 30 C 38.171875 30.089844 37.957031 30.179688 37.746094 30.214844 C 37.65625 30.230469 37.535156 30.230469 37.480469 30.144531 C 37.425781 30 37.480469 29.859375 37.535156 29.738281 C 37.410156 29.808594 37.339844 29.929688 37.304688 30.039062 Z M 35.570312 30.300781 C 35.585938 30.480469 35.445312 30.621094 35.445312 30.78125 C 35.464844 30.921875 35.480469 31.0625 35.480469 31.207031 C 35.339844 31.082031 35.410156 30.851562 35.269531 30.710938 C 35.128906 30.566406 34.933594 30.445312 34.71875 30.390625 C 34.753906 30.585938 34.683594 30.796875 34.808594 30.976562 C 34.878906 31.082031 34.933594 31.207031 35.003906 31.292969 C 35.003906 31.347656 35.003906 31.398438 35.003906 31.433594 C 34.984375 31.433594 34.949219 31.433594 34.933594 31.433594 C 34.84375 31.328125 34.738281 31.207031 34.648438 31.097656 C 34.472656 31.011719 34.261719 31.097656 34.101562 31.152344 C 34.1875 31.242188 34.277344 31.347656 34.347656 31.453125 C 34.527344 31.734375 34.71875 32.035156 34.703125 32.390625 C 34.703125 32.621094 34.5625 32.816406 34.402344 32.9375 C 34.488281 33.0625 34.648438 33.0625 34.773438 33.0625 C 34.84375 33.0625 34.914062 33.082031 34.96875 33.027344 C 35.054688 32.921875 35.109375 32.796875 35.199219 32.710938 C 35.214844 32.710938 35.234375 32.710938 35.25 32.710938 C 35.5 33.011719 35.730469 33.328125 35.976562 33.613281 C 36.1875 33.433594 36.332031 33.167969 36.488281 32.9375 C 36.523438 32.886719 36.558594 32.851562 36.578125 32.78125 C 36.472656 32.335938 35.957031 32.144531 35.851562 31.683594 C 35.78125 31.3125 35.957031 30.921875 35.851562 30.550781 C 35.78125 30.480469 35.691406 30.355469 35.570312 30.300781 Z M 38.171875 36.265625 C 37.941406 36.355469 37.796875 36.566406 37.640625 36.742188 C 37.460938 36.957031 37.214844 37.132812 36.933594 37.113281 C 36.949219 37.273438 37.003906 37.433594 37.109375 37.558594 C 37.179688 37.644531 37.304688 37.679688 37.410156 37.714844 C 37.425781 37.769531 37.425781 37.839844 37.425781 37.910156 C 37.445312 38.351562 37.621094 38.796875 37.941406 39.132812 C 37.957031 39.167969 38.046875 39.21875 37.992188 39.273438 C 37.78125 39.308594 37.585938 39.292969 37.375 39.292969 C 37.214844 39.292969 37.039062 39.292969 36.894531 39.21875 C 36.632812 39.078125 36.507812 38.796875 36.292969 38.617188 C 36.136719 38.496094 35.941406 38.425781 35.730469 38.460938 C 35.765625 38.511719 35.800781 38.566406 35.835938 38.636719 C 35.851562 38.726562 35.800781 38.8125 35.78125 38.882812 C 35.90625 38.917969 36.03125 38.953125 36.152344 38.992188 C 36.152344 39.027344 36.152344 39.0625 36.152344 39.097656 C 35.957031 39.0625 35.746094 39.027344 35.570312 39.132812 C 35.445312 39.183594 35.375 39.308594 35.339844 39.433594 C 35.410156 39.433594 35.480469 39.433594 35.550781 39.449219 C 35.605469 39.554688 35.65625 39.664062 35.675781 39.785156 C 35.800781 39.644531 35.921875 39.503906 36.066406 39.378906 C 36.066406 39.539062 35.976562 39.679688 35.886719 39.804688 C 35.765625 39.964844 35.640625 40.160156 35.65625 40.386719 C 35.746094 40.371094 35.816406 40.300781 35.886719 40.265625 C 35.941406 40.335938 36.011719 40.40625 36.082031 40.476562 C 36.1875 40.335938 36.1875 40.175781 36.242188 40.015625 C 36.257812 40.015625 36.292969 40.015625 36.3125 40.015625 C 36.292969 40.195312 36.222656 40.351562 36.207031 40.53125 C 36.171875 40.707031 36.171875 40.917969 36.332031 41.042969 C 36.367188 40.953125 36.382812 40.882812 36.402344 40.796875 C 36.472656 40.777344 36.558594 40.796875 36.632812 40.8125 C 36.808594 40.867188 36.96875 40.722656 37.054688 40.582031 C 37.144531 40.460938 37.269531 40.351562 37.445312 40.335938 C 37.496094 40.386719 37.550781 40.441406 37.570312 40.511719 C 37.585938 40.582031 37.585938 40.652344 37.605469 40.722656 C 37.78125 40.652344 37.871094 40.496094 38.011719 40.386719 C 38.257812 40.246094 38.558594 40.246094 38.84375 40.246094 C 39.109375 40.230469 39.320312 40.050781 39.460938 39.859375 C 39.179688 39.59375 38.949219 39.273438 38.753906 38.9375 C 38.628906 38.691406 38.523438 38.40625 38.558594 38.105469 C 38.59375 37.980469 38.628906 37.839844 38.773438 37.789062 C 38.929688 37.699219 39.089844 37.804688 39.214844 37.894531 C 39.230469 37.714844 39.25 37.539062 39.25 37.378906 C 39.144531 37.203125 38.929688 37.113281 38.84375 36.921875 C 38.789062 36.8125 38.84375 36.691406 38.808594 36.585938 C 38.789062 36.691406 38.808594 36.777344 38.789062 36.886719 C 38.773438 36.777344 38.789062 36.671875 38.808594 36.546875 C 38.648438 36.371094 38.417969 36.210938 38.171875 36.265625 Z M 38.171875 36.265625 " fill-opacity="1" fill-rule="nonzero"/><path fill="#d5b527" d="M 26.066406 27.417969 C 26.421875 27.417969 26.757812 27.417969 27.113281 27.417969 C 27.113281 27.71875 27.113281 28.039062 27.113281 28.339844 C 27.378906 28.339844 27.640625 28.339844 27.90625 28.339844 C 27.925781 28.304688 27.925781 28.269531 27.925781 28.234375 C 27.925781 27.984375 27.925781 27.71875 27.925781 27.472656 C 28.261719 27.472656 28.582031 27.472656 28.917969 27.472656 C 28.917969 28.214844 28.917969 28.957031 28.917969 29.699219 C 27.339844 29.699219 25.765625 29.699219 24.175781 29.699219 C 24.175781 28.957031 24.175781 28.214844 24.175781 27.472656 C 24.511719 27.472656 24.828125 27.472656 25.164062 27.472656 C 25.164062 27.667969 25.164062 27.84375 25.164062 28.039062 C 25.164062 28.144531 25.148438 28.25 25.183594 28.339844 C 25.464844 28.320312 25.730469 28.339844 26.015625 28.339844 C 26.085938 28.039062 26.03125 27.738281 26.066406 27.417969 Z M 38.703125 27.292969 C 38.824219 27.117188 39.054688 27.03125 39.265625 27.03125 C 39.214844 27.207031 39.160156 27.382812 39.195312 27.578125 C 39.195312 27.71875 39.265625 27.824219 39.265625 27.96875 C 39.074219 27.949219 38.878906 27.878906 38.753906 27.738281 C 38.628906 27.613281 38.613281 27.417969 38.703125 27.292969 Z M 39.550781 27.03125 C 39.746094 27.011719 39.957031 27.101562 40.097656 27.257812 C 40.1875 27.367188 40.207031 27.507812 40.167969 27.632812 C 40.046875 27.859375 39.78125 27.949219 39.53125 27.96875 C 39.691406 27.683594 39.691406 27.3125 39.550781 27.03125 Z M 38.011719 27.453125 C 38.0625 27.292969 38.242188 27.222656 38.382812 27.207031 C 38.347656 27.3125 38.277344 27.402344 38.292969 27.523438 C 38.3125 27.667969 38.417969 27.789062 38.542969 27.859375 C 38.542969 27.878906 38.542969 27.933594 38.542969 27.949219 C 38.382812 27.933594 38.207031 27.914062 38.082031 27.789062 C 37.992188 27.71875 37.992188 27.578125 38.011719 27.453125 Z M 40.453125 27.222656 C 40.59375 27.242188 40.769531 27.3125 40.824219 27.472656 C 40.859375 27.59375 40.84375 27.738281 40.734375 27.824219 C 40.578125 27.96875 40.363281 27.96875 40.167969 27.949219 C 40.3125 27.859375 40.46875 27.789062 40.523438 27.632812 C 40.578125 27.488281 40.507812 27.347656 40.453125 27.222656 Z M 38.984375 28.796875 C 39.195312 28.796875 39.410156 28.78125 39.621094 28.816406 C 39.65625 28.835938 39.710938 28.816406 39.710938 28.871094 C 39.53125 28.957031 39.355469 29.011719 39.179688 29.082031 C 39.125 29.097656 39.054688 29.117188 39.003906 29.136719 C 38.984375 29.027344 38.984375 28.921875 38.984375 28.796875 Z M 24.972656 30.089844 C 26.03125 30.089844 27.09375 30.089844 28.136719 30.089844 C 28.191406 30.355469 28.207031 30.621094 28.242188 30.886719 C 28.542969 33.363281 28.863281 35.839844 29.164062 38.300781 C 29.183594 38.511719 29.234375 38.707031 29.234375 38.917969 C 27.449219 38.917969 25.644531 38.917969 23.855469 38.917969 C 23.890625 38.511719 23.960938 38.105469 23.996094 37.699219 C 24.316406 35.1875 24.617188 32.65625 24.933594 30.144531 C 24.953125 30.125 24.972656 30.109375 24.972656 30.089844 Z M 25.800781 32.65625 C 25.785156 32.832031 25.765625 33.011719 25.820312 33.167969 C 26.316406 33.167969 26.8125 33.167969 27.289062 33.167969 C 27.324219 32.992188 27.304688 32.816406 27.304688 32.636719 C 27.289062 32.636719 27.269531 32.621094 27.269531 32.601562 C 26.792969 32.601562 26.316406 32.601562 25.820312 32.601562 C 25.820312 32.636719 25.800781 32.65625 25.800781 32.65625 Z M 25.820312 34.390625 C 25.820312 34.566406 25.820312 34.742188 25.820312 34.921875 C 26.316406 34.921875 26.8125 34.921875 27.304688 34.921875 C 27.324219 34.742188 27.304688 34.566406 27.324219 34.390625 C 27.289062 34.371094 27.234375 34.355469 27.183594 34.355469 C 26.777344 34.355469 26.367188 34.355469 25.960938 34.355469 C 25.910156 34.355469 25.855469 34.371094 25.820312 34.390625 Z M 25.785156 36.125 C 25.800781 36.300781 25.765625 36.476562 25.820312 36.65625 C 26.316406 36.65625 26.792969 36.65625 27.289062 36.65625 C 27.339844 36.476562 27.304688 36.300781 27.324219 36.125 C 27.289062 36.105469 27.234375 36.089844 27.183594 36.089844 C 26.777344 36.089844 26.367188 36.089844 25.960938 36.089844 C 25.910156 36.105469 25.835938 36.125 25.785156 36.125 Z M 23.253906 39.328125 C 25.449219 39.328125 27.660156 39.328125 29.855469 39.328125 C 29.855469 40.070312 29.855469 40.8125 29.855469 41.554688 C 29.269531 41.554688 28.6875 41.554688 28.101562 41.554688 C 28.085938 41.363281 28.121094 41.167969 28.066406 40.972656 C 27.058594 40.972656 26.050781 40.972656 25.042969 40.972656 C 25.042969 41.167969 25.042969 41.363281 25.042969 41.554688 C 24.441406 41.554688 23.855469 41.554688 23.253906 41.554688 C 23.253906 40.832031 23.253906 40.085938 23.253906 39.328125 Z M 23.253906 39.328125 " fill-opacity="1" fill-rule="nonzero"/><path fill="#b11116" d="M 56.183594 17.457031 C 59.703125 17.457031 63.226562 17.457031 66.726562 17.457031 C 68.832031 17.4375 70.9375 17.527344 73.027344 17.882812 C 74.585938 18.164062 76.140625 18.589844 77.484375 19.421875 C 78.140625 19.808594 78.726562 20.304688 79.203125 20.90625 C 79.628906 21.4375 79.964844 22.039062 80.175781 22.675781 C 80.457031 23.527344 80.566406 24.410156 80.566406 25.296875 C 80.546875 26.039062 80.441406 26.78125 80.191406 27.472656 C 79.929688 28.234375 79.46875 28.941406 78.902344 29.507812 C 77.894531 30.515625 76.582031 31.132812 75.238281 31.558594 C 74.921875 31.664062 74.585938 31.734375 74.265625 31.84375 C 75.769531 32.125 77.292969 32.585938 78.582031 33.417969 C 79.203125 33.824219 79.769531 34.335938 80.210938 34.9375 C 80.617188 35.488281 80.917969 36.105469 81.113281 36.742188 C 81.359375 37.558594 81.449219 38.425781 81.433594 39.292969 C 81.414062 40.230469 81.273438 41.183594 80.953125 42.085938 C 80.53125 43.289062 79.714844 44.332031 78.6875 45.078125 C 77.503906 45.945312 76.070312 46.457031 74.636719 46.757812 C 73.523438 46.988281 72.390625 47.113281 71.257812 47.164062 C 70.425781 47.21875 69.578125 47.199219 68.746094 47.199219 C 66.480469 47.199219 64.234375 47.199219 61.96875 47.199219 C 60.023438 47.199219 58.09375 47.21875 56.148438 47.199219 C 56.183594 37.292969 56.183594 27.367188 56.183594 17.457031 Z M 64.179688 22.855469 C 64.179688 25.066406 64.179688 27.277344 64.179688 29.507812 C 64.78125 29.507812 65.402344 29.507812 66.003906 29.507812 C 67.066406 29.488281 68.125 29.558594 69.171875 29.398438 C 69.949219 29.277344 70.746094 29.082031 71.382812 28.605469 C 71.929688 28.214844 72.300781 27.578125 72.425781 26.921875 C 72.566406 26.164062 72.515625 25.347656 72.144531 24.660156 C 71.804688 24.058594 71.222656 23.632812 70.601562 23.367188 C 69.699219 22.996094 68.726562 22.890625 67.773438 22.855469 C 66.550781 22.855469 65.367188 22.855469 64.179688 22.855469 Z M 64.179688 34.65625 C 64.179688 37.042969 64.179688 39.414062 64.179688 41.804688 C 65.171875 41.804688 66.144531 41.804688 67.136719 41.804688 C 68.230469 41.804688 69.328125 41.769531 70.375 41.484375 C 71.082031 41.308594 71.804688 40.988281 72.300781 40.421875 C 72.796875 39.855469 72.992188 39.113281 73.027344 38.371094 C 73.0625 37.664062 72.9375 36.921875 72.515625 36.320312 C 72.105469 35.71875 71.46875 35.34375 70.796875 35.117188 C 69.71875 34.742188 68.585938 34.671875 67.453125 34.65625 C 66.375 34.65625 65.277344 34.65625 64.179688 34.65625 Z M 85.359375 17.457031 C 89.675781 17.457031 93.976562 17.457031 98.292969 17.457031 C 99.691406 17.4375 101.089844 17.492188 102.46875 17.703125 C 103.636719 17.882812 104.769531 18.183594 105.847656 18.660156 C 106.824219 19.085938 107.726562 19.667969 108.484375 20.410156 C 109.195312 21.101562 109.761719 21.953125 110.148438 22.871094 C 110.503906 23.71875 110.714844 24.605469 110.820312 25.507812 C 110.945312 26.65625 110.925781 27.808594 110.75 28.941406 C 110.609375 29.789062 110.378906 30.601562 110.007812 31.382812 C 109.246094 33.011719 107.917969 34.335938 106.363281 35.1875 C 105.511719 35.644531 104.574219 35.984375 103.636719 36.210938 C 102.363281 36.53125 101.054688 36.636719 99.746094 36.65625 C 97.726562 36.65625 95.730469 36.65625 93.710938 36.65625 C 93.710938 40.050781 93.710938 43.46875 93.710938 46.863281 C 93.710938 46.988281 93.695312 47.09375 93.695312 47.21875 C 90.933594 47.21875 88.171875 47.21875 85.394531 47.21875 C 85.378906 45.5 85.394531 43.804688 85.394531 42.085938 C 85.359375 33.875 85.34375 25.667969 85.359375 17.457031 Z M 93.660156 23.011719 C 93.660156 25.613281 93.660156 28.195312 93.660156 30.796875 C 94.808594 30.796875 95.957031 30.796875 97.109375 30.796875 C 97.835938 30.816406 98.578125 30.78125 99.285156 30.640625 C 99.886719 30.515625 100.46875 30.339844 100.984375 30 C 101.371094 29.753906 101.710938 29.417969 101.9375 29.027344 C 102.257812 28.515625 102.398438 27.933594 102.453125 27.332031 C 102.503906 26.621094 102.46875 25.898438 102.203125 25.222656 C 101.972656 24.621094 101.550781 24.109375 101 23.773438 C 100.46875 23.457031 99.867188 23.277344 99.265625 23.171875 C 98.488281 23.03125 97.691406 23.011719 96.894531 23.03125 C 95.816406 23.011719 94.738281 23.011719 93.660156 23.011719 Z M 114.449219 17.457031 C 117.207031 17.4375 119.96875 17.457031 122.710938 17.457031 C 122.710938 26.621094 122.710938 35.769531 122.710938 44.9375 C 122.710938 45.695312 122.710938 46.457031 122.710938 47.21875 C 119.953125 47.234375 117.191406 47.21875 114.449219 47.21875 C 114.449219 37.292969 114.464844 27.367188 114.449219 17.457031 Z M 114.449219 17.457031 " fill-opacity="1" fill-rule="nonzero"/></svg>