<svg xmlns="http://www.w3.org/2000/svg" xmlns:xlink="http://www.w3.org/1999/xlink" width="280" zoomAndPan="magnify" viewBox="0 0 210 67.92" height="80" preserveAspectRatio="xMidYMid meet" version="1.0"><defs><clipPath id="2e56d4af72"><path d="M 11 12.632812 L 47 12.632812 L 47 47.089844 L 11 47.089844 Z M 11 12.632812 " clip-rule="nonzero"/></clipPath></defs><path fill="#ed1a37" d="M 33.746094 28.109375 C 34.746094 28.109375 35.554688 27.304688 35.554688 26.3125 L 35.554688 25.03125 C 35.554688 24.039062 34.746094 23.230469 33.746094 23.230469 L 23.007812 23.230469 C 22.589844 23.230469 22.253906 23.566406 22.253906 23.984375 L 22.253906 35.742188 C 22.253906 36.15625 22.589844 36.492188 23.007812 36.492188 L 33.746094 36.492188 C 34.746094 36.492188 35.554688 35.6875 35.554688 34.691406 L 35.554688 33.414062 C 35.554688 32.417969 34.746094 31.613281 33.746094 31.613281 L 27.160156 31.613281 L 27.160156 28.109375 Z M 33.746094 28.109375 " fill-opacity="1" fill-rule="nonzero"/><g clip-path="url(#2e56d4af72)"><path fill="#ed1a37" d="M 38.351562 31.914062 C 38.625 32.105469 38.90625 32.449219 38.90625 33.550781 L 38.90625 37.09375 C 38.90625 38.59375 37.683594 39.804688 36.175781 39.804688 L 19.757812 39.804688 C 19.304688 39.804688 18.9375 39.441406 18.9375 38.992188 L 18.9375 20.730469 C 18.9375 20.28125 19.304688 19.917969 19.757812 19.917969 L 36.175781 19.917969 C 37.683594 19.917969 38.90625 21.132812 38.90625 22.628906 L 38.90625 26.175781 C 38.90625 27.039062 38.625 27.617188 38.351562 27.808594 C 38.222656 27.902344 38.289062 28.105469 38.445312 28.105469 L 44.050781 28.105469 C 45.257812 28.105469 46.234375 27.132812 46.234375 25.933594 L 46.234375 16.972656 C 46.234375 14.578125 44.277344 12.632812 41.867188 12.632812 L 15.941406 12.632812 C 13.527344 12.632812 11.574219 14.578125 11.574219 16.972656 L 11.574219 42.75 C 11.574219 45.148438 13.527344 47.089844 15.941406 47.089844 L 41.867188 47.089844 C 44.277344 47.089844 46.234375 45.148438 46.234375 42.75 L 46.234375 33.789062 C 46.234375 32.589844 45.257812 31.617188 44.050781 31.617188 L 38.445312 31.617188 C 38.285156 31.617188 38.21875 31.820312 38.351562 31.914062 " fill-opacity="1" fill-rule="nonzero"/></g><path fill="#ed1a37" d="M 166.726562 39.800781 C 166.394531 39.800781 166.125 39.53125 166.125 39.199219 L 166.125 26.183594 C 166.125 25.851562 166.394531 25.578125 166.726562 25.578125 L 170.292969 25.578125 C 170.625 25.578125 170.894531 25.851562 170.894531 26.183594 L 170.894531 26.894531 C 170.894531 27.160156 171.128906 27.210938 171.261719 27 C 171.992188 26.027344 173.539062 25.3125 175.609375 25.3125 C 179.066406 25.3125 181.085938 27.265625 181.085938 30.792969 L 181.085938 39.199219 C 181.085938 39.53125 180.816406 39.800781 180.484375 39.800781 L 176.917969 39.800781 C 176.585938 39.800781 176.316406 39.53125 176.316406 39.199219 L 176.316406 31.769531 C 176.316406 30.082031 175.375 29.109375 173.671875 29.109375 C 171.941406 29.109375 170.894531 30.082031 170.894531 31.769531 L 170.894531 39.199219 C 170.894531 39.53125 170.625 39.800781 170.292969 39.800781 Z M 166.726562 39.800781 " fill-opacity="1" fill-rule="nonzero"/><path fill="#ed1a37" d="M 183.933594 39.800781 C 183.601562 39.800781 183.332031 39.53125 183.332031 39.199219 L 183.332031 20.519531 C 183.332031 20.1875 183.601562 19.917969 183.933594 19.917969 L 187.5 19.917969 C 187.832031 19.917969 188.101562 20.1875 188.101562 20.519531 L 188.101562 29.503906 C 188.101562 29.742188 188.285156 29.820312 188.46875 29.664062 L 192.582031 25.949219 C 192.894531 25.632812 193.050781 25.578125 193.496094 25.578125 L 197.820312 25.578125 C 198.265625 25.578125 198.316406 25.976562 198.003906 26.265625 L 193.210938 30.714844 C 193.027344 30.898438 193 31.03125 193.15625 31.269531 L 198.292969 39.039062 C 198.578125 39.460938 198.421875 39.800781 197.925781 39.800781 L 193.890625 39.800781 C 193.496094 39.800781 193.234375 39.671875 193 39.328125 L 189.882812 34.585938 C 189.75 34.351562 189.566406 34.351562 189.359375 34.535156 L 188.414062 35.402344 C 188.179688 35.613281 188.101562 35.773438 188.101562 36.0625 L 188.101562 39.199219 C 188.101562 39.53125 187.832031 39.800781 187.5 39.800781 Z M 183.933594 39.800781 " fill-opacity="1" fill-rule="nonzero"/><path fill="#ed1a37" d="M 91.519531 39.800781 C 91.1875 39.800781 90.917969 39.53125 90.917969 39.199219 L 90.917969 26.183594 C 90.917969 25.851562 91.1875 25.578125 91.519531 25.578125 L 95.085938 25.578125 C 95.417969 25.578125 95.6875 25.851562 95.6875 26.183594 L 95.6875 39.199219 C 95.6875 39.53125 95.417969 39.800781 95.085938 39.800781 Z M 91.519531 39.800781 " fill-opacity="1" fill-rule="nonzero"/><path fill="#ed1a37" d="M 95.6875 20.519531 C 95.6875 20.1875 95.417969 19.917969 95.085938 19.917969 L 91.519531 19.917969 C 91.1875 19.917969 90.917969 20.1875 90.917969 20.519531 L 90.917969 23.753906 C 90.917969 24.089844 91.1875 24.359375 91.519531 24.359375 L 95.085938 24.359375 C 95.417969 24.359375 95.6875 24.089844 95.6875 23.753906 Z M 95.6875 20.519531 " fill-opacity="1" fill-rule="nonzero"/><path fill="#ed1a37" d="M 64.800781 35.609375 L 60.378906 35.609375 C 59.265625 35.609375 58.363281 34.714844 58.363281 33.609375 L 58.363281 26.195312 C 58.363281 25.089844 59.265625 24.191406 60.378906 24.191406 L 64.800781 24.191406 C 65.914062 24.191406 66.816406 25.089844 66.816406 26.195312 L 66.816406 27.539062 C 66.816406 27.875 67.085938 28.144531 67.421875 28.144531 L 70.980469 28.144531 C 71.316406 28.144531 71.585938 27.875 71.585938 27.539062 L 71.585938 26.570312 C 71.585938 22.804688 68.519531 19.757812 64.734375 19.757812 L 60.449219 19.757812 C 56.664062 19.757812 53.597656 22.804688 53.597656 26.570312 L 53.597656 33.230469 C 53.597656 36.992188 56.664062 40.042969 60.449219 40.042969 L 64.734375 40.042969 C 68.519531 40.042969 71.585938 36.992188 71.585938 33.230469 L 71.585938 32.265625 C 71.585938 31.929688 71.316406 31.65625 70.980469 31.65625 L 67.421875 31.65625 C 67.085938 31.65625 66.816406 31.929688 66.816406 32.265625 L 66.816406 33.609375 C 66.816406 34.714844 65.914062 35.609375 64.800781 35.609375 " fill-opacity="1" fill-rule="nonzero"/><path fill="#ed1a37" d="M 74.273438 39.800781 C 73.941406 39.800781 73.671875 39.53125 73.671875 39.199219 L 73.671875 20.519531 C 73.671875 20.1875 73.941406 19.917969 74.273438 19.917969 L 77.839844 19.917969 C 78.171875 19.917969 78.441406 20.1875 78.441406 20.519531 L 78.441406 26.894531 C 78.441406 27.160156 78.675781 27.210938 78.808594 27 C 79.542969 26.027344 81.085938 25.3125 83.15625 25.3125 C 86.613281 25.3125 88.632812 27.265625 88.632812 30.792969 L 88.632812 39.199219 C 88.632812 39.53125 88.363281 39.800781 88.03125 39.800781 L 84.464844 39.800781 C 84.132812 39.800781 83.863281 39.53125 83.863281 39.199219 L 83.863281 31.769531 C 83.863281 30.082031 82.921875 29.109375 81.21875 29.109375 C 79.488281 29.109375 78.441406 30.082031 78.441406 31.769531 L 78.441406 39.199219 C 78.441406 39.53125 78.171875 39.800781 77.839844 39.800781 Z M 74.273438 39.800781 " fill-opacity="1" fill-rule="nonzero"/><path fill="#ed1a37" d="M 98.660156 39.800781 C 98.328125 39.800781 98.058594 39.53125 98.058594 39.199219 L 98.058594 26.183594 C 98.058594 25.851562 98.328125 25.578125 98.660156 25.578125 L 102.226562 25.578125 C 102.558594 25.578125 102.824219 25.851562 102.824219 26.183594 L 102.824219 26.894531 C 102.824219 27.160156 103.0625 27.210938 103.191406 27 C 103.925781 26.027344 105.472656 25.3125 107.542969 25.3125 C 111 25.3125 113.015625 27.265625 113.015625 30.792969 L 113.015625 39.199219 C 113.015625 39.53125 112.746094 39.800781 112.417969 39.800781 L 108.847656 39.800781 C 108.519531 39.800781 108.25 39.53125 108.25 39.199219 L 108.25 31.769531 C 108.25 30.082031 107.304688 29.109375 105.601562 29.109375 C 103.875 29.109375 102.824219 30.082031 102.824219 31.769531 L 102.824219 39.199219 C 102.824219 39.53125 102.558594 39.800781 102.226562 39.800781 Z M 98.660156 39.800781 " fill-opacity="1" fill-rule="nonzero"/><path fill="#ed1a37" d="M 120.289062 40.070312 C 116.828125 40.070312 114.820312 38.117188 114.820312 34.585938 L 114.820312 30.796875 C 114.820312 27.265625 116.828125 25.3125 120.289062 25.3125 C 122.070312 25.3125 123.667969 25.871094 124.609375 26.710938 C 124.765625 26.84375 125.003906 26.792969 125.003906 26.582031 L 125.003906 26.1875 C 125.003906 25.851562 125.273438 25.582031 125.605469 25.582031 L 129.171875 25.582031 C 129.5 25.582031 129.769531 25.851562 129.769531 26.1875 L 129.769531 39.199219 C 129.769531 39.53125 129.5 39.800781 129.171875 39.800781 L 125.707031 39.800781 C 125.378906 39.800781 125.109375 39.53125 125.109375 39.199219 L 125.109375 38.800781 C 125.109375 38.511719 124.820312 38.433594 124.636719 38.617188 C 123.796875 39.484375 122.121094 40.070312 120.289062 40.070312 M 122.367188 28.953125 C 120.636719 28.953125 119.589844 29.925781 119.589844 31.609375 L 119.589844 33.769531 C 119.589844 35.457031 120.53125 36.429688 122.234375 36.429688 C 123.964844 36.429688 125.011719 35.457031 125.011719 33.769531 L 125.011719 31.609375 C 125.011719 29.925781 124.066406 28.953125 122.367188 28.953125 " fill-opacity="1" fill-rule="nonzero"/><path fill="#ed1a37" d="M 154.3125 40.070312 C 150.855469 40.070312 148.84375 38.117188 148.84375 34.585938 L 148.84375 30.796875 C 148.84375 27.265625 150.855469 25.3125 154.3125 25.3125 C 156.09375 25.3125 157.691406 25.871094 158.636719 26.710938 C 158.792969 26.84375 159.027344 26.792969 159.027344 26.582031 L 159.027344 26.1875 C 159.027344 25.851562 159.296875 25.582031 159.628906 25.582031 L 163.195312 25.582031 C 163.527344 25.582031 163.796875 25.851562 163.796875 26.1875 L 163.796875 39.199219 C 163.796875 39.53125 163.527344 39.800781 163.195312 39.800781 L 159.734375 39.800781 C 159.402344 39.800781 159.132812 39.53125 159.132812 39.199219 L 159.132812 38.800781 C 159.132812 38.511719 158.84375 38.433594 158.660156 38.617188 C 157.824219 39.484375 156.144531 40.070312 154.3125 40.070312 M 156.390625 28.953125 C 154.660156 28.953125 153.613281 29.925781 153.613281 31.609375 L 153.613281 33.769531 C 153.613281 35.457031 154.554688 36.429688 156.257812 36.429688 C 157.988281 36.429688 159.035156 35.457031 159.035156 33.769531 L 159.035156 31.609375 C 159.035156 29.925781 158.09375 28.953125 156.390625 28.953125 " fill-opacity="1" fill-rule="nonzero"/><path fill="#ed1a37" d="M 137.277344 38.621094 C 137.09375 38.4375 136.804688 38.515625 136.804688 38.804688 L 136.804688 39.203125 C 136.804688 39.535156 136.535156 39.804688 136.203125 39.804688 L 132.742188 39.804688 C 132.410156 39.804688 132.140625 39.535156 132.140625 39.203125 L 132.140625 20.527344 C 132.140625 20.191406 132.410156 19.921875 132.742188 19.921875 L 136.308594 19.921875 C 136.640625 19.921875 136.910156 20.191406 136.910156 20.527344 L 136.910156 26.585938 C 136.910156 26.796875 137.144531 26.847656 137.300781 26.71875 C 138.246094 25.875 139.84375 25.316406 141.625 25.316406 C 145.082031 25.316406 147.09375 27.269531 147.09375 30.800781 L 147.09375 34.589844 C 147.09375 38.121094 145.082031 40.074219 141.625 40.074219 C 139.789062 40.074219 138.113281 39.492188 137.277344 38.621094 M 139.679688 28.953125 C 137.949219 28.953125 136.902344 29.925781 136.902344 31.609375 L 136.902344 33.769531 C 136.902344 35.457031 137.84375 36.429688 139.546875 36.429688 C 141.277344 36.429688 142.324219 35.457031 142.324219 33.769531 L 142.324219 31.609375 C 142.324219 29.925781 141.382812 28.953125 139.679688 28.953125 " fill-opacity="1" fill-rule="nonzero"/></svg>