<svg xmlns="http://www.w3.org/2000/svg" xmlns:xlink="http://www.w3.org/1999/xlink" width="280" zoomAndPan="magnify" viewBox="0 0 210 67.92" height="80" preserveAspectRatio="xMidYMid meet" version="1.0"><defs><filter x="0%" y="0%" width="100%" height="100%" id="cf6588644f"><feColorMatrix values="0 0 0 0 1 0 0 0 0 1 0 0 0 0 1 0 0 0 1 0" color-interpolation-filters="sRGB"/></filter><clipPath id="72061032fc"><path d="M 12.175781 9.164062 L 47 9.164062 L 47 51 L 12.175781 51 Z M 12.175781 9.164062 " clip-rule="nonzero"/></clipPath><mask id="2e0c6fbb0c"><g filter="url(#cf6588644f)"><rect x="-21" width="252" fill="#000000" y="-6.792" height="81.504" fill-opacity="0.4"/></g></mask><clipPath id="47e667d721"><path d="M 0.527344 1 L 4 1 L 4 1.382812 L 0.527344 1.382812 Z M 0.527344 1 " clip-rule="nonzero"/></clipPath><clipPath id="0cc559c067"><rect x="0" width="5" y="0" height="2"/></clipPath><clipPath id="ed291377c3"><path d="M 170 15 L 188.96875 15 L 188.96875 43 L 170 43 Z M 170 15 " clip-rule="nonzero"/></clipPath><clipPath id="894bf4038f"><path d="M 170 15 L 188.96875 15 L 188.96875 44 L 170 44 Z M 170 15 " clip-rule="nonzero"/></clipPath><mask id="08ac1c423d"><g filter="url(#cf6588644f)"><rect x="-21" width="252" fill="#000000" y="-6.792" height="81.504" fill-opacity="0.52"/></g></mask><clipPath id="e26bf7882f"><path d="M 0.0820312 0.539062 L 0.324219 0.539062 L 0.324219 26.429688 L 0.0820312 26.429688 Z M 0.0820312 0.539062 " clip-rule="nonzero"/></clipPath><clipPath id="71d1bb1cf2"><rect x="0" width="1" y="0" height="27"/></clipPath><clipPath id="b6ba4f3b5c"><path d="M 188 29 L 188.96875 29 L 188.96875 43 L 188 43 Z M 188 29 " clip-rule="nonzero"/></clipPath><mask id="e7b410b5da"><g filter="url(#cf6588644f)"><rect x="-21" width="252" fill="#000000" y="-6.792" height="81.504" fill-opacity="0.75"/></g></mask><clipPath id="32d13d6afb"><path d="M 0.300781 1 L 0.78125 1 L 0.78125 13.429688 L 0.300781 13.429688 Z M 0.300781 1 " clip-rule="nonzero"/></clipPath><clipPath id="1fb016310c"><rect x="0" width="1" y="0" height="14"/></clipPath><mask id="3f574d8795"><g filter="url(#cf6588644f)"><rect x="-21" width="252" fill="#000000" y="-6.792" height="81.504" fill-opacity="0.48"/></g></mask><clipPath id="589e794c2c"><path d="M 0.746094 0.164062 L 1.226562 0.164062 L 1.226562 11.429688 L 0.746094 11.429688 Z M 0.746094 0.164062 " clip-rule="nonzero"/></clipPath><clipPath id="e10ef66402"><rect x="0" width="2" y="0" height="12"/></clipPath><mask id="ce103b266a"><g filter="url(#cf6588644f)"><rect x="-21" width="252" fill="#000000" y="-6.792" height="81.504" fill-opacity="0.27"/></g></mask><clipPath id="afdc6d4683"><path d="M 1 0.121094 L 8.613281 0.121094 L 8.613281 0.839844 L 1 0.839844 Z M 1 0.121094 " clip-rule="nonzero"/></clipPath><clipPath id="f7236825d5"><rect x="0" width="9" y="0" height="1"/></clipPath><mask id="6d68e2f563"><g filter="url(#cf6588644f)"><rect x="-21" width="252" fill="#000000" y="-6.792" height="81.504" fill-opacity="0.46"/></g></mask><clipPath id="5bcd486698"><path d="M 0.527344 0.0273438 L 3.882812 0.0273438 L 3.882812 0.265625 L 0.527344 0.265625 Z M 0.527344 0.0273438 " clip-rule="nonzero"/></clipPath><clipPath id="37ca854697"><rect x="0" width="4" y="0" height="1"/></clipPath></defs><g clip-path="url(#72061032fc)"><path stroke-linecap="butt" transform="matrix(0.0986487, 0, 0, 0.099409, 12.183512, 9.162325)" fill-opacity="1" fill="#007cff" fill-rule="nonzero" stroke-linejoin="miter" d="M 148.808518 12.591797 C 173.913381 4.418491 200.602147 0.999849 227.01373 2.689522 C 265.700561 4.811438 303.516245 18.486009 334.996317 41.001896 C 338.401709 43.516759 342.084283 45.795854 345.014504 49.018023 C 350.003798 54.715761 351.983677 62.810478 350.201786 70.197889 C 348.380298 78.214017 342.084283 85.012007 334.283561 87.408986 C 326.680827 89.805965 318.008958 88.194881 311.910931 83.086565 C 288.389971 65.010983 259.800522 53.615508 230.300328 50.786287 C 219.49019 49.607444 208.482064 49.607444 197.711524 50.786287 C 166.58783 53.890571 136.493672 66.386299 112.299554 86.308733 C 85.016825 108.588852 65.099244 139.985351 57.298522 174.407545 C 50.091763 205.60757 52.309227 239.008101 63.911317 268.911399 C 76.10737 300.700846 98.796781 328.207165 127.38623 346.597104 C 148.808518 360.310969 173.517405 368.798634 198.701463 371.195613 C 208.482064 372.41375 218.500251 372.41375 228.201657 371.313497 C 258.69179 368.680749 288.191983 357.010211 312.386102 338.305914 C 318.484128 333.511955 327.195595 332.097345 334.600342 334.612208 C 344.816516 338.10944 352.10247 348.994084 350.79575 359.800138 C 350.201786 366.087296 346.915187 372.099392 341.886295 375.910982 C 322.681471 390.882279 300.902805 402.395638 277.698626 409.78305 C 247.802457 419.410261 215.609628 421.88583 184.485934 417.602703 C 149.996446 412.808745 116.813678 399.01629 89.01618 377.993603 C 62.010633 357.796106 39.994382 330.918502 25.501669 300.386488 C 11.286139 270.483189 4.396161 237.082658 5.584089 203.996486 C 6.692821 163.287133 20.195594 123.088612 43.993737 90.002439 C 69.613368 54.008455 106.716296 26.305662 148.808518 12.591797 Z M 148.808518 12.591797 " stroke="#007cff" stroke-width="0.094" stroke-opacity="1" stroke-miterlimit="4"/></g><g mask="url(#2e0c6fbb0c)"><g transform="matrix(1, 0, 0, 1, 31, 13)"><g clip-path="url(#0cc559c067)"><g clip-path="url(#47e667d721)"><path stroke-linecap="butt" transform="matrix(0.0986487, 0, 0, 0.099409, -18.816489, -3.837675)" fill-opacity="1" fill="#001934" fill-rule="nonzero" stroke-linejoin="miter" d="M 197.711531 50.786287 C 208.482072 49.607444 219.490198 49.607444 230.300336 50.786287 C 219.411002 50.511223 208.600864 50.511223 197.711531 50.786287 Z M 197.711531 50.786287 " stroke="#001934" stroke-width="0.094" stroke-opacity="1" stroke-miterlimit="4"/></g></g></g></g><path stroke-linecap="butt" transform="matrix(0.0986487, 0, 0, 0.099409, 12.183512, 9.162325)" fill-opacity="1" fill="#6fbaf7" fill-rule="nonzero" stroke-linejoin="miter" d="M 441.395002 69.411994 C 451.809164 66.30771 464.005218 71.219552 468.994512 81.003943 C 492.990643 127.88257 503.484 181.480599 499.207462 234.017669 C 496.198046 271.386968 485.902677 308.284731 468.598536 341.606672 C 462.302522 353.512979 445.394357 357.285274 434.505024 349.504915 C 424.407642 342.981988 421.081446 328.482228 427.100277 317.990532 C 460.481033 252.407608 460.797814 171.106787 427.813034 105.288094 C 424.803618 99.904714 423.219715 93.499671 424.684825 87.408986 C 426.387521 78.882027 433.119109 71.691089 441.395002 69.411994 Z M 441.395002 69.411994 " stroke="#6fbaf7" stroke-width="0.094" stroke-opacity="1" stroke-miterlimit="4"/><g clip-path="url(#ed291377c3)"><path fill="#002cb8" d="M 170.199219 16.699219 C 170.308594 16.261719 170.742188 15.933594 171.207031 15.953125 C 172.09375 15.953125 172.980469 15.941406 173.867188 15.953125 C 174.382812 15.933594 174.855469 16.390625 174.855469 16.90625 C 174.875 19.53125 174.84375 22.15625 174.863281 24.769531 C 176.15625 23.597656 177.835938 22.921875 179.550781 22.75 C 181.496094 22.550781 183.546875 22.890625 185.195312 23.996094 C 187.253906 25.347656 188.390625 27.800781 188.578125 30.21875 C 188.636719 32.542969 188.597656 34.871094 188.605469 37.195312 C 188.597656 38.886719 188.625 40.585938 188.585938 42.277344 C 188.457031 42.703125 188.023438 42.980469 187.589844 42.960938 C 186.734375 42.960938 185.863281 42.972656 185.007812 42.960938 C 184.542969 42.980469 184.109375 42.632812 184.011719 42.1875 C 184.019531 39.164062 184.011719 36.140625 184.011719 33.121094 C 184.011719 32.511719 184.03125 31.90625 183.96875 31.300781 C 183.851562 29.820312 183.300781 28.25 182.054688 27.34375 C 181.050781 26.589844 179.707031 26.417969 178.496094 26.628906 C 177.546875 26.796875 176.660156 27.304688 176.050781 28.058594 C 175.199219 29.113281 174.875 30.496094 174.863281 31.828125 C 174.855469 35.207031 174.863281 38.597656 174.855469 41.976562 C 174.863281 42.472656 174.449219 42.921875 173.957031 42.953125 C 173.265625 42.980469 172.585938 42.953125 171.894531 42.960938 C 171.570312 42.960938 171.253906 42.980469 170.9375 42.929688 C 170.574219 42.851562 170.277344 42.542969 170.199219 42.1875 C 170.199219 33.6875 170.199219 25.195312 170.199219 16.699219 Z M 170.199219 16.699219 " fill-opacity="1" fill-rule="nonzero"/></g><g clip-path="url(#894bf4038f)"><path stroke-linecap="butt" transform="matrix(0.0986487, 0, 0, 0.099409, 12.183512, 9.162325)" fill="none" stroke-linejoin="miter" d="M 1601.801946 75.817037 C 1602.910678 71.416026 1607.306008 68.115268 1612.01812 68.311742 C 1621.00677 68.311742 1629.995419 68.193857 1638.984069 68.311742 C 1644.210949 68.115268 1649.002255 72.712753 1649.002255 77.899659 C 1649.200243 104.305725 1648.883463 130.711792 1649.08145 156.999974 C 1662.188248 145.211552 1679.215205 138.413561 1696.598541 136.684593 C 1716.318133 134.680561 1737.10686 138.099203 1753.817037 149.219615 C 1774.684959 162.815596 1786.207854 187.492694 1788.108537 211.816139 C 1788.702501 235.196511 1788.306525 258.616177 1788.38572 281.996549 C 1788.306525 299.011172 1788.583708 316.104385 1788.187732 333.119008 C 1786.881012 337.402135 1782.485681 340.192061 1778.090351 339.995588 C 1769.418482 339.995588 1760.588222 340.113472 1751.916353 339.995588 C 1747.204242 340.192061 1742.808911 336.694829 1741.818972 332.215229 C 1741.898167 301.801098 1741.818972 271.386968 1741.818972 241.012133 C 1741.818972 234.882153 1742.01696 228.791468 1741.383398 222.700783 C 1740.195471 207.808076 1734.612213 192.011589 1721.980586 182.895209 C 1711.80401 175.311324 1698.182444 173.582355 1685.907195 175.704271 C 1676.284985 177.393945 1667.296335 182.502262 1661.119113 190.086147 C 1652.486842 200.695727 1649.200243 214.606066 1649.08145 228.005573 C 1649.002255 261.995525 1649.08145 296.103361 1649.002255 330.093313 C 1649.08145 335.083745 1644.884107 339.60264 1639.894813 339.916998 C 1632.886042 340.192061 1625.996064 339.916998 1618.987293 339.995588 C 1615.700694 339.995588 1612.493291 340.192061 1609.285887 339.68123 C 1605.603313 338.895335 1602.593897 335.79105 1601.801946 332.215229 C 1601.801946 246.70987 1601.801946 161.283101 1601.801946 75.817037 Z M 1601.801946 75.817037 " stroke="#002cb8" stroke-width="0.094" stroke-opacity="1" stroke-miterlimit="4"/></g><g mask="url(#08ac1c423d)"><g transform="matrix(1, 0, 0, 1, 170, 16)"><g clip-path="url(#71d1bb1cf2)"><g clip-path="url(#e26bf7882f)"><path stroke-linecap="butt" transform="matrix(0.0986487, 0, 0, 0.099409, -157.816482, -6.837675)" fill-opacity="1" fill="#000b31" fill-rule="nonzero" stroke-linejoin="miter" d="M 1601.207924 79.90369 C 1601.287119 78.606964 1601.485107 77.192353 1601.801887 75.817037 C 1601.801887 161.283101 1601.801887 246.70987 1601.801887 332.215229 C 1600.891143 327.814218 1601.287119 323.413207 1601.287119 319.012195 C 1601.207924 239.283164 1601.405911 159.593427 1601.207924 79.90369 Z M 1601.207924 79.90369 " stroke="#000b31" stroke-width="0.094" stroke-opacity="1" stroke-miterlimit="4"/></g></g></g></g><path stroke-linecap="butt" transform="matrix(0.0986487, 0, 0, 0.099409, 12.183512, 9.162325)" fill-opacity="1" fill="#002cb8" fill-rule="nonzero" stroke-linejoin="miter" d="M 145.601115 97.507735 C 188.010118 71.887563 245.307809 72.594868 286.489288 100.494135 C 296.705462 107.999431 298.804134 123.992391 290.884618 133.894666 C 283.796652 143.600467 269.105952 146.508278 259.00857 139.985351 C 243.01115 129.808013 223.608338 125.407002 204.79949 127.607507 C 185.990642 129.611539 168.013342 138.295677 154.787752 151.813068 C 141.60176 164.898217 133.009086 182.502262 130.910414 201.010085 C 129.009731 215.981382 131.504378 231.502805 137.6816 245.29526 C 145.917895 263.488725 160.806584 278.617201 178.981871 286.986981 C 197.592731 295.789003 219.410995 297.203614 239.011795 291.112929 C 265.185792 283.096801 286.885263 261.406104 294.408803 235.117921 C 275.599954 235.196511 256.791106 235.117921 237.982258 235.117921 C 228.993608 235.117921 220.282142 229.498773 216.599567 221.404056 C 212.006249 212.091203 214.382103 199.988422 222.182825 193.190432 C 226.18218 189.61461 231.488256 187.217631 236.913123 186.981862 C 265.304585 186.785389 293.616851 186.903273 322.008313 186.903273 C 331.313743 186.588915 340.302392 192.404537 343.984967 200.892201 C 347.192371 207.493718 346.202431 214.999013 345.806455 222.111362 C 343.311808 252.918439 329.413059 282.58597 307.396807 304.394551 C 286.2913 325.613712 257.781046 339.288282 228.003669 342.313977 C 198.701463 345.496852 168.409318 338.384503 143.502443 322.509428 C 118.397581 306.595057 98.796781 281.917959 89.214168 253.704334 C 79.393969 225.215646 79.908737 193.308316 90.085314 165.016102 C 100.103501 136.998951 120.100276 112.793389 145.601115 97.507735 Z M 145.601115 97.507735 " stroke="#002cb8" stroke-width="0.094" stroke-opacity="1" stroke-miterlimit="4"/><path stroke-linecap="butt" transform="matrix(0.0986487, 0, 0, 0.099409, 12.183512, 9.162325)" fill-opacity="1" fill="#002cb8" fill-rule="nonzero" stroke-linejoin="miter" d="M 722.81497 80.493112 C 743.405709 78.214017 764.590411 79.90369 784.191211 86.701681 C 807.593378 94.796398 828.817679 109.492631 843.587574 129.415065 C 846.794978 133.108771 848.299686 138.610035 846.082221 143.20752 C 843.508379 149.219615 836.618401 151.105763 831.510314 154.485111 C 825.68947 157.392922 820.106212 163.01207 813.018246 161.283101 C 807.514183 160.61509 804.78195 155.3103 801.416156 151.49871 C 788.309359 136.998951 769.500511 128.196928 750.097699 126.192897 C 734.694242 124.699696 718.815614 126.38937 704.402097 132.401466 C 687.493932 139.513814 673.397196 152.598963 664.606534 168.591923 C 655.895067 184.506294 653.08364 203.092707 654.786335 221.011109 C 656.01386 235.196511 660.805167 249.185439 669.08106 260.895272 C 680.485162 277.006116 697.512119 289.108897 716.716943 294.217213 C 730.298911 297.596561 744.791624 298.814698 758.611178 295.317466 C 776.113306 291.112929 792.783885 282.389496 805.217524 269.107873 C 814.008185 259.71643 819.987419 247.692239 822.482067 235.117921 C 822.600859 234.60709 822.798847 233.506837 822.91764 232.996005 C 798.485936 233.113889 774.09383 232.996005 749.780918 233.113889 C 744.514441 232.092226 739.881525 227.494741 739.604341 221.993477 C 739.287561 217.003045 739.604341 212.012613 739.485549 206.982886 C 739.485549 203.407065 739.089573 199.399001 741.188244 196.216127 C 743.603697 192.090179 748.315808 189.889673 752.909127 190.204031 C 786.289883 190.204031 819.710236 190.204031 853.090992 190.204031 C 862.000447 189.889673 869.880364 198.102274 869.207205 206.982886 C 868.81123 219.596498 869.088413 232.485174 865.999802 244.784428 C 862.317227 260.502325 855.981615 275.591506 846.992966 288.991013 C 839.509024 300.307898 829.411642 309.581457 818.284724 317.283227 C 803.792011 327.185502 787.596603 334.494324 770.609243 338.698861 C 747.80104 344.514483 723.606921 343.099872 700.996706 337.009187 C 669.912609 328.482228 642.78827 307.380952 625.919703 280.110401 C 607.704818 250.914408 603.190695 214.488182 610.199465 181.205535 C 617.010248 148.394426 638.115756 119.394906 665.794461 100.808493 C 682.702626 89.491607 702.501413 82.693617 722.81497 80.493112 Z M 722.81497 80.493112 " stroke="#002cb8" stroke-width="0.094" stroke-opacity="1" stroke-miterlimit="4"/><path stroke-linecap="butt" transform="matrix(0.0986487, 0, 0, 0.099409, 12.183512, 9.162325)" fill-opacity="1" fill="#002cb8" fill-rule="nonzero" stroke-linejoin="miter" d="M 1014.292721 80.218048 C 1032.507606 78.48908 1051.197661 79.785806 1068.69979 85.28707 C 1095.30936 93.499671 1119.582674 110.592884 1134.986131 134.01255 C 1137.995546 138.413561 1136.609631 145.211552 1131.89752 147.883594 C 1125.284725 151.891658 1118.394747 155.703248 1111.702756 159.711311 C 1108.693341 161.400985 1105.60473 163.601491 1102.00135 163.090659 C 1098.595959 163.01207 1095.903324 160.61509 1094.081835 157.903753 C 1083.509283 142.107267 1066.205142 131.419097 1047.79227 127.489623 C 1032.784789 124.503223 1016.985356 125.210528 1002.294656 129.297181 C 985.980455 133.894666 971.487742 143.993415 961.390361 157.392922 C 951.688955 169.88865 946.184892 185.292188 944.917769 201.010085 C 943.215074 218.889193 945.788916 237.59349 954.38159 253.58645 C 962.697081 269.107873 976.001866 281.917959 992.118079 288.912423 C 1007.085962 295.51394 1023.914932 297.203614 1039.991548 295.592529 C 1059.513152 293.509908 1078.401196 284.118465 1090.795237 268.793515 C 1093.210689 265.885704 1094.794592 262.191999 1098.001995 260.109377 C 1101.209399 258.105345 1105.485937 258.380409 1108.693341 260.38444 C 1116.296075 264.785452 1124.017602 269.107873 1131.580739 273.508884 C 1135.500899 275.591506 1137.480778 280.581938 1136.292851 284.904359 C 1135.104923 288.205118 1132.689471 290.916455 1130.709592 293.706382 C 1107.386621 324.709933 1068.580997 342.785514 1030.012959 342.313977 C 999.918801 342.785514 969.191083 333.511955 945.709721 314.296826 C 932.00896 303.215709 920.40687 289.501844 912.091379 273.901832 C 903.41951 257.594514 898.707399 239.401048 897.598667 220.893225 C 896.291947 201.010085 898.707399 180.616114 905.795365 161.793933 C 916.209527 134.601971 936.483486 111.300189 961.707141 96.682545 C 977.704562 87.408986 995.919446 81.986312 1014.292721 80.218048 Z M 1014.292721 80.218048 " stroke="#002cb8" stroke-width="0.094" stroke-opacity="1" stroke-miterlimit="4"/><path stroke-linecap="butt" transform="matrix(0.0986487, 0, 0, 0.099409, 12.183512, 9.162325)" fill-opacity="1" fill="#6fbaf7" fill-rule="nonzero" stroke-linejoin="miter" d="M 376.415381 110.592884 C 386.710751 107.881547 398.392035 113.186337 403.183342 122.695664 C 429.198949 177.708303 429.198949 244.312891 403.183342 299.286235 C 399.896743 305.809162 393.283948 310.603121 385.997994 311.781963 C 377.484516 313.314458 368.416671 309.699342 363.110596 302.901351 C 357.606533 295.789003 356.616593 285.611665 360.615949 277.595537 C 380.01876 235.510869 379.70198 185.017125 360.10118 143.011046 C 354.201141 130.083076 362.595827 113.618579 376.415381 110.592884 Z M 376.415381 110.592884 " stroke="#6fbaf7" stroke-width="0.094" stroke-opacity="1" stroke-miterlimit="4"/><path stroke-linecap="butt" transform="matrix(0.0986487, 0, 0, 0.099409, 12.183512, 9.162325)" fill-opacity="1" fill="#002cb8" fill-rule="nonzero" stroke-linejoin="miter" d="M 1235.603569 134.798445 C 1254.491613 130.986855 1274.884364 132.087108 1292.307297 140.810541 C 1305.295302 147.215583 1316.303428 158.296701 1321.015539 172.207039 C 1321.609503 163.208543 1320.896747 154.092163 1321.292722 145.015078 C 1321.411515 140.103235 1326.084029 136.016582 1330.994128 136.016582 C 1340.418351 135.898698 1349.684184 135.898698 1359.108407 136.016582 C 1364.414482 135.898698 1369.086996 140.614067 1368.889008 145.997446 C 1368.889008 205.293212 1368.889008 264.588978 1368.889008 324.002628 C 1368.889008 326.596081 1369.0078 329.307418 1368.69102 332.018755 C 1368.017861 336.61624 1363.582933 339.995588 1358.989614 339.995588 C 1351.307684 340.113472 1343.70495 339.916998 1335.983423 339.995588 C 1333.40958 339.995588 1330.79614 340.192061 1328.380688 339.60264 C 1324.500126 338.502388 1321.49071 335.005155 1321.292722 330.997092 C 1321.015539 324.906407 1321.411515 318.815722 1321.094734 312.803626 C 1315.907452 317.401111 1311.116145 322.391543 1305.414095 326.399607 C 1291.198565 337.009187 1273.696437 343.217757 1255.996321 343.217757 C 1236.514314 343.41423 1216.992709 337.284251 1201.312069 325.692302 C 1185.987808 314.611184 1174.504511 298.696814 1167.693728 281.210654 C 1159.49703 260.305851 1157.794334 237.200543 1161.516506 215.195487 C 1165.001093 194.683632 1174.306523 174.918377 1188.997223 159.986375 C 1201.589252 147.215583 1218.101441 138.413561 1235.603569 134.798445 M 1255.402357 175.507798 C 1241.107632 177.590419 1228.000835 185.88161 1219.883332 197.905801 C 1205.113436 219.400025 1204.519473 249.303323 1216.992709 272.015684 C 1223.803492 284.786475 1235.603569 295.317466 1249.819099 299.089761 C 1267.915191 304.315962 1288.585125 299.286235 1302.206691 286.201086 C 1314.085964 275.198558 1320.18399 259.009124 1321.015539 243.016164 C 1322.203466 224.508341 1317.214172 204.585907 1303.790594 191.1864 C 1291.515346 178.415609 1272.785693 172.717871 1255.402357 175.507798 Z M 1255.402357 175.507798 " stroke="#002cb8" stroke-width="0.094" stroke-opacity="1" stroke-miterlimit="4"/><path stroke-linecap="butt" transform="matrix(0.0986487, 0, 0, 0.099409, 12.183512, 9.162325)" fill-opacity="1" fill="#002cb8" fill-rule="nonzero" stroke-linejoin="miter" d="M 1472.317874 133.305245 C 1493.304589 131.419097 1515.518829 134.09114 1533.614921 145.486615 C 1549.810329 155.506774 1560.501674 173.189408 1562.798334 192.011589 C 1563.392297 197.512853 1558.600991 202.896233 1553.096928 202.699759 C 1544.385461 202.817643 1535.5948 202.699759 1527.002126 202.817643 C 1523.99271 202.896233 1520.785306 202.503285 1518.60744 200.381369 C 1515.518829 197.905801 1515.281244 193.701263 1513.697341 190.282621 C 1510.687925 183.288157 1504.312715 178.219135 1497.105956 175.900745 C 1489.503222 173.503766 1481.385719 173.385882 1473.584997 174.407545 C 1467.209787 175.311324 1460.596992 177.315356 1456.201661 182.305788 C 1451.410355 187.610578 1451.212367 196.609074 1455.884881 201.992454 C 1460.79498 207.690191 1468.080934 210.519413 1475.010509 212.994982 C 1494.690504 219.596498 1515.518829 223.09373 1534.090092 232.799532 C 1544.90023 238.41868 1554.918416 246.591986 1560.382882 257.594514 C 1569.094348 274.8842 1567.58964 296.692782 1556.581515 312.607153 C 1547.315682 326.399607 1532.189408 335.083745 1516.389976 339.406167 C 1497.105956 344.593073 1476.317229 344.514483 1457.112405 339.091809 C 1442.382107 334.887271 1428.483359 327.106912 1418.187989 315.790027 C 1410.110084 306.988004 1404.28924 295.906887 1402.388556 284.00058 C 1401.398617 278.381432 1406.308716 272.801579 1412.010767 272.801579 C 1421.712173 272.683695 1431.413579 272.801579 1440.996192 272.801579 C 1445.589511 272.605105 1449.905647 275.70939 1451.093574 280.110401 C 1452.598282 285.218717 1455.607698 289.894792 1459.686248 293.313434 C 1468.001739 300.307898 1479.287048 302.783467 1490.017991 302.115456 C 1498.293884 301.683214 1507.00535 299.99354 1513.499353 294.492276 C 1519.082611 289.816202 1521.181282 281.01418 1517.181927 274.687727 C 1513.697341 269.382936 1507.480521 266.59301 1501.699275 264.19603 C 1484.909903 257.908872 1467.090994 255.001061 1450.301623 248.713902 C 1437.986777 244.195007 1425.790723 237.986437 1417.000062 228.005573 C 1404.210045 213.584403 1401.51741 191.893705 1408.2094 174.211071 C 1413.792658 159.593427 1426.107504 148.51231 1440.006253 141.989383 C 1450.103635 137.116835 1461.190956 134.405498 1472.317874 133.305245 Z M 1472.317874 133.305245 " stroke="#002cb8" stroke-width="0.094" stroke-opacity="1" stroke-miterlimit="4"/><g clip-path="url(#b6ba4f3b5c)"><g mask="url(#e7b410b5da)"><g transform="matrix(1, 0, 0, 1, 188, 29)"><g clip-path="url(#1fb016310c)"><g clip-path="url(#32d13d6afb)"><path stroke-linecap="butt" transform="matrix(0.0986487, 0, 0, 0.099409, -175.816482, -19.837675)" fill-opacity="1" fill="#001966" fill-rule="nonzero" stroke-linejoin="miter" d="M 1788.108479 211.816139 C 1789.494394 220.814635 1788.504455 229.891721 1788.781638 239.008101 C 1788.781638 266.710894 1788.781638 294.295803 1788.781638 321.998596 C 1788.781638 325.692302 1789.217211 329.503892 1788.187674 333.119008 C 1788.58365 316.104385 1788.306467 299.011172 1788.385662 281.996549 C 1788.306467 258.616177 1788.702442 235.196511 1788.108479 211.816139 Z M 1788.108479 211.816139 " stroke="#001966" stroke-width="0.094" stroke-opacity="1" stroke-miterlimit="4"/></g></g></g></g></g><g mask="url(#3f574d8795)"><g transform="matrix(1, 0, 0, 1, 183, 31)"><g clip-path="url(#e10ef66402)"><g clip-path="url(#589e794c2c)"><path stroke-linecap="butt" transform="matrix(0.0986487, 0, 0, 0.099409, -170.816482, -21.837675)" fill-opacity="1" fill="#000a2b" fill-rule="nonzero" stroke-linejoin="miter" d="M 1741.38334 222.700783 C 1742.016901 228.791468 1741.818913 234.882153 1741.818913 241.012133 C 1741.818913 271.386968 1741.898109 301.801098 1741.818913 332.215229 C 1740.789376 327.185502 1741.38334 322.11648 1741.304145 317.008164 C 1741.304145 285.611665 1741.185352 254.215166 1741.38334 222.700783 Z M 1741.38334 222.700783 " stroke="#000a2b" stroke-width="0.094" stroke-opacity="1" stroke-miterlimit="4"/></g></g></g></g><g mask="url(#ce103b266a)"><g transform="matrix(1, 0, 0, 1, 85, 32)"><g clip-path="url(#f7236825d5)"><g clip-path="url(#afdc6d4683)"><path stroke-linecap="butt" transform="matrix(0.0986487, 0, 0, 0.099409, -72.81649, -22.837675)" fill-opacity="1" fill="#00030e" fill-rule="nonzero" stroke-linejoin="miter" d="M 749.780933 233.113889 C 774.093844 232.996005 798.48595 233.113889 822.917654 232.996005 C 822.798862 233.506837 822.600874 234.60709 822.482081 235.117921 C 820.502202 234.017669 818.205543 233.585426 815.988079 233.585426 C 795.71412 233.7819 775.281771 233.506837 755.007813 233.7819 C 753.186324 233.7819 751.483629 233.388953 749.780933 233.113889 Z M 749.780933 233.113889 " stroke="#00030e" stroke-width="0.094" stroke-opacity="1" stroke-miterlimit="4"/></g></g></g></g><g mask="url(#6d68e2f563)"><g transform="matrix(1, 0, 0, 1, 31, 46)"><g clip-path="url(#37ca854697)"><g clip-path="url(#5bcd486698)"><path stroke-linecap="butt" transform="matrix(0.0986487, 0, 0, 0.099409, -18.816489, -36.837675)" fill-opacity="1" fill="#001e3e" fill-rule="nonzero" stroke-linejoin="miter" d="M 198.701471 371.195613 C 208.600864 371.392087 218.381465 371.392087 228.201664 371.313497 C 218.500258 372.41375 208.482072 372.41375 198.701471 371.195613 Z M 198.701471 371.195613 " stroke="#001e3e" stroke-width="0.094" stroke-opacity="1" stroke-miterlimit="4"/></g></g></g></g></svg>