<svg xmlns="http://www.w3.org/2000/svg" xmlns:xlink="http://www.w3.org/1999/xlink" width="280" zoomAndPan="magnify" viewBox="0 0 210 67.92" height="80" preserveAspectRatio="xMidYMid meet" version="1.0"><defs><clipPath id="68e444139a"><path d="M 12.296875 19.523438 L 185.34375 19.523438 L 185.34375 40.5 L 12.296875 40.5 Z M 12.296875 19.523438 " clip-rule="nonzero"/></clipPath></defs><path fill="#fafbfa" d="M 22.507812 22.433594 L 22.203125 22.890625 L 21.996094 23.304688 L 21.792969 23.714844 L 21.632812 24.125 L 21.472656 24.53125 L 21.351562 25.003906 L 21.226562 25.476562 L 21.164062 25.886719 L 21.105469 26.292969 L 21.050781 27.066406 L 21.09375 27.597656 L 21.140625 28.128906 L 21.226562 28.566406 L 21.316406 29.003906 L 21.488281 29.53125 L 21.664062 30.0625 L 21.949219 30.628906 L 22.230469 31.195312 L 22.519531 31.632812 L 22.808594 32.074219 L 22.894531 32.074219 L 23.496094 31.152344 L 24.082031 29.949219 L 24.234375 29.476562 L 24.390625 29.007812 L 24.472656 28.597656 L 24.558594 28.183594 L 24.609375 27.617188 L 24.660156 27.046875 L 24.558594 25.90625 L 24.46875 25.480469 L 24.382812 25.058594 L 24.125 24.230469 L 23.9375 23.800781 L 23.753906 23.371094 L 23.546875 22.996094 L 23.339844 22.625 L 23.117188 22.300781 L 22.890625 21.972656 L 22.8125 21.972656 L 22.507812 22.433594 M 17.316406 27.605469 L 17.289062 27.644531 L 17.460938 28.699219 L 17.671875 29.441406 L 17.808594 29.78125 L 17.941406 30.121094 L 18.113281 30.441406 L 18.285156 30.765625 L 18.480469 31.042969 L 18.675781 31.316406 L 18.925781 31.609375 L 19.175781 31.898438 L 19.878906 32.492188 L 20.199219 32.707031 L 20.519531 32.925781 L 20.910156 33.121094 L 21.296875 33.316406 L 21.71875 33.464844 L 22.144531 33.609375 L 22.367188 33.664062 L 22.59375 33.71875 L 22.59375 39.941406 L 23.105469 39.941406 L 23.117188 36.835938 L 23.125 33.730469 L 23.320312 33.675781 L 23.511719 33.621094 L 24.324219 33.355469 L 24.824219 33.101562 L 25.324219 32.84375 L 26.074219 32.3125 L 26.976562 31.410156 L 27.261719 30.976562 L 27.546875 30.546875 L 27.738281 30.140625 L 27.925781 29.734375 L 28.058594 29.324219 L 28.191406 28.917969 L 28.355469 28.097656 L 28.382812 27.832031 L 28.414062 27.5625 L 28.355469 27.5625 L 27.683594 27.734375 L 27.339844 27.878906 L 26.992188 28.027344 L 26.648438 28.230469 L 26.300781 28.433594 L 25.933594 28.722656 L 25.5625 29.011719 L 24.742188 29.863281 L 24.445312 30.269531 L 24.144531 30.679688 L 23.980469 30.9375 L 23.8125 31.195312 L 23.382812 32.054688 L 22.957031 32.914062 L 22.753906 32.914062 L 22.671875 32.761719 L 22.59375 32.613281 L 22.359375 32.117188 L 22.128906 31.625 L 21.855469 31.164062 L 21.578125 30.707031 L 21.328125 30.347656 L 21.074219 29.992188 L 20.457031 29.363281 L 19.835938 28.738281 L 18.976562 28.167969 L 18.570312 27.972656 L 18.164062 27.78125 L 17.761719 27.671875 L 17.355469 27.5625 L 17.339844 27.5625 L 17.316406 27.605469 M 14.492188 33.105469 L 14.234375 33.140625 L 13.957031 33.214844 L 13.683594 33.285156 L 13.535156 33.363281 L 13.601562 33.5625 L 13.667969 33.757812 L 13.980469 34.386719 L 14.292969 35.019531 L 14.550781 35.417969 L 15.035156 35.171875 L 15.519531 34.929688 L 15.882812 34.8125 L 16.246094 34.699219 L 16.566406 34.625 L 16.886719 34.554688 L 18.425781 34.554688 L 19.941406 34.816406 L 21.460938 35.082031 L 21.792969 35.140625 L 22.128906 35.203125 L 22.148438 35.148438 L 22.167969 35.097656 L 22.15625 34.84375 L 22.144531 34.59375 L 21.671875 34.5 L 21.203125 34.40625 L 20.007812 34.101562 L 18.488281 33.6875 L 16.972656 33.277344 L 16.503906 33.1875 L 16.03125 33.101562 L 14.75 33.070312 L 14.492188 33.105469 M 31.609375 33.929688 L 31.289062 34.058594 L 30.007812 34.433594 L 29.367188 34.5625 L 28.726562 34.695312 L 27.742188 34.820312 L 27.101562 34.871094 L 26.460938 34.925781 L 25.265625 34.894531 L 24.066406 34.867188 L 23.820312 34.84375 L 23.574219 34.816406 L 23.574219 35.421875 L 23.652344 35.445312 L 23.726562 35.464844 L 24.175781 35.550781 L 24.621094 35.636719 L 25.777344 35.808594 L 26.355469 35.875 L 26.929688 35.941406 L 27.816406 35.988281 L 28.699219 36.03125 L 29.414062 35.988281 L 30.128906 35.941406 L 30.429688 35.898438 L 30.734375 35.855469 L 30.832031 35.8125 L 30.929688 35.773438 L 31.1875 35.375 L 31.441406 34.976562 L 31.691406 34.480469 L 31.941406 33.988281 L 31.972656 33.890625 L 32 33.792969 L 31.929688 33.800781 L 31.609375 33.929688 M 19.003906 35.386719 L 18.425781 35.417969 L 18.082031 35.46875 L 17.742188 35.519531 L 17.3125 35.621094 L 16.886719 35.722656 L 16.503906 35.859375 L 16.117188 35.996094 L 15.722656 36.1875 L 15.328125 36.382812 L 15.328125 36.511719 L 16.460938 37.652344 L 16.574219 37.726562 L 16.691406 37.796875 L 17.003906 37.605469 L 17.320312 37.414062 L 18.203125 36.96875 L 18.632812 36.800781 L 19.058594 36.632812 L 19.511719 36.503906 L 19.964844 36.378906 L 20.304688 36.3125 L 20.648438 36.246094 L 21.460938 36.160156 L 22.164062 36.160156 L 22.164062 35.648438 L 22.089844 35.625 L 22.015625 35.605469 L 21.289062 35.472656 L 20.863281 35.429688 L 20.433594 35.390625 L 20.007812 35.371094 L 19.578125 35.355469 L 19.003906 35.386719 M 23.582031 36.167969 L 23.597656 36.347656 L 24.152344 36.507812 L 24.707031 36.664062 L 25.199219 36.847656 L 25.691406 37.027344 L 26.394531 37.320312 L 27.101562 37.609375 L 28.445312 38.179688 L 28.5 38.175781 L 28.554688 38.175781 L 28.9375 37.867188 L 29.324219 37.554688 L 30.136719 36.757812 L 29.902344 36.792969 L 29.667969 36.824219 L 28.703125 36.820312 L 27.742188 36.816406 L 26.984375 36.703125 L 26.222656 36.585938 L 25.59375 36.457031 L 24.964844 36.324219 L 23.621094 35.988281 L 23.570312 35.988281 L 23.582031 36.167969 M 21.386719 37.042969 L 20.96875 37.097656 L 20.617188 37.171875 L 20.261719 37.242188 L 19.246094 37.578125 L 18.882812 37.769531 L 18.523438 37.964844 L 18.253906 38.179688 L 17.988281 38.394531 L 17.917969 38.5 L 17.847656 38.609375 L 17.984375 38.695312 L 18.125 38.78125 L 18.9375 39.179688 L 19.386719 39.347656 L 19.835938 39.519531 L 20.390625 39.664062 L 20.945312 39.804688 L 21.402344 39.875 L 21.855469 39.941406 L 22.164062 39.941406 L 22.164062 36.976562 L 21.984375 36.980469 L 21.800781 36.984375 L 21.386719 37.042969 M 23.574219 38.507812 L 23.574219 39.953125 L 23.90625 39.921875 L 24.238281 39.894531 L 24.75 39.789062 L 25.265625 39.6875 L 26.03125 39.460938 L 26.472656 39.289062 L 26.910156 39.117188 L 26.910156 39.058594 L 26.433594 38.480469 L 26.085938 38.199219 L 25.734375 37.917969 L 25.414062 37.726562 L 25.089844 37.535156 L 24.769531 37.402344 L 24.453125 37.269531 L 24.050781 37.167969 L 23.652344 37.0625 L 23.574219 37.0625 L 23.574219 38.507812 " fill-opacity="1" fill-rule="evenodd"/><g clip-path="url(#68e444139a)"><path fill="#74bc44" d="M 21.683594 19.609375 L 21.355469 19.648438 L 20.9375 19.71875 L 20.519531 19.792969 L 19.984375 19.9375 L 19.449219 20.085938 L 18.960938 20.28125 L 18.46875 20.476562 L 17.484375 20.992188 L 16.515625 21.640625 L 16.125 21.964844 L 15.734375 22.292969 L 15.410156 22.617188 L 15.089844 22.941406 L 14.75 23.351562 L 14.414062 23.757812 L 13.734375 24.789062 L 13.421875 25.433594 L 13.105469 26.078125 L 12.894531 26.722656 L 12.679688 27.367188 L 12.574219 27.90625 L 12.46875 28.441406 L 12.421875 28.859375 L 12.378906 29.277344 L 12.378906 30.824219 L 12.445312 31.332031 L 12.507812 31.839844 L 12.597656 32.269531 L 12.683594 32.699219 L 12.894531 33.34375 L 13.105469 33.984375 L 13.398438 34.589844 L 13.695312 35.191406 L 14.179688 35.964844 L 14.484375 36.375 L 14.792969 36.78125 L 15.816406 37.84375 L 16.203125 38.15625 L 16.585938 38.464844 L 16.972656 38.726562 L 17.355469 38.984375 L 17.742188 39.199219 L 18.125 39.410156 L 18.914062 39.769531 L 19.398438 39.933594 L 19.878906 40.101562 L 20.347656 40.210938 L 20.820312 40.324219 L 21.308594 40.398438 L 21.800781 40.476562 L 23.683594 40.476562 L 24.089844 40.421875 L 24.496094 40.363281 L 24.902344 40.277344 L 25.304688 40.191406 L 25.691406 40.082031 L 26.074219 39.972656 L 26.460938 39.824219 L 26.84375 39.679688 L 27.96875 39.125 L 28.539062 38.738281 L 29.109375 38.355469 L 29.605469 37.925781 L 30.097656 37.5 L 30.457031 37.097656 L 30.8125 36.695312 L 31.445312 35.84375 L 31.703125 35.410156 L 31.957031 34.976562 L 32.332031 34.203125 L 32.460938 33.867188 L 32.59375 33.53125 L 32.746094 33.035156 L 32.894531 32.539062 L 33 31.972656 L 33.101562 31.40625 L 33.152344 30.742188 L 33.199219 30.078125 L 33.171875 29.625 L 33.144531 29.175781 L 33.058594 28.355469 L 32.949219 27.839844 L 32.84375 27.324219 L 32.675781 26.804688 L 32.507812 26.28125 L 32.316406 25.839844 L 32.121094 25.398438 L 31.925781 25.03125 L 31.726562 24.667969 L 31.394531 24.167969 L 31.0625 23.671875 L 30.660156 23.199219 L 30.261719 22.726562 L 29.480469 22.007812 L 29.058594 21.6875 L 28.640625 21.363281 L 28.257812 21.125 L 27.871094 20.886719 L 27.273438 20.59375 L 26.675781 20.304688 L 26.183594 20.136719 L 25.691406 19.964844 L 24.746094 19.738281 L 23.894531 19.605469 L 22.957031 19.589844 L 22.015625 19.574219 L 21.683594 19.609375 M 36.867188 30.164062 L 36.867188 40.457031 L 48.40625 40.457031 L 48.40625 36.589844 L 41.867188 36.589844 L 41.867188 19.867188 L 36.867188 19.867188 L 36.867188 30.164062 M 52.679688 30.164062 L 48.976562 40.457031 L 54.242188 40.457031 L 54.847656 38.664062 L 55.449219 36.867188 L 59.253906 36.855469 L 63.054688 36.847656 L 64.273438 40.457031 L 69.597656 40.457031 L 69.367188 39.824219 L 69.140625 39.1875 L 65.664062 29.527344 L 62.191406 19.867188 L 59.285156 19.871094 L 56.378906 19.871094 L 52.679688 30.164062 M 70.933594 30.164062 L 70.933594 40.457031 L 75.933594 40.457031 L 75.941406 34.15625 L 75.953125 27.855469 L 80.085938 34.144531 L 84.214844 40.433594 L 86.742188 40.445312 L 89.265625 40.457031 L 89.265625 19.867188 L 84.222656 19.867188 L 84.214844 26.1875 L 84.203125 32.503906 L 80.078125 26.1875 L 75.953125 19.875 L 73.441406 19.871094 L 70.933594 19.867188 L 70.933594 30.164062 M 90.164062 30.164062 L 90.164062 40.457031 L 98.863281 40.457031 L 99.441406 40.390625 L 100.015625 40.324219 L 100.550781 40.214844 L 101.085938 40.109375 L 101.523438 39.980469 L 101.957031 39.851562 L 102.355469 39.703125 L 102.753906 39.550781 L 103.777344 39.042969 L 104.289062 38.707031 L 104.804688 38.367188 L 105.101562 38.117188 L 105.402344 37.867188 L 105.691406 37.582031 L 105.984375 37.296875 L 106.277344 36.949219 L 106.574219 36.605469 L 106.890625 36.125 L 107.207031 35.648438 L 107.449219 35.175781 L 107.6875 34.707031 L 108.03125 33.816406 L 108.160156 33.375 L 108.285156 32.929688 L 108.367188 32.492188 L 108.453125 32.054688 L 108.507812 31.601562 L 108.5625 31.152344 L 108.5625 29.175781 L 108.453125 28.269531 L 108.367188 27.832031 L 108.285156 27.394531 L 108.160156 26.953125 L 108.03125 26.507812 L 107.695312 25.640625 L 107.296875 24.84375 L 106.835938 24.101562 L 106.34375 23.445312 L 105.671875 22.703125 L 105.222656 22.328125 L 104.777344 21.953125 L 104.339844 21.660156 L 103.90625 21.367188 L 102.539062 20.6875 L 101.382812 20.304688 L 100.882812 20.195312 L 100.382812 20.082031 L 99.546875 19.957031 L 99.035156 19.914062 L 98.519531 19.871094 L 94.34375 19.867188 L 90.164062 19.867188 L 90.164062 30.164062 M 109.527344 30.164062 L 109.527344 40.460938 L 114.988281 40.445312 L 120.445312 40.429688 L 121.429688 40.242188 L 121.855469 40.117188 L 122.285156 39.988281 L 122.636719 39.839844 L 122.992188 39.691406 L 123.320312 39.496094 L 123.652344 39.300781 L 124.015625 39.007812 L 124.375 38.714844 L 124.984375 38.003906 L 125.359375 37.347656 L 125.640625 36.636719 L 125.730469 36.238281 L 125.816406 35.835938 L 125.851562 35.34375 L 125.882812 34.847656 L 125.847656 34.394531 L 125.8125 33.945312 L 125.707031 33.519531 L 125.597656 33.09375 L 125.367188 32.617188 L 125.140625 32.140625 L 124.625 31.453125 L 124.289062 31.125 L 123.949219 30.800781 L 123.679688 30.617188 L 123.40625 30.429688 L 122.710938 30.101562 L 122.007812 29.898438 L 122.25 29.820312 L 122.492188 29.746094 L 122.878906 29.546875 L 123.265625 29.34375 L 123.921875 28.851562 L 124.179688 28.574219 L 124.4375 28.292969 L 124.605469 28.046875 L 124.773438 27.796875 L 125.070312 27.195312 L 125.160156 26.917969 L 125.25 26.636719 L 125.3125 26.273438 L 125.378906 25.90625 L 125.402344 25.542969 L 125.429688 25.175781 L 125.386719 24.695312 L 125.339844 24.21875 L 125.136719 23.40625 L 125 23.085938 L 124.867188 22.761719 L 124.644531 22.421875 L 124.425781 22.082031 L 124.089844 21.734375 L 123.757812 21.382812 L 123.382812 21.117188 L 123.011719 20.847656 L 122.582031 20.640625 L 122.15625 20.429688 L 121.769531 20.300781 L 121.386719 20.171875 L 120.851562 20.066406 L 120.316406 19.957031 L 119.828125 19.914062 L 119.335938 19.867188 L 109.527344 19.867188 L 109.527344 30.164062 M 130.421875 30.164062 L 126.722656 40.457031 L 131.988281 40.457031 L 132.589844 38.664062 L 133.195312 36.867188 L 136.996094 36.855469 L 140.800781 36.847656 L 142.019531 40.457031 L 147.339844 40.457031 L 147.113281 39.824219 L 146.886719 39.1875 L 143.410156 29.527344 L 139.9375 19.867188 L 137.03125 19.871094 L 134.125 19.871094 L 130.421875 30.164062 M 148.078125 30.164062 L 148.078125 40.457031 L 153.078125 40.457031 L 153.101562 27.855469 L 157.230469 34.144531 L 161.363281 40.433594 L 163.886719 40.445312 L 166.414062 40.457031 L 166.414062 19.867188 L 161.371094 19.867188 L 161.359375 26.1875 L 161.347656 32.503906 L 157.222656 26.1875 L 153.101562 19.875 L 148.078125 19.867188 L 148.078125 30.164062 M 167.3125 30.164062 L 167.3125 40.457031 L 172.3125 40.457031 L 172.320312 35.953125 L 172.332031 31.449219 L 175.734375 35.941406 L 179.132812 40.433594 L 182.203125 40.445312 L 185.269531 40.457031 L 185.253906 40.417969 L 185.242188 40.378906 L 181.179688 35.195312 L 177.121094 30.015625 L 177.109375 29.980469 L 177.097656 29.949219 L 181.050781 24.917969 L 185.007812 19.890625 L 182.066406 19.878906 L 179.128906 19.867188 L 179.023438 19.992188 L 178.914062 20.121094 L 175.625 24.476562 L 172.332031 28.835938 L 172.320312 24.351562 L 172.3125 19.867188 L 167.3125 19.867188 L 167.3125 30.164062 M 22.507812 22.433594 L 22.203125 22.890625 L 21.996094 23.304688 L 21.792969 23.714844 L 21.632812 24.125 L 21.472656 24.53125 L 21.351562 25.003906 L 21.226562 25.476562 L 21.164062 25.886719 L 21.105469 26.292969 L 21.050781 27.066406 L 21.09375 27.597656 L 21.140625 28.128906 L 21.226562 28.566406 L 21.316406 29.003906 L 21.488281 29.53125 L 21.664062 30.0625 L 21.949219 30.628906 L 22.230469 31.195312 L 22.519531 31.632812 L 22.808594 32.074219 L 22.894531 32.074219 L 23.496094 31.152344 L 24.082031 29.949219 L 24.234375 29.476562 L 24.390625 29.007812 L 24.472656 28.597656 L 24.558594 28.183594 L 24.609375 27.617188 L 24.660156 27.046875 L 24.558594 25.90625 L 24.46875 25.480469 L 24.382812 25.058594 L 24.125 24.230469 L 23.9375 23.800781 L 23.753906 23.371094 L 23.546875 22.996094 L 23.339844 22.625 L 23.117188 22.300781 L 22.890625 21.972656 L 22.8125 21.972656 L 22.507812 22.433594 M 114.527344 26.058594 L 114.527344 28.214844 L 116.441406 28.195312 L 118.351562 28.175781 L 118.652344 28.105469 L 118.949219 28.035156 L 119.566406 27.730469 L 119.96875 27.328125 L 120.085938 27.074219 L 120.203125 26.824219 L 120.257812 26.515625 L 120.308594 26.207031 L 120.285156 25.863281 L 120.257812 25.519531 L 120.175781 25.28125 L 120.09375 25.039062 L 119.882812 24.703125 L 119.492188 24.34375 L 119.269531 24.230469 L 119.050781 24.117188 L 118.394531 23.9375 L 116.460938 23.917969 L 114.527344 23.902344 L 114.527344 26.058594 M 95.164062 30.140625 L 95.164062 36.117188 L 97.582031 36.117188 L 98.15625 36.070312 L 98.734375 36.027344 L 99.160156 35.941406 L 99.589844 35.851562 L 99.960938 35.726562 L 100.335938 35.601562 L 100.601562 35.46875 L 100.871094 35.332031 L 101.230469 35.09375 L 101.59375 34.851562 L 101.914062 34.527344 L 102.238281 34.199219 L 102.464844 33.867188 L 102.695312 33.535156 L 102.878906 33.136719 L 103.066406 32.742188 L 103.179688 32.355469 L 103.289062 31.96875 L 103.363281 31.582031 L 103.433594 31.195312 L 103.433594 29.132812 L 103.339844 28.652344 L 103.242188 28.171875 L 103.132812 27.835938 L 103.023438 27.496094 L 102.863281 27.148438 L 102.699219 26.804688 L 102.472656 26.460938 L 102.246094 26.121094 L 101.878906 25.757812 L 101.511719 25.390625 L 101.210938 25.191406 L 100.914062 24.992188 L 100.601562 24.835938 L 100.292969 24.679688 L 99.902344 24.546875 L 99.511719 24.417969 L 99.082031 24.332031 L 98.648438 24.25 L 98.03125 24.207031 L 97.410156 24.167969 L 95.164062 24.167969 L 95.164062 30.140625 M 58.023438 29.207031 L 56.792969 32.898438 L 56.777344 32.933594 L 61.742188 32.933594 L 61.742188 32.878906 L 59.296875 25.605469 L 59.269531 25.578125 L 59.242188 25.546875 L 58.023438 29.207031 M 135.769531 29.207031 L 134.550781 32.863281 L 134.535156 32.898438 L 134.523438 32.933594 L 139.488281 32.933594 L 139.488281 32.878906 L 138.265625 29.242188 L 137.039062 25.605469 L 137.015625 25.578125 L 136.988281 25.546875 L 135.769531 29.207031 M 17.316406 27.605469 L 17.289062 27.644531 L 17.460938 28.699219 L 17.671875 29.441406 L 17.808594 29.78125 L 17.941406 30.121094 L 18.113281 30.441406 L 18.285156 30.765625 L 18.480469 31.042969 L 18.675781 31.316406 L 18.925781 31.609375 L 19.175781 31.898438 L 19.878906 32.492188 L 20.199219 32.707031 L 20.519531 32.925781 L 20.910156 33.121094 L 21.296875 33.316406 L 21.71875 33.464844 L 22.144531 33.609375 L 22.367188 33.664062 L 22.59375 33.71875 L 22.59375 39.941406 L 23.105469 39.941406 L 23.117188 36.835938 L 23.125 33.730469 L 23.320312 33.675781 L 23.511719 33.621094 L 24.324219 33.355469 L 24.824219 33.101562 L 25.324219 32.84375 L 26.074219 32.3125 L 26.976562 31.410156 L 27.261719 30.976562 L 27.546875 30.546875 L 27.738281 30.140625 L 27.925781 29.734375 L 28.058594 29.324219 L 28.191406 28.917969 L 28.355469 28.097656 L 28.382812 27.832031 L 28.414062 27.5625 L 28.355469 27.5625 L 27.683594 27.734375 L 27.339844 27.878906 L 26.992188 28.027344 L 26.648438 28.230469 L 26.300781 28.433594 L 25.933594 28.722656 L 25.5625 29.011719 L 24.742188 29.863281 L 24.445312 30.269531 L 24.144531 30.679688 L 23.980469 30.9375 L 23.8125 31.195312 L 23.382812 32.054688 L 22.957031 32.914062 L 22.753906 32.914062 L 22.671875 32.761719 L 22.59375 32.613281 L 22.359375 32.117188 L 22.128906 31.625 L 21.855469 31.164062 L 21.578125 30.707031 L 21.328125 30.347656 L 21.074219 29.992188 L 20.457031 29.363281 L 19.835938 28.738281 L 18.976562 28.167969 L 18.570312 27.972656 L 18.164062 27.78125 L 17.761719 27.671875 L 17.355469 27.5625 L 17.339844 27.5625 L 17.316406 27.605469 M 114.527344 34.140625 L 114.527344 36.378906 L 116.761719 36.363281 L 118.992188 36.351562 L 119.34375 36.234375 L 119.691406 36.113281 L 119.949219 35.941406 L 120.207031 35.765625 L 120.332031 35.609375 L 120.457031 35.449219 L 120.667969 35.019531 L 120.726562 34.78125 L 120.78125 34.546875 L 120.777344 34.136719 L 120.773438 33.730469 L 120.59375 33.160156 L 120.242188 32.628906 L 120.023438 32.460938 L 119.804688 32.296875 L 119.25 32.039062 L 118.921875 31.96875 L 118.589844 31.902344 L 114.527344 31.902344 L 114.527344 34.140625 M 14.492188 33.105469 L 14.234375 33.140625 L 13.957031 33.214844 L 13.683594 33.285156 L 13.535156 33.363281 L 13.601562 33.5625 L 13.667969 33.757812 L 13.980469 34.386719 L 14.292969 35.019531 L 14.550781 35.417969 L 15.035156 35.171875 L 15.519531 34.929688 L 15.882812 34.8125 L 16.246094 34.699219 L 16.566406 34.625 L 16.886719 34.554688 L 18.425781 34.554688 L 19.941406 34.816406 L 21.460938 35.082031 L 21.792969 35.140625 L 22.128906 35.203125 L 22.148438 35.148438 L 22.167969 35.097656 L 22.15625 34.84375 L 22.144531 34.59375 L 21.671875 34.5 L 21.203125 34.40625 L 20.007812 34.101562 L 18.488281 33.6875 L 16.972656 33.277344 L 16.503906 33.1875 L 16.03125 33.101562 L 14.75 33.070312 L 14.492188 33.105469 M 31.609375 33.929688 L 31.289062 34.058594 L 30.007812 34.433594 L 29.367188 34.5625 L 28.726562 34.695312 L 27.742188 34.820312 L 27.101562 34.871094 L 26.460938 34.925781 L 25.265625 34.894531 L 24.066406 34.867188 L 23.820312 34.84375 L 23.574219 34.816406 L 23.574219 35.421875 L 23.652344 35.445312 L 23.726562 35.464844 L 24.175781 35.550781 L 24.621094 35.636719 L 25.777344 35.808594 L 26.355469 35.875 L 26.929688 35.941406 L 27.816406 35.988281 L 28.699219 36.03125 L 29.414062 35.988281 L 30.128906 35.941406 L 30.429688 35.898438 L 30.734375 35.855469 L 30.832031 35.8125 L 30.929688 35.773438 L 31.1875 35.375 L 31.441406 34.976562 L 31.691406 34.480469 L 31.941406 33.988281 L 31.972656 33.890625 L 32 33.792969 L 31.929688 33.800781 L 31.609375 33.929688 M 19.003906 35.386719 L 18.425781 35.417969 L 18.082031 35.46875 L 17.742188 35.519531 L 17.3125 35.621094 L 16.886719 35.722656 L 16.503906 35.859375 L 16.117188 35.996094 L 15.722656 36.1875 L 15.328125 36.382812 L 15.328125 36.511719 L 16.460938 37.652344 L 16.574219 37.726562 L 16.691406 37.796875 L 17.003906 37.605469 L 17.320312 37.414062 L 18.203125 36.96875 L 18.632812 36.800781 L 19.058594 36.632812 L 19.511719 36.503906 L 19.964844 36.378906 L 20.304688 36.3125 L 20.648438 36.246094 L 21.460938 36.160156 L 22.164062 36.160156 L 22.164062 35.648438 L 22.089844 35.625 L 22.015625 35.605469 L 21.289062 35.472656 L 20.863281 35.429688 L 20.433594 35.390625 L 20.007812 35.371094 L 19.578125 35.355469 L 19.003906 35.386719 M 23.582031 36.167969 L 23.597656 36.347656 L 24.152344 36.507812 L 24.707031 36.664062 L 25.199219 36.847656 L 25.691406 37.027344 L 26.394531 37.320312 L 27.101562 37.609375 L 28.445312 38.179688 L 28.5 38.175781 L 28.554688 38.175781 L 28.9375 37.867188 L 29.324219 37.554688 L 30.136719 36.757812 L 29.902344 36.792969 L 29.667969 36.824219 L 28.703125 36.820312 L 27.742188 36.816406 L 26.984375 36.703125 L 26.222656 36.585938 L 25.59375 36.457031 L 24.964844 36.324219 L 23.621094 35.988281 L 23.570312 35.988281 L 23.582031 36.167969 M 21.386719 37.042969 L 20.96875 37.097656 L 20.617188 37.171875 L 20.261719 37.242188 L 19.246094 37.578125 L 18.882812 37.769531 L 18.523438 37.964844 L 18.253906 38.179688 L 17.988281 38.394531 L 17.917969 38.5 L 17.847656 38.609375 L 17.984375 38.695312 L 18.125 38.78125 L 18.9375 39.179688 L 19.386719 39.347656 L 19.835938 39.519531 L 20.390625 39.664062 L 20.945312 39.804688 L 21.402344 39.875 L 21.855469 39.941406 L 22.164062 39.941406 L 22.164062 36.976562 L 21.984375 36.980469 L 21.800781 36.984375 L 21.386719 37.042969 M 23.574219 38.507812 L 23.574219 39.953125 L 23.90625 39.921875 L 24.238281 39.894531 L 24.75 39.789062 L 25.265625 39.6875 L 26.03125 39.460938 L 26.472656 39.289062 L 26.910156 39.117188 L 26.910156 39.058594 L 26.433594 38.480469 L 26.085938 38.199219 L 25.734375 37.917969 L 25.414062 37.726562 L 25.089844 37.535156 L 24.769531 37.402344 L 24.453125 37.269531 L 24.050781 37.167969 L 23.652344 37.0625 L 23.574219 37.0625 L 23.574219 38.507812 " fill-opacity="1" fill-rule="evenodd"/></g></svg>