<svg xmlns="http://www.w3.org/2000/svg" xmlns:xlink="http://www.w3.org/1999/xlink" width="280" zoomAndPan="magnify" viewBox="0 0 210 67.92" height="80" preserveAspectRatio="xMidYMid meet" version="1.0"><defs><clipPath id="0d64bef4f7"><path d="M 14.738281 10.023438 L 57 10.023438 L 57 39 L 14.738281 39 Z M 14.738281 10.023438 " clip-rule="nonzero"/></clipPath><clipPath id="edf70d6453"><path d="M 60 10.023438 L 90 10.023438 L 90 40 L 60 40 Z M 60 10.023438 " clip-rule="nonzero"/></clipPath><clipPath id="030816df31"><path d="M 122 10.023438 L 152.324219 10.023438 L 152.324219 40 L 122 40 Z M 122 10.023438 " clip-rule="nonzero"/></clipPath><clipPath id="1a17b131d7"><path d="M 92 10.023438 L 120 10.023438 L 120 49.75 L 92 49.75 Z M 92 10.023438 " clip-rule="nonzero"/></clipPath></defs><g clip-path="url(#0d64bef4f7)"><path fill="#75eea5" d="M 45.105469 10.023438 C 41.9375 10.019531 38.894531 11.265625 36.628906 13.488281 L 37.859375 15.832031 L 37.355469 16.238281 C 36.289062 14.386719 34.765625 12.84375 32.925781 11.765625 C 31.089844 10.683594 29.003906 10.097656 26.875 10.070312 C 20.191406 10.070312 14.785156 15.945312 14.785156 22.828125 L 14.785156 37.636719 C 14.78125 37.761719 14.800781 37.886719 14.847656 38.003906 C 14.894531 38.121094 14.960938 38.230469 15.050781 38.316406 C 15.140625 38.40625 15.246094 38.476562 15.363281 38.523438 C 15.480469 38.570312 15.605469 38.589844 15.730469 38.585938 L 20.574219 38.585938 C 20.691406 38.585938 20.808594 38.5625 20.917969 38.519531 C 21.027344 38.476562 21.125 38.410156 21.210938 38.324219 C 21.292969 38.242188 21.359375 38.140625 21.40625 38.03125 C 21.449219 37.921875 21.472656 37.804688 21.46875 37.683594 L 21.46875 22.667969 C 21.46875 19.25 23.535156 16.5 27.046875 16.5 C 30.328125 16.5 32.671875 18.96875 32.671875 22.605469 L 32.671875 34.945312 C 32.664062 35.066406 32.683594 35.191406 32.722656 35.304688 C 32.761719 35.421875 32.828125 35.527344 32.910156 35.617188 C 32.992188 35.707031 33.09375 35.78125 33.203125 35.828125 C 33.316406 35.878906 33.4375 35.90625 33.558594 35.90625 L 38.140625 35.90625 C 38.261719 35.90625 38.382812 35.878906 38.496094 35.828125 C 38.605469 35.78125 38.707031 35.707031 38.789062 35.617188 C 38.871094 35.527344 38.9375 35.421875 38.976562 35.304688 C 39.015625 35.191406 39.035156 35.066406 39.027344 34.945312 L 39.027344 22.605469 C 38.972656 21.820312 39.078125 21.027344 39.34375 20.285156 C 39.609375 19.539062 40.027344 18.859375 40.566406 18.285156 C 41.105469 17.710938 41.761719 17.257812 42.484375 16.949219 C 43.207031 16.640625 43.988281 16.488281 44.773438 16.5 C 48.277344 16.5 50.230469 19.300781 50.230469 22.667969 L 50.230469 37.660156 C 50.238281 37.902344 50.34375 38.132812 50.519531 38.304688 C 50.695312 38.472656 50.933594 38.5625 51.175781 38.558594 L 55.96875 38.558594 C 56.09375 38.566406 56.21875 38.546875 56.335938 38.503906 C 56.457031 38.457031 56.5625 38.386719 56.652344 38.296875 C 56.742188 38.207031 56.8125 38.101562 56.855469 37.980469 C 56.902344 37.863281 56.921875 37.738281 56.914062 37.609375 L 56.914062 22.804688 C 56.914062 15.894531 51.742188 10.023438 45.105469 10.023438 Z M 45.105469 10.023438 " fill-opacity="1" fill-rule="nonzero"/></g><g clip-path="url(#edf70d6453)"><path fill="#75eea5" d="M 88.511719 10.578125 L 84.113281 10.578125 C 83.992188 10.566406 83.867188 10.585938 83.753906 10.625 C 83.636719 10.667969 83.53125 10.734375 83.441406 10.816406 C 83.351562 10.902344 83.28125 11.003906 83.234375 11.117188 C 83.1875 11.230469 83.164062 11.355469 83.167969 11.476562 L 83.167969 12.082031 L 84.726562 14.550781 L 84.296875 14.96875 C 83.007812 13.445312 81.410156 12.214844 79.609375 11.363281 C 77.808594 10.511719 75.84375 10.058594 73.855469 10.035156 C 70.144531 10.210938 66.640625 11.8125 64.074219 14.507812 C 61.503906 17.207031 60.066406 20.789062 60.054688 24.519531 C 60.042969 28.253906 61.460938 31.84375 64.015625 34.558594 C 66.566406 37.269531 70.058594 38.890625 73.769531 39.089844 C 75.769531 39.070312 77.742188 38.617188 79.550781 37.765625 C 81.363281 36.914062 82.972656 35.683594 84.273438 34.15625 L 84.640625 34.453125 L 83.082031 37.015625 L 83.082031 37.585938 C 83.078125 37.710938 83.101562 37.835938 83.148438 37.949219 C 83.195312 38.066406 83.265625 38.171875 83.355469 38.261719 C 83.441406 38.347656 83.546875 38.417969 83.664062 38.464844 C 83.777344 38.511719 83.902344 38.535156 84.027344 38.535156 L 88.511719 38.535156 C 88.636719 38.542969 88.761719 38.523438 88.882812 38.476562 C 89 38.433594 89.105469 38.363281 89.195312 38.273438 C 89.285156 38.183594 89.355469 38.074219 89.398438 37.957031 C 89.445312 37.839844 89.464844 37.710938 89.457031 37.585938 L 89.457031 11.476562 C 89.460938 11.351562 89.441406 11.230469 89.394531 11.113281 C 89.347656 11 89.277344 10.894531 89.1875 10.808594 C 89.097656 10.722656 88.992188 10.660156 88.875 10.617188 C 88.757812 10.578125 88.632812 10.5625 88.511719 10.578125 Z M 73.769531 32.847656 C 71.582031 32.847656 69.484375 31.976562 67.9375 30.421875 C 66.394531 28.871094 65.523438 26.765625 65.523438 24.566406 C 65.523438 22.371094 66.394531 20.265625 67.9375 18.714844 C 69.484375 17.160156 71.582031 16.289062 73.769531 16.289062 C 75.953125 16.289062 78.050781 17.160156 79.597656 18.714844 C 81.144531 20.265625 82.011719 22.371094 82.011719 24.566406 C 82.011719 26.765625 81.144531 28.871094 79.597656 30.421875 C 78.050781 31.976562 75.953125 32.847656 73.769531 32.847656 Z M 73.769531 32.847656 " fill-opacity="1" fill-rule="nonzero"/></g><g clip-path="url(#030816df31)"><path fill="#75eea5" d="M 151.363281 10.578125 L 146.964844 10.578125 C 146.84375 10.566406 146.722656 10.585938 146.605469 10.625 C 146.492188 10.667969 146.386719 10.734375 146.296875 10.816406 C 146.207031 10.902344 146.136719 11.003906 146.089844 11.117188 C 146.042969 11.230469 146.019531 11.355469 146.019531 11.476562 L 146.019531 12.082031 L 147.582031 14.550781 L 147.152344 14.96875 C 145.863281 13.445312 144.265625 12.214844 142.460938 11.363281 C 140.660156 10.511719 138.699219 10.058594 136.707031 10.035156 C 132.867188 10.035156 129.183594 11.566406 126.464844 14.292969 C 123.75 17.023438 122.222656 20.722656 122.222656 24.582031 C 122.222656 28.4375 123.75 32.136719 126.464844 34.867188 C 129.183594 37.59375 132.867188 39.128906 136.707031 39.128906 C 138.707031 39.105469 140.679688 38.652344 142.492188 37.804688 C 144.304688 36.953125 145.914062 35.71875 147.210938 34.191406 L 147.582031 34.488281 L 146.019531 37.054688 L 146.019531 37.621094 C 146.019531 37.746094 146.042969 37.871094 146.089844 37.988281 C 146.136719 38.105469 146.207031 38.210938 146.292969 38.296875 C 146.382812 38.386719 146.488281 38.457031 146.601562 38.503906 C 146.71875 38.550781 146.84375 38.574219 146.964844 38.570312 L 151.363281 38.570312 C 151.492188 38.578125 151.617188 38.558594 151.734375 38.515625 C 151.855469 38.46875 151.960938 38.398438 152.050781 38.308594 C 152.140625 38.21875 152.207031 38.113281 152.253906 37.992188 C 152.296875 37.875 152.316406 37.75 152.3125 37.621094 L 152.3125 11.476562 C 152.316406 11.351562 152.296875 11.230469 152.25 11.113281 C 152.203125 11 152.132812 10.894531 152.042969 10.808594 C 151.953125 10.722656 151.847656 10.660156 151.730469 10.617188 C 151.613281 10.578125 151.488281 10.5625 151.363281 10.578125 Z M 136.707031 32.847656 C 134.523438 32.847656 132.425781 31.976562 130.878906 30.421875 C 129.332031 28.871094 128.464844 26.765625 128.464844 24.566406 C 128.464844 22.371094 129.332031 20.265625 130.878906 18.714844 C 132.425781 17.160156 134.523438 16.289062 136.707031 16.289062 C 138.894531 16.289062 140.992188 17.160156 142.539062 18.714844 C 144.082031 20.265625 144.953125 22.371094 144.953125 24.566406 C 144.953125 26.765625 144.082031 28.871094 142.539062 30.421875 C 140.992188 31.976562 138.894531 32.847656 136.707031 32.847656 Z M 136.707031 32.847656 " fill-opacity="1" fill-rule="nonzero"/></g><g clip-path="url(#1a17b131d7)"><path fill="#75eea5" d="M 118.609375 10.578125 L 114.101562 10.578125 C 113.375 10.578125 112.984375 10.972656 112.984375 11.355469 L 112.984375 25.011719 C 113.046875 25.96875 112.90625 26.925781 112.578125 27.824219 C 112.246094 28.71875 111.726562 29.535156 111.058594 30.21875 C 110.390625 30.902344 109.585938 31.433594 108.699219 31.78125 C 107.808594 32.125 106.859375 32.28125 105.90625 32.230469 C 101.949219 32.230469 99.394531 29.269531 99.394531 25.011719 L 99.394531 11.355469 C 99.394531 10.972656 98.78125 10.578125 98.386719 10.578125 L 93.472656 10.578125 C 93.273438 10.59375 93.085938 10.679688 92.945312 10.824219 C 92.804688 10.964844 92.714844 11.152344 92.699219 11.355469 L 92.699219 24.925781 C 92.660156 28.472656 94.019531 31.894531 96.484375 34.4375 C 98.945312 36.980469 102.3125 38.441406 105.84375 38.5 C 109.21875 38.5 112.480469 37.265625 115.011719 35.019531 L 115.269531 35.253906 L 113.265625 37.992188 L 113.265625 39.089844 C 113.265625 41.890625 109.074219 43.457031 106.632812 43.457031 L 105.070312 43.457031 C 104.945312 43.449219 104.820312 43.46875 104.699219 43.507812 C 104.582031 43.550781 104.472656 43.613281 104.378906 43.695312 C 104.285156 43.78125 104.210938 43.882812 104.15625 43.996094 C 104.101562 44.109375 104.070312 44.234375 104.0625 44.359375 L 104.0625 48.824219 C 104.085938 49.078125 104.203125 49.308594 104.390625 49.476562 C 104.578125 49.644531 104.820312 49.734375 105.070312 49.726562 L 106.632812 49.726562 C 114.101562 49.726562 119.554688 45.359375 119.554688 37.128906 L 119.554688 11.355469 C 119.523438 11.128906 119.40625 10.925781 119.230469 10.78125 C 119.058594 10.636719 118.835938 10.566406 118.609375 10.578125 Z M 118.609375 10.578125 " fill-opacity="1" fill-rule="nonzero"/></g></svg>