<svg xmlns="http://www.w3.org/2000/svg" xmlns:xlink="http://www.w3.org/1999/xlink" width="280" zoomAndPan="magnify" viewBox="0 0 210 67.92" height="80" preserveAspectRatio="xMidYMid meet" version="1.0"><defs><clipPath id="9530b92dc0"><path d="M 15.316406 12.703125 L 50 12.703125 L 50 47 L 15.316406 47 Z M 15.316406 12.703125 " clip-rule="nonzero"/></clipPath><clipPath id="9122e6ac33"><path d="M 59 12.703125 L 83 12.703125 L 83 47 L 59 47 Z M 59 12.703125 " clip-rule="nonzero"/></clipPath><clipPath id="fcdecf35a3"><path d="M 85 12.703125 L 115 12.703125 L 115 47 L 85 47 Z M 85 12.703125 " clip-rule="nonzero"/></clipPath><clipPath id="5387117c75"><path d="M 119 12.703125 L 143.417969 12.703125 L 143.417969 47 L 119 47 Z M 119 12.703125 " clip-rule="nonzero"/></clipPath></defs><path fill="#ffffff" d="M 26.527344 19.222656 C 28.734375 19.773438 31.09375 19.058594 32.902344 17.757812 C 34.6875 19.070312 37.023438 19.757812 39.214844 19.226562 C 39.585938 20.074219 40.160156 20.851562 41 21.28125 C 41.914062 21.75 42.925781 22.027344 43.933594 22.191406 C 43.316406 23.492188 43.363281 24.960938 43.351562 26.367188 L 43.304688 26.414062 C 41.234375 26.441406 39.160156 26.414062 37.089844 26.429688 C 36.832031 25.445312 36.269531 24.527344 35.433594 23.929688 C 34.1875 22.996094 32.410156 22.859375 31.027344 23.570312 C 29.894531 24.125 29.078125 25.210938 28.792969 26.433594 C 26.703125 26.417969 24.617188 26.425781 22.527344 26.425781 C 22.539062 24.996094 22.566406 23.503906 21.945312 22.175781 C 22.972656 21.960938 24.027344 21.722656 24.9375 21.179688 C 25.679688 20.738281 26.214844 20.015625 26.527344 19.222656 M 32.441406 20.304688 C 32.019531 20.316406 31.597656 20.320312 31.171875 20.320312 C 31.492188 20.589844 31.828125 20.84375 32.164062 21.085938 C 32.035156 21.488281 31.902344 21.886719 31.804688 22.296875 C 32.136719 22.050781 32.472656 21.808594 32.808594 21.570312 C 33.140625 21.796875 33.46875 22.035156 33.816406 22.246094 C 33.714844 21.859375 33.589844 21.480469 33.464844 21.097656 C 33.792969 20.835938 34.136719 20.589844 34.480469 20.34375 C 34.046875 20.3125 33.613281 20.316406 33.179688 20.296875 C 33.074219 19.917969 32.960938 19.542969 32.835938 19.167969 C 32.664062 19.53125 32.546875 19.917969 32.441406 20.304688 M 26.722656 21.210938 C 26.605469 21.613281 26.488281 22.015625 26.371094 22.417969 C 25.953125 22.425781 25.539062 22.429688 25.121094 22.441406 C 25.429688 22.691406 25.753906 22.921875 26.089844 23.136719 C 25.980469 23.546875 25.847656 23.953125 25.734375 24.363281 C 26.089844 24.152344 26.390625 23.863281 26.75 23.660156 C 27.117188 23.855469 27.425781 24.144531 27.785156 24.359375 C 27.667969 23.945312 27.511719 23.546875 27.40625 23.132812 C 27.742188 22.925781 28.066406 22.695312 28.367188 22.441406 C 27.964844 22.429688 27.558594 22.425781 27.152344 22.410156 C 27.039062 22 26.90625 21.59375 26.722656 21.210938 M 38.828125 21.195312 C 38.703125 21.601562 38.582031 22.011719 38.464844 22.417969 C 38.046875 22.425781 37.632812 22.425781 37.21875 22.441406 C 37.550781 22.699219 37.910156 22.925781 38.242188 23.179688 C 38.09375 23.570312 37.949219 23.964844 37.835938 24.363281 C 38.183594 24.136719 38.511719 23.882812 38.84375 23.636719 C 39.1875 23.878906 39.523438 24.125 39.875 24.355469 C 39.765625 23.945312 39.617188 23.546875 39.496094 23.144531 C 39.839844 22.917969 40.183594 22.691406 40.523438 22.464844 C 40.109375 22.417969 39.691406 22.417969 39.277344 22.429688 C 39.125 22.019531 38.996094 21.601562 38.828125 21.195312 Z M 38.828125 21.195312 " fill-opacity="1" fill-rule="nonzero"/><g clip-path="url(#9530b92dc0)"><path fill="#10357f" d="M 18.851562 12.878906 C 19.609375 12.742188 20.386719 12.769531 21.15625 12.773438 C 29.324219 12.753906 37.496094 12.78125 45.667969 12.761719 C 46.5625 12.757812 47.480469 12.984375 48.210938 13.515625 C 49.238281 14.238281 49.871094 15.472656 49.867188 16.726562 C 49.867188 25.457031 49.867188 34.1875 49.867188 42.917969 C 49.894531 44.632812 48.667969 46.261719 47.011719 46.707031 C 46.363281 46.902344 45.675781 46.859375 45.003906 46.859375 C 36.792969 46.859375 28.582031 46.859375 20.371094 46.863281 C 19.578125 46.878906 18.75 46.851562 18.027344 46.484375 C 16.667969 45.859375 15.734375 44.410156 15.765625 42.910156 C 15.765625 34.183594 15.765625 25.460938 15.765625 16.734375 C 15.71875 14.933594 17.09375 13.242188 18.851562 12.878906 M 19.390625 14.535156 C 18.328125 14.660156 17.484375 15.671875 17.53125 16.734375 C 17.535156 25.460938 17.53125 34.1875 17.535156 42.914062 C 17.511719 44.0625 18.550781 45.078125 19.695312 45.046875 C 28.425781 45.054688 37.160156 45.050781 45.894531 45.046875 C 47.050781 45.101562 48.109375 44.074219 48.09375 42.914062 C 48.097656 34.148438 48.097656 25.382812 48.089844 16.613281 C 48.09375 15.46875 47.046875 14.464844 45.902344 14.515625 C 37.429688 14.511719 28.953125 14.515625 20.480469 14.515625 C 20.117188 14.515625 19.75 14.496094 19.390625 14.535156 Z M 19.390625 14.535156 " fill-opacity="1" fill-rule="nonzero"/></g><g clip-path="url(#9122e6ac33)"><path fill="#10357f" d="M 59.203125 12.828125 C 61.816406 12.832031 64.429688 12.832031 67.046875 12.832031 C 68.839844 12.839844 70.644531 12.769531 72.425781 13.03125 C 74.886719 13.355469 77.355469 14.191406 79.246094 15.847656 C 80.882812 17.238281 81.890625 19.292969 82.121094 21.417969 C 82.292969 23.21875 82.175781 25.085938 81.488281 26.773438 C 80.839844 28.40625 79.679688 29.816406 78.242188 30.8125 C 76.460938 32.058594 74.335938 32.71875 72.203125 33.046875 C 69.910156 33.40625 67.585938 33.300781 65.277344 33.3125 C 65.265625 36.472656 65.28125 39.632812 65.269531 42.792969 C 65.277344 43.847656 64.601562 44.902344 63.59375 45.25 C 62.125 45.78125 60.671875 46.335938 59.199219 46.855469 C 59.195312 35.511719 59.191406 24.171875 59.203125 12.828125 M 65.269531 17.917969 C 65.277344 21.355469 65.265625 24.792969 65.277344 28.230469 C 67.363281 28.171875 69.472656 28.375 71.535156 27.980469 C 72.863281 27.722656 74.21875 27.175781 75.078125 26.089844 C 75.980469 24.949219 76.136719 23.398438 75.957031 22 C 75.800781 20.734375 75.058594 19.53125 73.929688 18.914062 C 72.488281 18.117188 70.800781 17.9375 69.179688 17.917969 C 67.875 17.910156 66.574219 17.914062 65.269531 17.917969 Z M 65.269531 17.917969 " fill-opacity="1" fill-rule="nonzero"/></g><g clip-path="url(#fcdecf35a3)"><path fill="#10357f" d="M 85.972656 12.796875 C 87.015625 12.746094 88.0625 12.765625 89.105469 12.777344 C 89.746094 12.785156 90.441406 12.675781 91.023438 13.015625 C 91.6875 13.378906 92.148438 14 92.578125 14.609375 C 97.820312 21.761719 103.074219 28.910156 108.3125 36.066406 C 108.441406 35.792969 108.382812 35.480469 108.394531 35.1875 C 108.390625 27.730469 108.398438 20.273438 108.390625 12.816406 C 109.421875 12.699219 110.464844 12.800781 111.5 12.769531 C 112.378906 12.804688 113.261719 12.710938 114.140625 12.824219 C 114.128906 24.078125 114.128906 35.332031 114.140625 46.585938 C 113.109375 46.605469 112.074219 46.589844 111.042969 46.597656 C 110.378906 46.613281 109.675781 46.460938 109.148438 46.035156 C 108.734375 45.730469 108.472656 45.28125 108.167969 44.875 C 102.675781 37.390625 97.203125 29.890625 91.707031 22.410156 C 91.699219 30.472656 91.707031 38.535156 91.703125 46.597656 C 89.792969 46.597656 87.882812 46.597656 85.972656 46.597656 C 85.972656 35.328125 85.972656 24.0625 85.972656 12.796875 Z M 85.972656 12.796875 " fill-opacity="1" fill-rule="nonzero"/></g><g clip-path="url(#5387117c75)"><path fill="#10357f" d="M 119.921875 12.824219 C 120.613281 12.667969 121.320312 12.808594 122.019531 12.78125 C 124.597656 12.75 127.171875 12.765625 129.746094 12.792969 C 131.449219 12.832031 133.160156 12.996094 134.800781 13.46875 C 136.300781 13.886719 137.761719 14.5625 138.929688 15.605469 C 141.691406 18.050781 142.402344 22.472656 140.597656 25.675781 C 139.878906 26.972656 138.660156 27.90625 137.355469 28.558594 C 138.582031 29.082031 139.785156 29.726562 140.738281 30.683594 C 142.046875 31.949219 142.808594 33.710938 143.015625 35.507812 C 143.261719 37.605469 142.902344 39.820312 141.800781 41.644531 C 140.964844 43.054688 139.671875 44.148438 138.222656 44.898438 C 135.785156 46.140625 133.007812 46.492188 130.304688 46.578125 C 126.84375 46.613281 123.382812 46.597656 119.921875 46.589844 C 119.933594 35.332031 119.933594 24.078125 119.921875 12.824219 M 125.886719 17.734375 C 125.882812 20.644531 125.882812 23.558594 125.886719 26.46875 C 128.109375 26.414062 130.414062 26.695312 132.554688 25.933594 C 133.796875 25.511719 134.964844 24.585938 135.304688 23.273438 C 135.589844 22.117188 135.542969 20.792969 134.875 19.773438 C 134.203125 18.761719 133.015625 18.269531 131.875 18.015625 C 129.90625 17.59375 127.878906 17.777344 125.886719 17.734375 M 125.832031 31.339844 C 125.839844 34.789062 125.832031 38.238281 125.835938 41.6875 C 127.285156 41.6875 128.738281 41.703125 130.1875 41.675781 C 131.8125 41.601562 133.5 41.421875 134.933594 40.59375 C 135.921875 40.003906 136.722656 39.035156 136.9375 37.882812 C 137.21875 36.414062 137.027344 34.761719 136.070312 33.5625 C 135.3125 32.589844 134.132812 32.066406 132.972656 31.753906 C 130.640625 31.148438 128.210938 31.375 125.832031 31.339844 Z M 125.832031 31.339844 " fill-opacity="1" fill-rule="nonzero"/></g><path fill="#10357f" d="M 31.738281 16.472656 C 32.171875 16.191406 32.488281 15.78125 32.828125 15.40625 C 33.652344 16.574219 35.011719 17.25 36.382812 17.546875 C 37.664062 17.832031 38.988281 17.75 40.273438 17.566406 C 40.511719 18.398438 41.074219 19.125 41.800781 19.585938 C 43.109375 20.441406 44.699219 20.726562 46.238281 20.757812 C 45.367188 22.125 44.875 23.726562 44.871094 25.347656 C 44.859375 29.597656 44.875 33.847656 44.863281 38.097656 C 44.855469 39.082031 44.738281 40.175781 44.007812 40.910156 C 43.238281 41.707031 42.085938 41.84375 41.0625 42.105469 C 38.675781 42.664062 36.289062 43.238281 33.894531 43.785156 C 33.445312 43.875 33.058594 44.167969 32.816406 44.554688 C 32.542969 44.222656 32.199219 43.929688 31.773438 43.832031 C 29.011719 43.15625 26.25 42.5 23.484375 41.855469 C 22.769531 41.691406 22.035156 41.414062 21.53125 40.859375 C 20.835938 40.125 20.730469 39.0625 20.722656 38.101562 C 20.714844 33.996094 20.722656 29.894531 20.71875 25.789062 C 20.75 24.039062 20.371094 22.238281 19.386719 20.769531 C 21.011719 20.703125 22.730469 20.429688 24.058594 19.421875 C 24.691406 18.960938 25.121094 18.277344 25.378906 17.550781 C 27.527344 17.945312 29.914062 17.773438 31.738281 16.472656 M 26.527344 19.222656 C 26.214844 20.015625 25.679688 20.738281 24.9375 21.179688 C 24.027344 21.722656 22.972656 21.960938 21.945312 22.175781 C 22.566406 23.503906 22.539062 24.996094 22.527344 26.425781 C 24.617188 26.425781 26.703125 26.417969 28.792969 26.433594 C 29.078125 25.210938 29.894531 24.125 31.027344 23.570312 C 32.410156 22.859375 34.1875 22.996094 35.433594 23.929688 C 36.269531 24.527344 36.832031 25.445312 37.089844 26.429688 C 39.160156 26.414062 41.234375 26.441406 43.304688 26.414062 L 43.351562 26.367188 C 43.363281 24.960938 43.316406 23.492188 43.933594 22.191406 C 42.925781 22.027344 41.914062 21.75 41 21.28125 C 40.160156 20.851562 39.585938 20.074219 39.214844 19.226562 C 37.023438 19.757812 34.6875 19.070312 32.902344 17.757812 C 31.09375 19.058594 28.734375 19.773438 26.527344 19.222656 M 32.125 24.140625 C 32.230469 24.496094 32.320312 24.855469 32.410156 25.210938 C 32.140625 25.289062 31.886719 25.40625 31.644531 25.546875 C 31.460938 25.222656 31.269531 24.90625 31.097656 24.578125 C 30.765625 24.574219 30.4375 24.578125 30.105469 24.574219 C 30.101562 24.90625 30.101562 25.234375 30.105469 25.566406 C 30.425781 25.746094 30.75 25.929688 31.070312 26.113281 C 30.949219 26.367188 30.839844 26.628906 30.742188 26.894531 C 30.394531 26.804688 30.050781 26.6875 29.699219 26.617188 C 29.421875 26.804688 29.207031 27.074219 28.957031 27.296875 C 29.15625 27.542969 29.359375 27.789062 29.609375 27.984375 C 29.976562 27.964844 30.328125 27.8125 30.683594 27.730469 C 30.777344 27.984375 30.894531 28.230469 30.992188 28.484375 C 30.734375 28.734375 30.371094 28.855469 30.0625 29.046875 C 30.058594 29.375 30.058594 29.707031 30.0625 30.039062 C 30.398438 30.023438 30.738281 30.074219 31.066406 30 C 31.261719 29.695312 31.421875 29.371094 31.605469 29.0625 C 31.851562 29.195312 32.109375 29.300781 32.375 29.394531 C 32.285156 29.765625 32.191406 30.136719 32.082031 30.5 C 32.316406 30.71875 32.5 31.019531 32.792969 31.15625 C 33.027344 30.949219 33.292969 30.75 33.4375 30.476562 C 33.386719 30.117188 33.28125 29.765625 33.210938 29.410156 C 33.484375 29.324219 33.742188 29.207031 33.992188 29.066406 C 34.167969 29.378906 34.324219 29.703125 34.519531 30 C 34.847656 30.070312 35.1875 30.027344 35.519531 30.039062 C 35.523438 29.703125 35.527344 29.371094 35.523438 29.039062 C 35.195312 28.871094 34.878906 28.679688 34.5625 28.5 C 34.679688 28.242188 34.789062 27.980469 34.894531 27.71875 C 35.261719 27.816406 35.632812 27.914062 36.003906 28.019531 C 36.230469 27.789062 36.457031 27.558594 36.6875 27.332031 C 36.457031 27.089844 36.21875 26.855469 35.96875 26.636719 C 35.632812 26.75 35.289062 26.839844 34.945312 26.933594 C 34.851562 26.664062 34.738281 26.402344 34.601562 26.152344 C 34.921875 25.976562 35.242188 25.800781 35.5625 25.621094 C 35.570312 25.285156 35.570312 24.953125 35.5625 24.617188 C 35.238281 24.632812 34.898438 24.574219 34.582031 24.652344 C 34.371094 24.945312 34.214844 25.273438 34.03125 25.582031 C 33.78125 25.46875 33.523438 25.363281 33.257812 25.277344 C 33.339844 24.914062 33.433594 24.550781 33.546875 24.199219 C 33.308594 23.945312 33.0625 23.703125 32.8125 23.460938 C 32.585938 23.6875 32.355469 23.917969 32.125 24.140625 M 22.429688 28.1875 C 22.445312 31.269531 22.433594 34.351562 22.433594 37.433594 C 22.441406 38.027344 22.390625 38.644531 22.617188 39.210938 C 22.773438 39.621094 23.140625 39.914062 23.546875 40.058594 C 24.480469 40.402344 25.464844 40.550781 26.425781 40.804688 C 28.261719 41.230469 30.097656 41.695312 31.941406 42.089844 C 31.960938 38.554688 31.941406 35.011719 31.949219 31.472656 C 31.382812 31.289062 30.808594 31.078125 30.328125 30.707031 C 29.492188 30.113281 28.914062 29.199219 28.679688 28.203125 C 26.597656 28.171875 24.511719 28.199219 22.429688 28.1875 M 36.953125 28.152344 C 36.625 29.753906 35.316406 31.074219 33.71875 31.425781 C 33.734375 34.980469 33.6875 38.535156 33.742188 42.089844 C 36.355469 41.398438 39.011719 40.871094 41.628906 40.183594 C 42.117188 40.042969 42.640625 39.839844 42.925781 39.394531 C 43.230469 38.910156 43.226562 38.316406 43.234375 37.765625 C 43.226562 34.5625 43.238281 31.355469 43.226562 28.148438 C 41.136719 28.152344 39.042969 28.144531 36.953125 28.152344 Z M 36.953125 28.152344 " fill-opacity="1" fill-rule="nonzero"/><path fill="#10357f" d="M 25.503906 30.585938 C 25.890625 30.484375 26.28125 30.40625 26.640625 30.230469 C 26.976562 30.222656 27.398438 30.128906 27.675781 30.355469 C 27.90625 30.898438 27.921875 31.507812 27.992188 32.089844 C 28.914062 32.105469 29.832031 32.101562 30.753906 32.09375 C 30.730469 32.445312 30.695312 32.796875 30.648438 33.144531 C 30.015625 33.152344 29.378906 33.136719 28.746094 33.195312 L 28.714844 33.308594 C 29.3125 33.488281 29.953125 33.488281 30.5625 33.621094 C 30.460938 33.929688 30.347656 34.230469 30.226562 34.53125 C 29.710938 34.445312 29.199219 34.3125 28.683594 34.21875 C 28.683594 34.253906 28.6875 34.324219 28.691406 34.359375 C 29.105469 34.628906 29.585938 34.777344 29.988281 35.070312 C 29.824219 35.351562 29.613281 35.59375 29.40625 35.839844 C 29.082031 35.597656 28.761719 35.34375 28.394531 35.164062 C 28.546875 35.523438 28.789062 35.835938 28.996094 36.167969 C 28.660156 36.371094 28.96875 36.644531 29.117188 36.859375 C 29.1875 36.9375 29.242188 37.050781 29.355469 37.0625 C 29.457031 36.914062 29.539062 36.753906 29.640625 36.605469 C 29.820312 36.5625 30.003906 36.570312 30.183594 36.558594 C 30.300781 36.96875 30.351562 37.414062 30.054688 37.765625 C 30.027344 37.601562 30 37.4375 29.96875 37.277344 C 29.671875 37.402344 29.523438 37.710938 29.394531 37.988281 C 29.398438 38.203125 29.632812 38.203125 29.785156 38.269531 C 29.648438 38.378906 29.523438 38.546875 29.328125 38.523438 C 29.160156 38.386719 29.050781 38.191406 28.929688 38.015625 C 28.96875 37.863281 29.003906 37.710938 29.019531 37.558594 C 28.835938 37.230469 28.59375 36.941406 28.386719 36.628906 C 28.242188 36.738281 28.007812 36.785156 27.949219 36.972656 C 28.214844 37.664062 28.605469 38.300781 28.863281 38.996094 C 28.707031 39.214844 28.433594 39.304688 28.210938 39.445312 C 27.972656 38.890625 27.777344 38.320312 27.558594 37.757812 C 27.535156 38.4375 27.734375 39.097656 27.765625 39.773438 C 27.542969 39.914062 27.316406 40.046875 27.085938 40.183594 C 26.863281 40.046875 26.640625 39.90625 26.414062 39.769531 C 26.472656 39.128906 26.621094 38.496094 26.617188 37.851562 C 26.378906 38.382812 26.238281 38.953125 25.992188 39.484375 C 25.765625 39.34375 25.542969 39.199219 25.320312 39.050781 C 25.652344 38.363281 26.011719 37.679688 26.285156 36.964844 C 26.160156 36.839844 26 36.761719 25.855469 36.667969 C 25.65625 36.945312 25.433594 37.203125 25.261719 37.5 C 25.113281 37.726562 25.371094 38.007812 25.203125 38.226562 C 25.085938 38.386719 24.972656 38.636719 24.734375 38.597656 C 24.644531 38.53125 24.558594 38.457031 24.476562 38.378906 C 24.585938 38.289062 24.789062 38.265625 24.828125 38.105469 C 24.734375 37.824219 24.539062 37.585938 24.308594 37.398438 C 24.242188 37.554688 24.179688 37.714844 24.113281 37.875 C 23.886719 37.511719 23.917969 37.09375 24.027344 36.699219 C 24.21875 36.71875 24.421875 36.679688 24.597656 36.753906 C 24.710938 36.90625 24.796875 37.074219 24.890625 37.234375 C 25.078125 37.007812 25.265625 36.78125 25.421875 36.527344 C 25.371094 36.46875 25.273438 36.351562 25.226562 36.289062 C 25.445312 35.960938 25.671875 35.636719 25.855469 35.285156 C 25.488281 35.421875 25.160156 35.632812 24.828125 35.839844 C 24.609375 35.597656 24.40625 35.34375 24.226562 35.070312 C 24.664062 34.777344 25.210938 34.644531 25.582031 34.253906 C 25.0625 34.273438 24.570312 34.46875 24.058594 34.523438 C 23.816406 34.3125 23.820312 33.910156 23.710938 33.617188 C 24.238281 33.523438 24.773438 33.484375 25.304688 33.386719 C 25.421875 33.363281 25.519531 33.304688 25.589844 33.199219 C 24.9375 33.148438 24.28125 33.148438 23.628906 33.140625 C 23.539062 32.773438 23.488281 32.402344 23.449219 32.027344 C 24.386719 32.011719 25.324219 32.019531 26.265625 32.023438 C 26.285156 31.851562 26.308594 31.683594 26.332031 31.515625 C 26.109375 31.464844 25.859375 31.421875 25.71875 31.222656 C 25.898438 31.203125 26.082031 31.183594 26.261719 31.164062 C 26 30.945312 25.617188 31.046875 25.296875 30.988281 C 25.359375 30.847656 25.429688 30.714844 25.503906 30.585938 Z M 25.503906 30.585938 " fill-opacity="1" fill-rule="nonzero"/><path fill="#10357f" d="M 37.5 30.289062 C 38.125 30.328125 38.757812 30.246094 39.378906 30.328125 C 39.6875 30.46875 40.105469 30.398438 40.320312 30.699219 C 40.480469 30.980469 40.957031 30.722656 41.070312 31.042969 C 41.074219 31.265625 40.992188 31.480469 40.9375 31.695312 C 40.613281 31.710938 40.292969 31.722656 39.96875 31.746094 C 39.953125 31.894531 39.933594 32.042969 39.910156 32.1875 C 40.195312 32.191406 40.480469 32.191406 40.761719 32.191406 C 40.703125 32.433594 40.644531 32.675781 40.589844 32.917969 C 40.304688 32.839844 40.011719 32.824219 39.722656 32.855469 C 39.789062 33.367188 40.3125 33.601562 40.734375 33.777344 C 40.910156 33.671875 41.089844 33.578125 41.257812 33.457031 C 41.316406 33.253906 41.289062 33.039062 41.296875 32.828125 C 41.460938 32.703125 41.632812 32.589844 41.816406 32.492188 C 41.8125 32.933594 41.808594 33.371094 41.816406 33.8125 C 41.527344 34.042969 41.25 34.28125 40.957031 34.503906 C 40.722656 34.738281 40.417969 34.460938 40.167969 34.398438 C 40.179688 34.601562 40.195312 34.804688 40.207031 35.007812 C 40.648438 35.058594 41.09375 35.101562 41.53125 35.183594 C 41.738281 35.191406 41.859375 35.382812 41.960938 35.542969 C 41.925781 35.675781 41.859375 35.796875 41.777344 35.902344 C 41.46875 35.972656 41.148438 35.957031 40.835938 35.976562 C 40.816406 35.921875 40.777344 35.808594 40.757812 35.753906 C 40.460938 35.757812 40.164062 35.757812 39.867188 35.757812 C 39.707031 35.996094 39.558594 36.238281 39.40625 36.480469 C 39.714844 36.484375 40.019531 36.5 40.324219 36.527344 C 40.355469 36.855469 40.242188 37.164062 40.144531 37.472656 C 40.308594 37.476562 40.472656 37.480469 40.640625 37.484375 C 40.753906 37.339844 40.867188 37.199219 40.980469 37.054688 C 41.179688 37.046875 41.375 37.035156 41.570312 37.023438 C 41.394531 37.441406 41.195312 37.851562 40.984375 38.253906 C 40.378906 38.253906 39.773438 38.257812 39.167969 38.25 C 39.183594 38.019531 39.199219 37.785156 39.207031 37.550781 C 38.835938 37.539062 38.453125 37.46875 38.089844 37.566406 C 37.808594 37.871094 37.59375 38.230469 37.335938 38.554688 C 37.449219 38.789062 37.570312 39.023438 37.695312 39.253906 C 37.941406 39.261719 38.191406 39.269531 38.4375 39.273438 C 38.558594 39.53125 38.65625 39.796875 38.726562 40.070312 C 38.148438 40.054688 37.566406 40.0625 36.988281 40.058594 C 36.644531 39.589844 36.285156 39.132812 35.9375 38.667969 C 36.160156 38.4375 36.375 38.183594 36.453125 37.863281 C 36.371094 37.402344 36.152344 36.96875 36.0625 36.507812 C 35.609375 36.410156 35.109375 36.21875 34.921875 35.753906 C 34.664062 35.125 34.949219 34.4375 35.347656 33.929688 C 35.613281 33.589844 35.84375 33.011719 35.417969 32.699219 C 35.195312 32.574219 35.214844 32.324219 35.210938 32.105469 C 35.410156 32.105469 35.609375 32.097656 35.808594 32.121094 C 36.316406 32.542969 36.328125 33.304688 36.058594 33.863281 C 35.867188 34.359375 35.351562 34.792969 35.53125 35.378906 C 35.605469 35.714844 35.949219 35.835938 36.25 35.867188 C 36.453125 35.613281 36.742188 35.457031 36.976562 35.238281 C 37.175781 34.871094 37.441406 34.484375 37.386719 34.046875 C 37.257812 34.191406 37.128906 34.339844 37.003906 34.492188 C 36.910156 34.316406 36.789062 34.152344 36.753906 33.953125 C 36.914062 33.703125 37.113281 33.472656 37.25 33.207031 C 37.023438 33.308594 36.808594 33.425781 36.617188 33.585938 C 36.570312 33.335938 36.519531 33.085938 36.46875 32.832031 C 36.789062 32.558594 37.242188 32.390625 37.402344 31.972656 C 37.136719 32.105469 36.867188 32.230469 36.585938 32.328125 C 36.652344 32.050781 36.683594 31.753906 36.839844 31.511719 C 37.089844 31.195312 37.425781 30.964844 37.6875 30.660156 C 37.636719 30.53125 37.566406 30.414062 37.5 30.289062 Z M 37.5 30.289062 " fill-opacity="1" fill-rule="nonzero"/><path fill="#fdb913" d="M 32.441406 20.304688 C 32.546875 19.917969 32.664062 19.53125 32.835938 19.167969 C 32.960938 19.542969 33.074219 19.917969 33.179688 20.296875 C 33.613281 20.316406 34.046875 20.3125 34.480469 20.34375 C 34.136719 20.589844 33.792969 20.835938 33.464844 21.097656 C 33.589844 21.480469 33.714844 21.859375 33.816406 22.246094 C 33.46875 22.035156 33.140625 21.796875 32.808594 21.570312 C 32.472656 21.808594 32.136719 22.050781 31.804688 22.296875 C 31.902344 21.886719 32.035156 21.488281 32.164062 21.085938 C 31.828125 20.84375 31.492188 20.589844 31.171875 20.320312 C 31.597656 20.320312 32.019531 20.316406 32.441406 20.304688 Z M 32.441406 20.304688 " fill-opacity="1" fill-rule="nonzero"/><path fill="#fdb913" d="M 26.722656 21.210938 C 26.90625 21.59375 27.039062 22 27.152344 22.410156 C 27.558594 22.425781 27.964844 22.429688 28.367188 22.441406 C 28.066406 22.695312 27.742188 22.925781 27.40625 23.132812 C 27.511719 23.546875 27.667969 23.945312 27.785156 24.359375 C 27.425781 24.144531 27.117188 23.855469 26.75 23.660156 C 26.390625 23.863281 26.089844 24.152344 25.734375 24.363281 C 25.847656 23.953125 25.980469 23.546875 26.089844 23.136719 C 25.753906 22.921875 25.429688 22.691406 25.121094 22.441406 C 25.539062 22.429688 25.953125 22.425781 26.371094 22.417969 C 26.488281 22.015625 26.605469 21.613281 26.722656 21.210938 Z M 26.722656 21.210938 " fill-opacity="1" fill-rule="nonzero"/><path fill="#fdb913" d="M 38.828125 21.195312 C 38.996094 21.601562 39.125 22.019531 39.277344 22.429688 C 39.691406 22.417969 40.109375 22.417969 40.523438 22.464844 C 40.183594 22.691406 39.839844 22.917969 39.496094 23.144531 C 39.617188 23.546875 39.765625 23.945312 39.875 24.355469 C 39.523438 24.125 39.1875 23.878906 38.84375 23.636719 C 38.511719 23.882812 38.183594 24.136719 37.835938 24.363281 C 37.949219 23.964844 38.09375 23.570312 38.242188 23.179688 C 37.910156 22.925781 37.550781 22.699219 37.21875 22.441406 C 37.632812 22.425781 38.046875 22.425781 38.464844 22.417969 C 38.582031 22.011719 38.703125 21.601562 38.828125 21.195312 Z M 38.828125 21.195312 " fill-opacity="1" fill-rule="nonzero"/><path fill="#fdb913" d="M 32.125 24.140625 C 32.355469 23.917969 32.585938 23.6875 32.8125 23.460938 C 33.0625 23.703125 33.308594 23.945312 33.546875 24.199219 C 33.433594 24.550781 33.339844 24.914062 33.257812 25.277344 C 33.523438 25.363281 33.78125 25.46875 34.03125 25.582031 C 34.214844 25.273438 34.371094 24.945312 34.582031 24.652344 C 34.898438 24.574219 35.238281 24.632812 35.5625 24.617188 C 35.570312 24.953125 35.570312 25.285156 35.5625 25.621094 C 35.242188 25.800781 34.921875 25.976562 34.601562 26.152344 C 34.738281 26.402344 34.851562 26.664062 34.945312 26.933594 C 35.289062 26.839844 35.632812 26.75 35.96875 26.636719 C 36.21875 26.855469 36.457031 27.089844 36.6875 27.332031 C 36.457031 27.558594 36.230469 27.789062 36.003906 28.019531 C 35.632812 27.914062 35.261719 27.816406 34.894531 27.71875 C 34.789062 27.980469 34.679688 28.242188 34.5625 28.5 C 34.878906 28.679688 35.195312 28.871094 35.523438 29.039062 C 35.527344 29.371094 35.523438 29.703125 35.519531 30.039062 C 35.1875 30.027344 34.847656 30.070312 34.519531 30 C 34.324219 29.703125 34.167969 29.378906 33.992188 29.066406 C 33.742188 29.207031 33.484375 29.324219 33.210938 29.410156 C 33.28125 29.765625 33.386719 30.117188 33.4375 30.476562 C 33.292969 30.75 33.027344 30.949219 32.792969 31.15625 C 32.5 31.019531 32.316406 30.71875 32.082031 30.5 C 32.191406 30.136719 32.285156 29.765625 32.375 29.394531 C 32.109375 29.300781 31.851562 29.195312 31.605469 29.0625 C 31.421875 29.371094 31.261719 29.695312 31.066406 30 C 30.738281 30.074219 30.398438 30.023438 30.0625 30.039062 C 30.058594 29.707031 30.058594 29.375 30.0625 29.046875 C 30.371094 28.855469 30.734375 28.734375 30.992188 28.484375 C 30.894531 28.230469 30.777344 27.984375 30.683594 27.730469 C 30.328125 27.8125 29.976562 27.964844 29.609375 27.984375 C 29.359375 27.789062 29.15625 27.542969 28.957031 27.296875 C 29.207031 27.074219 29.421875 26.804688 29.699219 26.617188 C 30.050781 26.6875 30.394531 26.804688 30.742188 26.894531 C 30.839844 26.628906 30.949219 26.367188 31.070312 26.113281 C 30.75 25.929688 30.425781 25.746094 30.105469 25.566406 C 30.101562 25.234375 30.101562 24.90625 30.105469 24.574219 C 30.4375 24.578125 30.765625 24.574219 31.097656 24.578125 C 31.269531 24.90625 31.460938 25.222656 31.644531 25.546875 C 31.886719 25.40625 32.140625 25.289062 32.410156 25.210938 C 32.320312 24.855469 32.230469 24.496094 32.125 24.140625 Z M 32.125 24.140625 " fill-opacity="1" fill-rule="nonzero"/><path fill="#00aeef" d="M 22.429688 28.1875 C 24.511719 28.199219 26.597656 28.171875 28.679688 28.203125 C 28.914062 29.199219 29.492188 30.113281 30.328125 30.707031 C 30.808594 31.078125 31.382812 31.289062 31.949219 31.472656 C 31.941406 35.011719 31.960938 38.554688 31.941406 42.089844 C 30.097656 41.695312 28.261719 41.230469 26.425781 40.804688 C 25.464844 40.550781 24.480469 40.402344 23.546875 40.058594 C 23.140625 39.914062 22.773438 39.621094 22.617188 39.210938 C 22.390625 38.644531 22.441406 38.027344 22.433594 37.433594 C 22.433594 34.351562 22.445312 31.269531 22.429688 28.1875 M 25.503906 30.585938 C 25.429688 30.714844 25.359375 30.847656 25.296875 30.988281 C 25.617188 31.046875 26 30.945312 26.261719 31.164062 C 26.082031 31.183594 25.898438 31.203125 25.71875 31.222656 C 25.859375 31.421875 26.109375 31.464844 26.332031 31.515625 C 26.308594 31.683594 26.285156 31.851562 26.265625 32.023438 C 25.324219 32.019531 24.386719 32.011719 23.449219 32.027344 C 23.488281 32.402344 23.539062 32.773438 23.628906 33.140625 C 24.28125 33.148438 24.9375 33.148438 25.589844 33.199219 C 25.519531 33.304688 25.421875 33.363281 25.304688 33.386719 C 24.773438 33.484375 24.238281 33.523438 23.710938 33.617188 C 23.820312 33.910156 23.816406 34.3125 24.058594 34.523438 C 24.570312 34.46875 25.0625 34.273438 25.582031 34.253906 C 25.210938 34.644531 24.664062 34.777344 24.226562 35.070312 C 24.40625 35.34375 24.609375 35.597656 24.828125 35.839844 C 25.160156 35.632812 25.488281 35.421875 25.855469 35.285156 C 25.671875 35.636719 25.445312 35.960938 25.226562 36.289062 C 25.273438 36.351562 25.371094 36.46875 25.421875 36.527344 C 25.265625 36.78125 25.078125 37.007812 24.890625 37.234375 C 24.796875 37.074219 24.710938 36.90625 24.597656 36.753906 C 24.421875 36.679688 24.21875 36.71875 24.027344 36.699219 C 23.917969 37.09375 23.886719 37.511719 24.113281 37.875 C 24.179688 37.714844 24.242188 37.554688 24.308594 37.398438 C 24.539062 37.585938 24.734375 37.824219 24.828125 38.105469 C 24.789062 38.265625 24.585938 38.289062 24.476562 38.378906 C 24.558594 38.457031 24.644531 38.53125 24.734375 38.597656 C 24.972656 38.636719 25.085938 38.386719 25.203125 38.226562 C 25.371094 38.007812 25.113281 37.726562 25.261719 37.5 C 25.433594 37.203125 25.65625 36.945312 25.855469 36.667969 C 26 36.761719 26.160156 36.839844 26.285156 36.964844 C 26.011719 37.679688 25.652344 38.363281 25.320312 39.050781 C 25.542969 39.199219 25.765625 39.34375 25.992188 39.484375 C 26.238281 38.953125 26.378906 38.382812 26.617188 37.851562 C 26.621094 38.496094 26.472656 39.128906 26.414062 39.769531 C 26.640625 39.90625 26.863281 40.046875 27.085938 40.183594 C 27.316406 40.046875 27.542969 39.914062 27.765625 39.773438 C 27.734375 39.097656 27.535156 38.4375 27.558594 37.757812 C 27.777344 38.320312 27.972656 38.890625 28.210938 39.445312 C 28.433594 39.304688 28.707031 39.214844 28.863281 38.996094 C 28.605469 38.300781 28.214844 37.664062 27.949219 36.972656 C 28.007812 36.785156 28.242188 36.738281 28.386719 36.628906 C 28.59375 36.941406 28.835938 37.230469 29.019531 37.558594 C 29.003906 37.710938 28.96875 37.863281 28.929688 38.015625 C 29.050781 38.191406 29.160156 38.386719 29.328125 38.523438 C 29.523438 38.546875 29.648438 38.378906 29.785156 38.269531 C 29.632812 38.203125 29.398438 38.203125 29.394531 37.988281 C 29.523438 37.710938 29.671875 37.402344 29.96875 37.277344 C 30 37.4375 30.027344 37.601562 30.054688 37.765625 C 30.351562 37.414062 30.300781 36.96875 30.183594 36.558594 C 30.003906 36.570312 29.820312 36.5625 29.640625 36.605469 C 29.539062 36.753906 29.457031 36.914062 29.355469 37.0625 C 29.242188 37.050781 29.1875 36.9375 29.117188 36.859375 C 28.96875 36.644531 28.660156 36.371094 28.996094 36.167969 C 28.789062 35.835938 28.546875 35.523438 28.394531 35.164062 C 28.761719 35.34375 29.082031 35.597656 29.40625 35.839844 C 29.613281 35.59375 29.824219 35.351562 29.988281 35.070312 C 29.585938 34.777344 29.105469 34.628906 28.691406 34.359375 C 28.6875 34.324219 28.683594 34.253906 28.683594 34.21875 C 29.199219 34.3125 29.710938 34.445312 30.226562 34.53125 C 30.347656 34.230469 30.460938 33.929688 30.5625 33.621094 C 29.953125 33.488281 29.3125 33.488281 28.714844 33.308594 L 28.746094 33.195312 C 29.378906 33.136719 30.015625 33.152344 30.648438 33.144531 C 30.695312 32.796875 30.730469 32.445312 30.753906 32.09375 C 29.832031 32.101562 28.914062 32.105469 27.992188 32.089844 C 27.921875 31.507812 27.90625 30.898438 27.675781 30.355469 C 27.398438 30.128906 26.976562 30.222656 26.640625 30.230469 C 26.28125 30.40625 25.890625 30.484375 25.503906 30.585938 Z M 25.503906 30.585938 " fill-opacity="1" fill-rule="nonzero"/><path fill="#ed1c24" d="M 36.953125 28.152344 C 39.042969 28.144531 41.136719 28.152344 43.226562 28.148438 C 43.238281 31.355469 43.226562 34.5625 43.234375 37.765625 C 43.226562 38.316406 43.230469 38.910156 42.925781 39.394531 C 42.640625 39.839844 42.117188 40.042969 41.628906 40.183594 C 39.011719 40.871094 36.355469 41.398438 33.742188 42.089844 C 33.6875 38.535156 33.734375 34.980469 33.71875 31.425781 C 35.316406 31.074219 36.625 29.753906 36.953125 28.152344 M 37.5 30.289062 C 37.566406 30.414062 37.636719 30.53125 37.6875 30.660156 C 37.425781 30.964844 37.089844 31.195312 36.839844 31.511719 C 36.683594 31.753906 36.652344 32.050781 36.585938 32.328125 C 36.867188 32.230469 37.136719 32.105469 37.402344 31.972656 C 37.242188 32.390625 36.789062 32.558594 36.46875 32.832031 C 36.519531 33.085938 36.570312 33.335938 36.617188 33.585938 C 36.808594 33.425781 37.023438 33.308594 37.25 33.207031 C 37.113281 33.472656 36.914062 33.703125 36.753906 33.953125 C 36.789062 34.152344 36.910156 34.316406 37.003906 34.492188 C 37.128906 34.339844 37.257812 34.191406 37.386719 34.046875 C 37.441406 34.484375 37.175781 34.871094 36.976562 35.238281 C 36.742188 35.457031 36.453125 35.613281 36.25 35.867188 C 35.949219 35.835938 35.605469 35.714844 35.53125 35.378906 C 35.351562 34.792969 35.867188 34.359375 36.058594 33.863281 C 36.328125 33.304688 36.316406 32.542969 35.808594 32.121094 C 35.609375 32.097656 35.410156 32.105469 35.210938 32.105469 C 35.214844 32.324219 35.195312 32.574219 35.417969 32.699219 C 35.84375 33.011719 35.613281 33.589844 35.347656 33.929688 C 34.949219 34.4375 34.664062 35.125 34.921875 35.753906 C 35.109375 36.21875 35.609375 36.410156 36.0625 36.507812 C 36.152344 36.96875 36.371094 37.402344 36.453125 37.863281 C 36.375 38.183594 36.160156 38.4375 35.9375 38.667969 C 36.285156 39.132812 36.644531 39.589844 36.988281 40.058594 C 37.566406 40.0625 38.148438 40.054688 38.726562 40.070312 C 38.65625 39.796875 38.558594 39.53125 38.4375 39.273438 C 38.191406 39.269531 37.941406 39.261719 37.695312 39.253906 C 37.570312 39.023438 37.449219 38.789062 37.335938 38.554688 C 37.59375 38.230469 37.808594 37.871094 38.089844 37.566406 C 38.453125 37.46875 38.835938 37.539062 39.207031 37.550781 C 39.199219 37.785156 39.183594 38.019531 39.167969 38.25 C 39.773438 38.257812 40.378906 38.253906 40.984375 38.253906 C 41.195312 37.851562 41.394531 37.441406 41.570312 37.023438 C 41.375 37.035156 41.179688 37.046875 40.980469 37.054688 C 40.867188 37.199219 40.753906 37.339844 40.640625 37.484375 C 40.472656 37.480469 40.308594 37.476562 40.144531 37.472656 C 40.242188 37.164062 40.355469 36.855469 40.324219 36.527344 C 40.019531 36.5 39.714844 36.484375 39.40625 36.480469 C 39.558594 36.238281 39.707031 35.996094 39.867188 35.757812 C 40.164062 35.757812 40.460938 35.757812 40.757812 35.753906 C 40.777344 35.808594 40.816406 35.921875 40.835938 35.976562 C 41.148438 35.957031 41.46875 35.972656 41.777344 35.902344 C 41.859375 35.796875 41.925781 35.675781 41.960938 35.542969 C 41.859375 35.382812 41.738281 35.191406 41.53125 35.183594 C 41.09375 35.101562 40.648438 35.058594 40.207031 35.007812 C 40.195312 34.804688 40.179688 34.601562 40.167969 34.398438 C 40.417969 34.460938 40.722656 34.738281 40.957031 34.503906 C 41.25 34.28125 41.527344 34.042969 41.816406 33.8125 C 41.808594 33.371094 41.8125 32.933594 41.816406 32.492188 C 41.632812 32.589844 41.460938 32.703125 41.296875 32.828125 C 41.289062 33.039062 41.316406 33.253906 41.257812 33.457031 C 41.089844 33.578125 40.910156 33.671875 40.734375 33.777344 C 40.3125 33.601562 39.789062 33.367188 39.722656 32.855469 C 40.011719 32.824219 40.304688 32.839844 40.589844 32.917969 C 40.644531 32.675781 40.703125 32.433594 40.761719 32.191406 C 40.480469 32.191406 40.195312 32.191406 39.910156 32.1875 C 39.933594 32.042969 39.953125 31.894531 39.96875 31.746094 C 40.292969 31.722656 40.613281 31.710938 40.9375 31.695312 C 40.992188 31.480469 41.074219 31.265625 41.070312 31.042969 C 40.957031 30.722656 40.480469 30.980469 40.320312 30.699219 C 40.105469 30.398438 39.6875 30.46875 39.378906 30.328125 C 38.757812 30.246094 38.125 30.328125 37.5 30.289062 Z M 37.5 30.289062 " fill-opacity="1" fill-rule="nonzero"/></svg>