<svg xmlns="http://www.w3.org/2000/svg" xmlns:xlink="http://www.w3.org/1999/xlink" width="280" zoomAndPan="magnify" viewBox="0 0 210 67.92" height="80" preserveAspectRatio="xMidYMid meet" version="1.0"><defs><clipPath id="156c40b170"><path d="M 10 14.523438 L 30 14.523438 L 30 36 L 10 36 Z M 10 14.523438 " clip-rule="nonzero"/></clipPath></defs><g clip-path="url(#156c40b170)"><path fill="#a0cf67" d="M 15.101562 17.171875 C 16.988281 15.769531 19.300781 14.949219 21.652344 14.824219 C 24.589844 14.644531 27.554688 15.578125 29.898438 17.335938 C 29.859375 17.390625 29.824219 17.445312 29.785156 17.5 C 28.199219 19.410156 26.621094 21.324219 25.039062 23.234375 C 24.914062 23.390625 24.789062 23.546875 24.644531 23.691406 C 23.75 24.722656 22.898438 25.792969 22.023438 26.839844 C 19.5 29.886719 16.976562 32.9375 14.449219 35.988281 C 12.929688 34.640625 11.742188 32.921875 11.035156 31.019531 C 10.0625 28.433594 10.007812 25.511719 10.90625 22.894531 C 11.671875 20.617188 13.164062 18.597656 15.101562 17.171875 Z M 15.101562 17.171875 " fill-opacity="1" fill-rule="nonzero"/></g><path fill="#0168b3" d="M 39.207031 20.640625 C 40.371094 20.332031 41.621094 20.378906 42.777344 20.707031 C 43.804688 21.003906 44.742188 21.585938 45.484375 22.355469 C 44.738281 23.253906 43.984375 24.148438 43.242188 25.050781 C 42.527344 24.644531 41.832031 24.167969 41.023438 23.957031 C 40.691406 23.867188 40.324219 23.914062 40.027344 24.089844 C 39.574219 24.378906 39.273438 24.878906 39.234375 25.414062 C 39.171875 25.941406 39.421875 26.453125 39.785156 26.824219 C 40.261719 27.308594 40.871094 27.640625 41.488281 27.914062 C 42.257812 28.277344 43.023438 28.664062 43.734375 29.136719 C 44.683594 29.761719 45.34375 30.753906 45.6875 31.824219 C 46.152344 33.34375 45.929688 35.0625 45.074219 36.40625 C 44.355469 37.53125 43.285156 38.457031 42.023438 38.921875 C 40.820312 39.351562 39.464844 39.375 38.265625 38.929688 C 36.964844 38.464844 35.878906 37.558594 34.925781 36.582031 C 35.703125 35.550781 36.511719 34.542969 37.308594 33.527344 C 37.914062 34.203125 38.605469 34.851562 39.472656 35.179688 C 39.960938 35.359375 40.542969 35.414062 41.003906 35.125 C 41.601562 34.746094 42.109375 34.113281 42.125 33.382812 C 42.121094 32.769531 41.714844 32.253906 41.253906 31.890625 C 40.007812 30.898438 38.324219 30.675781 37.089844 29.660156 C 36.296875 28.949219 35.855469 27.921875 35.644531 26.898438 C 35.429688 25.570312 35.597656 24.152344 36.257812 22.964844 C 36.882812 21.84375 37.957031 20.96875 39.207031 20.640625 Z M 39.207031 20.640625 " fill-opacity="1" fill-rule="nonzero"/><path fill="#0168b3" d="M 64 21.136719 C 65.355469 20.484375 66.914062 20.324219 68.390625 20.554688 C 69.59375 20.730469 70.746094 21.15625 71.835938 21.675781 C 71.839844 23.167969 71.835938 24.664062 71.839844 26.15625 C 70.640625 25.382812 69.351562 24.671875 67.925781 24.4375 C 66.78125 24.242188 65.527344 24.457031 64.613281 25.195312 C 63.582031 26.011719 63.011719 27.28125 62.816406 28.558594 C 62.625 29.851562 62.652344 31.210938 63.117188 32.453125 C 63.53125 33.558594 64.359375 34.535156 65.460938 35.003906 C 66.46875 35.4375 67.625 35.484375 68.679688 35.191406 C 69.808594 34.890625 70.847656 34.339844 71.824219 33.714844 C 71.855469 35.195312 71.828125 36.679688 71.839844 38.160156 C 70.414062 38.679688 68.9375 39.121094 67.410156 39.21875 C 65.828125 39.320312 64.203125 38.902344 62.902344 37.988281 C 60.914062 36.582031 59.550781 34.351562 59.148438 31.960938 C 58.875 30.363281 58.914062 28.707031 59.304688 27.128906 C 59.625 25.84375 60.210938 24.625 61.035156 23.582031 C 61.828125 22.566406 62.824219 21.683594 64 21.136719 Z M 64 21.136719 " fill-opacity="1" fill-rule="nonzero"/><path fill="#0168b3" d="M 73.914062 20.664062 C 75.089844 20.664062 76.265625 20.664062 77.441406 20.664062 C 77.445312 24.402344 77.441406 28.136719 77.445312 31.875 C 77.460938 32.851562 77.777344 33.878906 78.539062 34.539062 C 79.117188 35.050781 79.929688 35.226562 80.683594 35.128906 C 81.433594 35.066406 82.167969 34.699219 82.617188 34.089844 C 83.179688 33.351562 83.324219 32.398438 83.332031 31.496094 C 83.332031 27.886719 83.332031 24.273438 83.332031 20.664062 C 84.5 20.664062 85.667969 20.664062 86.839844 20.664062 C 86.847656 24.597656 86.839844 28.535156 86.84375 32.46875 C 86.824219 33.6875 86.480469 34.886719 85.9375 35.96875 C 85.367188 37.105469 84.363281 38 83.195312 38.488281 C 81.894531 39.070312 80.417969 39.128906 79.027344 38.929688 C 77.765625 38.746094 76.527344 38.1875 75.691406 37.207031 C 74.800781 36.136719 74.152344 34.839844 73.972656 33.449219 C 73.886719 32.828125 73.917969 32.199219 73.914062 31.574219 C 73.914062 27.9375 73.914062 24.300781 73.914062 20.664062 Z M 73.914062 20.664062 " fill-opacity="1" fill-rule="nonzero"/><path fill="#0168b3" d="M 159.082031 20.777344 C 160.003906 20.773438 160.929688 20.78125 161.851562 20.773438 C 164.105469 26.816406 166.347656 32.863281 168.589844 38.910156 C 167.386719 38.914062 166.1875 38.914062 164.984375 38.910156 C 164.546875 37.722656 164.105469 36.53125 163.660156 35.34375 C 161.554688 35.347656 159.453125 35.339844 157.347656 35.347656 C 156.917969 36.535156 156.484375 37.722656 156.054688 38.914062 C 154.855469 38.910156 153.660156 38.914062 152.464844 38.910156 C 154.667969 32.867188 156.878906 26.824219 159.082031 20.777344 M 160.46875 26.75 C 159.839844 28.515625 159.1875 30.273438 158.554688 32.039062 C 159.847656 32.039062 161.140625 32.042969 162.4375 32.039062 C 161.773438 30.277344 161.128906 28.511719 160.46875 26.75 Z M 160.46875 26.75 " fill-opacity="1" fill-rule="nonzero"/><path fill="#0168b3" d="M 47.773438 20.8125 C 50.917969 20.8125 54.0625 20.8125 57.210938 20.8125 C 57.207031 22.011719 57.21875 23.207031 57.203125 24.40625 C 55.269531 24.394531 53.332031 24.402344 51.398438 24.402344 C 51.398438 25.609375 51.394531 26.816406 51.398438 28.023438 C 53.335938 28.023438 55.273438 28.023438 57.210938 28.023438 C 57.210938 29.207031 57.210938 30.390625 57.210938 31.570312 C 55.273438 31.570312 53.335938 31.570312 51.398438 31.570312 C 51.402344 32.8125 51.390625 34.050781 51.402344 35.292969 C 53.339844 35.285156 55.273438 35.289062 57.210938 35.289062 C 57.210938 36.484375 57.210938 37.679688 57.210938 38.875 C 54.0625 38.875 50.917969 38.875 47.773438 38.875 C 47.773438 32.855469 47.773438 26.835938 47.773438 20.8125 Z M 47.773438 20.8125 " fill-opacity="1" fill-rule="nonzero"/><path fill="#0168b3" d="M 89.125 20.832031 C 90.515625 20.832031 91.90625 20.832031 93.296875 20.832031 C 94.308594 20.839844 95.339844 20.777344 96.324219 21.050781 C 97.1875 21.28125 97.996094 21.738281 98.597656 22.398438 C 99.402344 23.246094 99.808594 24.410156 99.878906 25.5625 C 99.976562 26.605469 99.777344 27.664062 99.398438 28.636719 C 99.175781 29.234375 98.851562 29.804688 98.386719 30.253906 C 97.945312 30.714844 97.394531 31.0625 96.828125 31.347656 C 98.359375 33.851562 99.898438 36.351562 101.425781 38.855469 C 100.058594 38.851562 98.6875 38.859375 97.320312 38.851562 C 95.921875 36.527344 94.484375 34.226562 93.089844 31.898438 C 92.957031 31.894531 92.824219 31.890625 92.695312 31.886719 C 92.691406 34.210938 92.695312 36.53125 92.691406 38.855469 C 91.503906 38.855469 90.316406 38.855469 89.125 38.855469 C 89.125 32.847656 89.125 26.839844 89.125 20.832031 M 92.710938 24.0625 C 92.714844 25.621094 92.710938 27.175781 92.710938 28.730469 C 93.320312 28.738281 93.941406 28.761719 94.535156 28.617188 C 95.117188 28.480469 95.671875 28.136719 95.949219 27.59375 C 96.230469 27.039062 96.300781 26.382812 96.191406 25.773438 C 96.066406 25.066406 95.492188 24.5 94.824219 24.265625 C 94.148438 24.015625 93.417969 24.0625 92.710938 24.0625 Z M 92.710938 24.0625 " fill-opacity="1" fill-rule="nonzero"/><path fill="#0168b3" d="M 102.808594 20.832031 C 103.984375 20.832031 105.164062 20.832031 106.339844 20.832031 C 106.339844 26.839844 106.339844 32.847656 106.339844 38.855469 C 105.164062 38.855469 103.988281 38.855469 102.808594 38.855469 C 102.808594 32.847656 102.808594 26.839844 102.808594 20.832031 Z M 102.808594 20.832031 " fill-opacity="1" fill-rule="nonzero"/><path fill="#0168b3" d="M 108.300781 20.832031 C 112.039062 20.835938 115.773438 20.828125 119.507812 20.835938 C 119.570312 21.019531 119.515625 21.234375 119.53125 21.429688 C 119.53125 22.515625 119.535156 23.597656 119.527344 24.683594 C 118.253906 24.679688 116.976562 24.683594 115.703125 24.679688 C 115.699219 29.40625 115.703125 34.128906 115.703125 38.855469 C 114.5 38.855469 113.296875 38.855469 112.09375 38.855469 C 112.09375 34.128906 112.097656 29.40625 112.09375 24.679688 C 110.832031 24.683594 109.566406 24.683594 108.300781 24.679688 C 108.300781 23.398438 108.300781 22.117188 108.300781 20.832031 Z M 108.300781 20.832031 " fill-opacity="1" fill-rule="nonzero"/><path fill="#0168b3" d="M 121 20.835938 C 122.328125 20.835938 123.652344 20.820312 124.980469 20.84375 C 125.976562 22.699219 126.996094 24.542969 128 26.394531 C 129.023438 24.542969 130.054688 22.695312 131.070312 20.839844 C 132.398438 20.824219 133.730469 20.835938 135.058594 20.832031 C 133.3125 24.039062 131.539062 27.230469 129.808594 30.445312 C 129.792969 33.246094 129.796875 36.046875 129.804688 38.847656 C 128.625 38.867188 127.449219 38.851562 126.269531 38.855469 C 126.265625 36.054688 126.28125 33.257812 126.261719 30.457031 C 124.523438 27.242188 122.75 24.042969 121 20.835938 Z M 121 20.835938 " fill-opacity="1" fill-rule="nonzero"/><path fill="#0168b3" d="M 140.726562 20.832031 C 142.003906 20.832031 143.277344 20.832031 144.554688 20.832031 C 145.335938 20.839844 146.117188 20.800781 146.890625 20.902344 C 147.6875 21.003906 148.5 21.203125 149.164062 21.667969 C 149.628906 21.976562 149.960938 22.441406 150.234375 22.917969 C 150.703125 23.738281 150.894531 24.699219 150.859375 25.640625 C 150.832031 26.253906 150.726562 26.878906 150.4375 27.429688 C 150.128906 28.035156 149.652344 28.53125 149.171875 29.003906 C 149.890625 29.28125 150.582031 29.671875 151.109375 30.242188 C 151.964844 31.210938 152.351562 32.542969 152.296875 33.820312 C 152.289062 35.179688 151.78125 36.582031 150.726562 37.480469 C 149.601562 38.476562 148.0625 38.824219 146.59375 38.855469 C 144.640625 38.855469 142.683594 38.855469 140.726562 38.855469 C 140.726562 32.847656 140.726562 26.839844 140.726562 20.832031 M 144.332031 23.875 C 144.332031 25.183594 144.328125 26.492188 144.332031 27.796875 C 144.984375 27.792969 145.695312 27.875 146.265625 27.492188 C 147.023438 27.039062 147.433594 26.082031 147.230469 25.222656 C 147.082031 24.660156 146.597656 24.226562 146.0625 24.019531 C 145.511719 23.796875 144.910156 23.894531 144.332031 23.875 M 144.332031 30.878906 C 144.332031 32.523438 144.332031 34.167969 144.332031 35.8125 C 145.351562 35.785156 146.425781 35.941406 147.378906 35.5 C 147.972656 35.242188 148.40625 34.675781 148.5 34.039062 C 148.605469 33.339844 148.542969 32.582031 148.164062 31.964844 C 147.824219 31.402344 147.203125 31.058594 146.566406 30.945312 C 145.828125 30.820312 145.078125 30.898438 144.332031 30.878906 Z M 144.332031 30.878906 " fill-opacity="1" fill-rule="nonzero"/><path fill="#0168b3" d="M 170.152344 20.8125 C 171.339844 20.8125 172.53125 20.820312 173.722656 20.808594 C 176.269531 24.664062 178.796875 28.53125 181.34375 32.386719 C 181.34375 28.53125 181.34375 24.675781 181.339844 20.820312 C 182.519531 20.808594 183.695312 20.816406 184.871094 20.8125 C 184.875 26.835938 184.875 32.855469 184.875 38.875 C 183.695312 38.875 182.519531 38.878906 181.34375 38.871094 C 178.816406 34.984375 176.292969 31.097656 173.757812 27.21875 C 173.757812 31.105469 173.757812 34.988281 173.757812 38.875 C 172.554688 38.875 171.355469 38.875 170.152344 38.875 C 170.152344 32.855469 170.152344 26.835938 170.152344 20.8125 Z M 170.152344 20.8125 " fill-opacity="1" fill-rule="nonzero"/><path fill="#0168b3" d="M 187.0625 20.832031 C 188.257812 20.832031 189.453125 20.832031 190.648438 20.832031 C 190.652344 23.367188 190.644531 25.902344 190.652344 28.4375 C 191.15625 27.816406 191.59375 27.140625 192.070312 26.496094 C 193.425781 24.609375 194.78125 22.71875 196.140625 20.832031 C 197.605469 20.832031 199.070312 20.832031 200.535156 20.832031 C 198.453125 23.707031 196.355469 26.570312 194.265625 29.441406 C 196.445312 32.578125 198.625 35.714844 200.800781 38.855469 C 199.367188 38.855469 197.929688 38.855469 196.492188 38.855469 C 195.402344 37.265625 194.304688 35.683594 193.210938 34.097656 C 192.355469 32.875 191.535156 31.628906 190.652344 30.421875 C 190.640625 33.234375 190.652344 36.042969 190.648438 38.855469 C 189.453125 38.855469 188.257812 38.855469 187.0625 38.855469 C 187.0625 32.847656 187.0625 26.839844 187.0625 20.832031 Z M 187.0625 20.832031 " fill-opacity="1" fill-rule="nonzero"/><path fill="#1ab7ea" d="M 22.023438 26.839844 C 22.898438 25.792969 23.75 24.722656 24.644531 23.691406 C 26.351562 25.214844 27.648438 27.195312 28.308594 29.382812 C 29.054688 31.828125 29.007812 34.507812 28.15625 36.917969 C 27.386719 39.117188 25.9375 41.074219 24.066406 42.46875 C 21.980469 44.039062 19.363281 44.898438 16.746094 44.882812 C 14.039062 44.890625 11.347656 43.976562 9.199219 42.339844 C 10.945312 40.21875 12.699219 38.105469 14.449219 35.988281 C 16.976562 32.9375 19.5 29.886719 22.023438 26.839844 Z M 22.023438 26.839844 " fill-opacity="1" fill-rule="nonzero"/></svg>